  0
SECTION
  2
HEADER
  9
$ACADVER
  1
AC1014
  9
$ACADMAINTVER
 70
     9
  9
$DWGCODEPAGE
  3
ANSI_1252
  9
$INSBASE
 10
0.0
 20
0.0
 30
0.0
  9
$EXTMIN
 10
1.000000000000000E+20
 20
1.000000000000000E+20
 30
1.000000000000000E+20
  9
$EXTMAX
 10
-1.000000000000000E+20
 20
-1.000000000000000E+20
 30
-1.000000000000000E+20
  9
$LIMMIN
 10
0.0
 20
0.0
  9
$LIMMAX
 10
12.0
 20
9.0
  9
$ORTHOMODE
 70
     0
  9
$REGENMODE
 70
     1
  9
$FILLMODE
 70
     1
  9
$QTEXTMODE
 70
     0
  9
$MIRRTEXT
 70
     1
  9
$DRAGMODE
 70
     2
  9
$LTSCALE
 40
1.0
  9
$OSMODE
 70
    37
  9
$ATTMODE
 70
     1
  9
$TEXTSIZE
 40
0.2
  9
$TRACEWID
 40
0.05
  9
$TEXTSTYLE
  7
STANDARD
  9
$CLAYER
  8
0
  9
$CELTYPE
  6
BYLAYER
  9
$CECOLOR
 62
   256
  9
$CELTSCALE
 40
1.0
  9
$DELOBJ
 70
     1
  9
$DISPSILH
 70
     0
  9
$DIMSCALE
 40
1.0
  9
$DIMASZ
 40
0.18
  9
$DIMEXO
 40
0.0625
  9
$DIMDLI
 40
0.38
  9
$DIMRND
 40
0.0
  9
$DIMDLE
 40
0.0
  9
$DIMEXE
 40
0.18
  9
$DIMTP
 40
0.0
  9
$DIMTM
 40
0.0
  9
$DIMTXT
 40
0.18
  9
$DIMCEN
 40
0.09
  9
$DIMTSZ
 40
0.0
  9
$DIMTOL
 70
     0
  9
$DIMLIM
 70
     0
  9
$DIMTIH
 70
     1
  9
$DIMTOH
 70
     1
  9
$DIMSE1
 70
     0
  9
$DIMSE2
 70
     0
  9
$DIMTAD
 70
     0
  9
$DIMZIN
 70
     0
  9
$DIMBLK
  1

  9
$DIMASO
 70
     1
  9
$DIMSHO
 70
     1
  9
$DIMPOST
  1

  9
$DIMAPOST
  1

  9
$DIMALT
 70
     0
  9
$DIMALTD
 70
     2
  9
$DIMALTF
 40
25.4
  9
$DIMLFAC
 40
1.0
  9
$DIMTOFL
 70
     0
  9
$DIMTVP
 40
0.0
  9
$DIMTIX
 70
     0
  9
$DIMSOXD
 70
     0
  9
$DIMSAH
 70
     0
  9
$DIMBLK1
  1

  9
$DIMBLK2
  1

  9
$DIMSTYLE
  2
STANDARD
  9
$DIMCLRD
 70
     0
  9
$DIMCLRE
 70
     0
  9
$DIMCLRT
 70
     0
  9
$DIMTFAC
 40
1.0
  9
$DIMGAP
 40
0.09
  9
$DIMJUST
 70
     0
  9
$DIMSD1
 70
     0
  9
$DIMSD2
 70
     0
  9
$DIMTOLJ
 70
     1
  9
$DIMTZIN
 70
     0
  9
$DIMALTZ
 70
     0
  9
$DIMALTTZ
 70
     0
  9
$DIMFIT
 70
     3
  9
$DIMUPT
 70
     0
  9
$DIMUNIT
 70
     2
  9
$DIMDEC
 70
     4
  9
$DIMTDEC
 70
     4
  9
$DIMALTU
 70
     2
  9
$DIMALTTD
 70
     2
  9
$DIMTXSTY
  7
STANDARD
  9
$DIMAUNIT
 70
     0
  9
$LUNITS
 70
     2
  9
$LUPREC
 70
     4
  9
$SKETCHINC
 40
0.1
  9
$FILLETRAD
 40
0.5
  9
$AUNITS
 70
     0
  9
$AUPREC
 70
     0
  9
$MENU
  1
.
  9
$ELEVATION
 40
0.0
  9
$PELEVATION
 40
0.0
  9
$THICKNESS
 40
0.0
  9
$LIMCHECK
 70
     0
  9
$CHAMFERA
 40
0.0
  9
$CHAMFERB
 40
0.0
  9
$CHAMFERC
 40
0.0
  9
$CHAMFERD
 40
0.0
  9
$SKPOLY
 70
     0
  9
$TDCREATE
 40
2456776.835642859
  9
$TDUPDATE
 40
2456776.835643276
  9
$TDINDWG
 40
0.0000000116
  9
$TDUSRTIMER
 40
0.0000000116
  9
$USRTIMER
 70
     1
  9
$ANGBASE
 50
0.0
  9
$ANGDIR
 70
     0
  9
$PDMODE
 70
     0
  9
$PDSIZE
 40
0.0
  9
$PLINEWID
 40
0.0
  9
$COORDS
 70
     1
  9
$SPLFRAME
 70
     0
  9
$SPLINETYPE
 70
     6
  9
$SPLINESEGS
 70
     8
  9
$ATTDIA
 70
     0
  9
$ATTREQ
 70
     1
  9
$HANDLING
 70
     1
  9
$HANDSEED
  5
329
  9
$SURFTAB1
 70
     6
  9
$SURFTAB2
 70
     6
  9
$SURFTYPE
 70
     6
  9
$SURFU
 70
     6
  9
$SURFV
 70
     6
  9
$UCSNAME
  2

  9
$UCSORG
 10
0.0
 20
0.0
 30
0.0
  9
$UCSXDIR
 10
1.0
 20
0.0
 30
0.0
  9
$UCSYDIR
 10
0.0
 20
1.0
 30
0.0
  9
$PUCSNAME
  2

  9
$PUCSORG
 10
0.0
 20
0.0
 30
0.0
  9
$PUCSXDIR
 10
1.0
 20
0.0
 30
0.0
  9
$PUCSYDIR
 10
0.0
 20
1.0
 30
0.0
  9
$USERI1
 70
     0
  9
$USERI2
 70
     0
  9
$USERI3
 70
     0
  9
$USERI4
 70
     0
  9
$USERI5
 70
     0
  9
$USERR1
 40
0.0
  9
$USERR2
 40
0.0
  9
$USERR3
 40
0.0
  9
$USERR4
 40
0.0
  9
$USERR5
 40
0.0
  9
$WORLDVIEW
 70
     1
  9
$SHADEDGE
 70
     3
  9
$SHADEDIF
 70
    70
  9
$TILEMODE
 70
     1
  9
$MAXACTVP
 70
    64
  9
$PINSBASE
 10
0.0
 20
0.0
 30
0.0
  9
$PLIMCHECK
 70
     0
  9
$PEXTMIN
 10
1.000000000000000E+20
 20
1.000000000000000E+20
 30
1.000000000000000E+20
  9
$PEXTMAX
 10
-1.000000000000000E+20
 20
-1.000000000000000E+20
 30
-1.000000000000000E+20
  9
$PLIMMIN
 10
0.0
 20
0.0
  9
$PLIMMAX
 10
12.0
 20
9.0
  9
$UNITMODE
 70
     0
  9
$VISRETAIN
 70
     1
  9
$PLINEGEN
 70
     0
  9
$PSLTSCALE
 70
     1
  9
$TREEDEPTH
 70
  3020
  9
$PICKSTYLE
 70
     1
  9
$CMLSTYLE
  2
STANDARD
  9
$CMLJUST
 70
     0
  9
$CMLSCALE
 40
1.0
  9
$PROXYGRAPHICS
 70
     1
  9
$MEASUREMENT
 70
     0
  0
ENDSEC
  0
SECTION
  2
CLASSES
  0
CLASS
  1
ACDBDICTIONARYWDFLT
  2
AcDbDictionaryWithDefault
  3
ObjectDBX Classes
 90
        0
280
     0
281
     0
  0
CLASS
  1
VISUALSTYLE
  2
AcDbVisualStyle
  3
ObjectDBX Classes
 90
     4095
280
     0
281
     0
  0
CLASS
  1
MATERIAL
  2
AcDbMaterial
  3
ObjectDBX Classes
 90
     1153
280
     0
281
     0
  0
CLASS
  1
SCALE
  2
AcDbScale
  3
ObjectDBX Classes
 90
     1153
280
     0
281
     0
  0
CLASS
  1
SUN
  2
AcDbSun
  3
SCENEOE
 90
     1153
280
     0
281
     0
  0
CLASS
  1
DICTIONARYVAR
  2
AcDbDictionaryVar
  3
ObjectDBX Classes
 90
        0
280
     0
281
     0
  0
CLASS
  1
XRECORD
  2
AcDbXrecord
  3
ObjectDBX Classes
 90
        0
280
     0
281
     0
  0
CLASS
  1
LWPOLYLINE
  2
AcDbPolyline
  3
ObjectDBX Classes
 90
        0
280
     0
281
     1
  0
CLASS
  1
HATCH
  2
AcDbHatch
  3
ObjectDBX Classes
 90
        0
280
     0
281
     1
  0
CLASS
  1
ACDBPLACEHOLDER
  2
AcDbPlaceHolder
  3
ObjectDBX Classes
 90
        0
280
     0
281
     0
  0
CLASS
  1
LAYOUT
  2
AcDbLayout
  3
ObjectDBX Classes
 90
        0
280
     0
281
     0
  0
ENDSEC
  0
SECTION
  2
TABLES
  0
TABLE
  2
VPORT
  5
8
102
{ACAD_XDICTIONARY
360
31F
102
}
330
0
100
AcDbSymbolTable
 70
     1
  0
VPORT
  5
29
330
8
100
AcDbSymbolTableRecord
100
AcDbViewportTableRecord
  2
*ACTIVE
 70
     0
 10
0.0
 20
0.0
 11
1.0
 21
1.0
 12
0.0
 22
0.0
 13
0.0
 23
0.0
 14
0.5
 24
0.5
 15
0.5
 25
0.5
 16
0.0
 26
0.0
 36
1.0
 17
0.0
 27
0.0
 37
-1000.0
 40
20.39473684210527
 41
2.199770378874856
 42
50.0
 43
21.68272861379396
 44
36.67611275019262
 50
0.0
 51
0.0
 71
     0
 72
   100
 73
     1
 74
     3
 75
     0
 76
     0
 77
     0
 78
     0
  0
ENDTAB
  0
TABLE
  2
LTYPE
  5
5
330
0
100
AcDbSymbolTable
 70
     1
  0
LTYPE
  5
14
330
5
100
AcDbSymbolTableRecord
100
AcDbLinetypeTableRecord
  2
BYBLOCK
 70
     0
  3

 72
    65
 73
     0
 40
0.0
  0
LTYPE
  5
15
330
5
100
AcDbSymbolTableRecord
100
AcDbLinetypeTableRecord
  2
BYLAYER
 70
     0
  3

 72
    65
 73
     0
 40
0.0
  0
LTYPE
  5
16
330
5
100
AcDbSymbolTableRecord
100
AcDbLinetypeTableRecord
  2
CONTINUOUS
 70
     0
  3
Solid line
 72
    65
 73
     0
 40
0.0
  0
ENDTAB
  0
TABLE
  2
LAYER
  5
2
330
0
100
AcDbSymbolTable
 70
     3
  0
LAYER
  5
10
330
2
100
AcDbSymbolTableRecord
100
AcDbLayerTableRecord
  2
0
 70
     0
 62
     7
  6
CONTINUOUS
  0
LAYER
  5
6A
330
2
100
AcDbSymbolTableRecord
100
AcDbLayerTableRecord
  2
PROFILEEDGES
 70
     0
 62
     7
  6
CONTINUOUS
  0
LAYER
  5
6B
330
2
100
AcDbSymbolTableRecord
100
AcDbLayerTableRecord
  2
SECTIONCUTEDGES
 70
     0
 62
     7
  6
CONTINUOUS
  0
ENDTAB
  0
TABLE
  2
STYLE
  5
3
330
0
100
AcDbSymbolTable
 70
     1
  0
STYLE
  5
11
330
3
100
AcDbSymbolTableRecord
100
AcDbTextStyleTableRecord
  2
STANDARD
 70
     0
 40
0.0
 41
1.0
 50
0.0
 71
     0
 42
0.2
  3
txt
  4

  0
ENDTAB
  0
TABLE
  2
VIEW
  5
6
330
0
100
AcDbSymbolTable
 70
     0
  0
ENDTAB
  0
TABLE
  2
UCS
  5
7
330
0
100
AcDbSymbolTable
 70
     0
  0
ENDTAB
  0
TABLE
  2
APPID
  5
9
330
0
100
AcDbSymbolTable
 70
     1
  0
APPID
  5
12
330
9
100
AcDbSymbolTableRecord
100
AcDbRegAppTableRecord
  2
ACAD
 70
     0
  0
ENDTAB
  0
TABLE
  2
DIMSTYLE
  5
A
330
0
100
AcDbSymbolTable
 70
     1
  0
DIMSTYLE
105
27
330
A
100
AcDbSymbolTableRecord
100
AcDbDimStyleTableRecord
  2
STANDARD
 70
     0
  3

  4

  5

  6

  7

 40
1.0
 41
0.18
 42
0.0625
 43
0.38
 44
0.18
 45
0.0
 46
0.0
 47
0.0
 48
0.0
140
0.18
141
0.09
142
0.0
143
25.4
144
1.0
145
0.0
146
1.0
147
0.09
 71
     0
 72
     0
 73
     1
 74
     1
 75
     0
 76
     0
 77
     0
 78
     0
170
     0
171
     2
172
     0
173
     0
174
     0
175
     0
176
     0
177
     0
178
     0
270
     2
271
     4
272
     4
273
     2
274
     2
340
11
275
     0
280
     0
281
     0
282
     0
283
     1
284
     0
285
     0
286
     0
287
     3
288
     0
  0
ENDTAB
  0
TABLE
  2
BLOCK_RECORD
  5
1
330
0
100
AcDbSymbolTable
 70
     1
  0
BLOCK_RECORD
  5
1F
330
1
100
AcDbSymbolTableRecord
100
AcDbBlockTableRecord
  2
*MODEL_SPACE
  0
BLOCK_RECORD
  5
1B
330
1
100
AcDbSymbolTableRecord
100
AcDbBlockTableRecord
  2
*PAPER_SPACE
  0
ENDTAB
  0
ENDSEC
  0
SECTION
  2
BLOCKS
  0
BLOCK
  5
20
330
1F
100
AcDbEntity
  8
0
100
AcDbBlockBegin
  2
*MODEL_SPACE
 70
     0
 10
0.0
 20
0.0
 30
0.0
  3
*MODEL_SPACE
  1

  0
ENDBLK
  5
21
330
1F
100
AcDbEntity
  8
0
100
AcDbBlockEnd
  0
BLOCK
  5
1C
330
1B
100
AcDbEntity
 67
     1
  8
0
100
AcDbBlockBegin
  2
*PAPER_SPACE
 70
     0
 10
0.0
 20
0.0
 30
0.0
  3
*PAPER_SPACE
  1

  0
ENDBLK
  5
1D
330
1B
100
AcDbEntity
 67
     1
  8
0
100
AcDbBlockEnd
  0
ENDSEC
  0
SECTION
  2
ENTITIES
  0
LINE
  5
6C
330
1F
100
AcDbEntity
  8
0
100
AcDbLine
 10
-12.66955080756887
 20
-3.437500000000002
 30
0.0
 11
-12.7501155740733
 21
-3.592263476518603
 31
0.0
  0
LINE
  5
6D
330
1F
100
AcDbEntity
  8
0
100
AcDbLine
 10
-13.47428821817552
 20
0.2220760221444937
 30
0.0
 11
-13.4375
 21
0.2455127018922187
 31
0.0
  0
LINE
  5
6E
330
1F
100
AcDbEntity
  8
0
100
AcDbLine
 10
-13.31690952255126
 20
0.2954629131445312
 30
0.0
 11
-13.27432408883347
 21
0.304903876506101
 31
0.0
  0
LINE
  5
6F
330
1F
100
AcDbEntity
  8
0
100
AcDbLine
 10
-12.3517135623731
 20
-3.023286437626909
 30
0.0
 11
-12.46958888623795
 21
-3.151924780626921
 31
0.0
  0
LINE
  5
70
330
1F
100
AcDbEntity
  8
0
100
AcDbLine
 10
-11.7827365234814
 20
-2.624884425926703
 30
0.0
 11
-11.9375
 21
-2.705449192431126
 31
0.0
  0
LINE
  5
71
330
1F
100
AcDbEntity
  8
0
100
AcDbLine
 10
-12.90711550602441
 20
-4.090203644666142
 30
0.0
 11
-12.92988939618349
 21
-4.263188514504684
 31
0.0
  0
LINE
  5
72
330
1F
100
AcDbEntity
  8
0
100
AcDbLine
 10
-11.45513809020504
 20
-2.505648347421866
 30
0.0
 11
-11.62154028665134
 21
-2.558114758428186
 31
0.0
  0
LINE
  5
73
330
1F
100
AcDbEntity
  8
0
100
AcDbLine
 10
-12.57580408857798
 20
-3.29034712729791
 30
0.0
 11
-12.66955080756887
 21
-3.437500000000002
 31
0.0
  0
LINE
  5
74
330
1F
100
AcDbEntity
  8
0
100
AcDbLine
 10
-11.28479635533386
 20
-2.467884493975586
 30
0.0
 11
-11.45513809020504
 21
-2.505648347421866
 31
0.0
  0
LINE
  5
75
330
1F
100
AcDbEntity
  8
0
100
AcDbLine
 10
-10.9375
 20
-2.437500000000003
 30
0.0
 11
-11.11181148549531
 21
-2.445110603816512
 31
0.0
  0
LINE
  5
76
330
1F
100
AcDbEntity
  8
0
100
AcDbLine
 10
-11.62154028665134
 20
-2.558114758428186
 30
0.0
 11
-11.7827365234814
 21
-2.624884425926703
 31
0.0
  0
LINE
  5
77
330
1F
100
AcDbEntity
  8
0
100
AcDbLine
 10
-12.08465287270209
 20
-2.799195911422019
 30
0.0
 11
-12.22307521937308
 21
-2.905411113762047
 31
0.0
  0
LINE
  5
78
330
1F
100
AcDbEntity
  8
0
100
AcDbLine
 10
-11.9375
 20
-2.705449192431126
 30
0.0
 11
-12.08465287270209
 21
-2.799195911422019
 31
0.0
  0
LINE
  5
79
330
1F
100
AcDbEntity
  8
0
100
AcDbLine
 10
-12.22307521937308
 20
-2.905411113762047
 30
0.0
 11
-12.3517135623731
 21
-3.023286437626909
 31
0.0
  0
LINE
  5
7A
330
1F
100
AcDbEntity
  8
0
100
AcDbLine
 10
-12.92988939618349
 20
-4.263188514504684
 30
0.0
 11
-12.9375
 21
-4.4375
 31
0.0
  0
LINE
  5
7B
330
1F
100
AcDbEntity
  8
0
100
AcDbLine
 10
-12.7501155740733
 20
-3.592263476518603
 30
0.0
 11
-12.81688524157182
 21
-3.753459713348664
 31
0.0
  0
LINE
  5
7C
330
1F
100
AcDbEntity
  8
0
100
AcDbLine
 10
-13.68559734904587
 20
-0.1439221286261727
 30
0.0
 11
-13.67990387650611
 21
-0.1006759111665367
 31
0.0
  0
LINE
  5
7D
330
1F
100
AcDbEntity
  8
0
100
AcDbLine
 10
-12.46958888623795
 20
-3.151924780626921
 30
0.0
 11
-12.57580408857798
 21
-3.29034712729791
 31
0.0
  0
LINE
  5
7E
330
1F
100
AcDbEntity
  8
0
100
AcDbLine
 10
-12.81688524157182
 20
-3.753459713348664
 30
0.0
 11
-12.86935165257814
 21
-3.919861909794959
 31
0.0
  0
LINE
  5
7F
330
1F
100
AcDbEntity
  8
0
100
AcDbLine
 10
-11.11181148549531
 20
-2.445110603816512
 30
0.0
 11
-11.28479635533386
 21
-2.467884493975586
 31
0.0
  0
LINE
  5
80
330
1F
100
AcDbEntity
  8
0
100
AcDbLine
 10
-12.86935165257814
 20
-3.919861909794959
 30
0.0
 11
-12.90711550602441
 21
-4.090203644666142
 31
0.0
  0
LINE
  5
81
330
1F
100
AcDbEntity
  8
0
100
AcDbLine
 10
-13.35851007166283
 20
0.2823463103929527
 30
0.0
 11
-13.31690952255126
 21
0.2954629131445312
 31
0.0
  0
LINE
  5
82
330
1F
100
AcDbEntity
  8
0
100
AcDbLine
 10
-13.39880913087035
 20
0.2656538935183228
 30
0.0
 11
-13.35851007166283
 21
0.2823463103929527
 31
0.0
  0
LINE
  5
83
330
1F
100
AcDbEntity
  8
0
100
AcDbLine
 10
-13.54105339059327
 20
0.1660533905932713
 30
0.0
 11
-13.50889380484327
 21
0.1955222215594876
 31
0.0
  0
LINE
  5
84
330
1F
100
AcDbEntity
  8
0
100
AcDbLine
 10
-13.23107787137383
 20
0.3105973490458709
 30
0.0
 11
-13.1875
 21
0.3124999999999982
 31
0.0
  0
LINE
  5
85
330
1F
100
AcDbEntity
  8
0
100
AcDbLine
 10
-13.64065389351833
 20
0.0238091308703474
 30
0.0
 11
-13.62051270189222
 21
0.0624999999999982
 31
0.0
  0
LINE
  5
86
330
1F
100
AcDbEntity
  8
0
100
AcDbLine
 10
-13.62051270189222
 20
0.0624999999999982
 30
0.0
 11
-13.5970760221445
 21
0.0992882181755217
 31
0.0
  0
LINE
  5
87
330
1F
100
AcDbEntity
  8
0
100
AcDbLine
 10
-13.65734631039296
 20
-0.0164899283371671
 30
0.0
 11
-13.64065389351833
 21
0.0238091308703474
 31
0.0
  0
LINE
  5
88
330
1F
100
AcDbEntity
  8
0
100
AcDbLine
 10
-13.67990387650611
 20
-0.1006759111665367
 30
0.0
 11
-13.67046291314454
 21
-0.0580904774487419
 31
0.0
  0
LINE
  5
89
330
1F
100
AcDbEntity
  8
0
100
AcDbLine
 10
-13.5970760221445
 20
0.0992882181755217
 30
0.0
 11
-13.57052222155949
 21
0.1338938048432681
 31
0.0
  0
LINE
  5
8A
330
1F
100
AcDbEntity
  8
0
100
AcDbLine
 10
-13.57052222155949
 20
0.1338938048432681
 30
0.0
 11
-13.54105339059327
 21
0.1660533905932713
 31
0.0
  0
LINE
  5
8B
330
1F
100
AcDbEntity
  8
0
100
AcDbLine
 10
-13.50889380484327
 20
0.1955222215594876
 30
0.0
 11
-13.47428821817552
 21
0.2220760221444937
 31
0.0
  0
LINE
  5
8C
330
1F
100
AcDbEntity
  8
0
100
AcDbLine
 10
-13.6875
 20
-0.1875000000000018
 30
0.0
 11
-13.68559734904587
 21
-0.1439221286261727
 31
0.0
  0
LINE
  5
8D
330
1F
100
AcDbEntity
  8
0
100
AcDbLine
 10
-13.27432408883347
 20
0.304903876506101
 30
0.0
 11
-13.23107787137383
 21
0.3105973490458709
 31
0.0
  0
LINE
  5
8E
330
1F
100
AcDbEntity
  8
0
100
AcDbLine
 10
-13.9375
 20
-0.9531250000000018
 30
0.0
 11
-12.921875
 21
-0.9531250000000018
 31
0.0
  0
LINE
  5
8F
330
1F
100
AcDbEntity
  8
0
100
AcDbLine
 10
-12.67187499999999
 20
-0.9531250000000018
 30
0.0
 11
-12.671875
 21
-0.4218750000000018
 31
0.0
  0
LINE
  5
90
330
1F
100
AcDbEntity
  8
0
100
AcDbLine
 10
-13.9375
 20
-9.687500000000002
 30
0.0
 11
-13.9375
 21
-8.937500000000002
 31
0.0
  0
LINE
  5
91
330
1F
100
AcDbEntity
  8
0
100
AcDbLine
 10
-13.67046291314454
 20
-0.0580904774487419
 30
0.0
 11
-13.65734631039296
 21
-0.0164899283371671
 31
0.0
  0
LINE
  5
92
330
1F
100
AcDbEntity
  8
0
100
AcDbLine
 10
-13.4375
 20
0.2455127018922187
 30
0.0
 11
-13.39880913087035
 21
0.2656538935183228
 31
0.0
  0
LINE
  5
93
330
1F
100
AcDbEntity
  8
0
100
AcDbLine
 10
-14.4375
 20
-1.937500000000002
 30
0.0
 11
-13.9375
 21
-1.937500000000002
 31
0.0
  0
LINE
  5
94
330
1F
100
AcDbEntity
  8
0
100
AcDbLine
 10
-13.9375
 20
-9.687500000000002
 30
0.0
 11
-13.4375
 21
-9.687500000000002
 31
0.0
  0
LINE
  5
95
330
1F
100
AcDbEntity
  8
0
100
AcDbLine
 10
-14.4375
 20
-8.687500000000002
 30
0.0
 11
-14.4375
 21
-1.937500000000002
 31
0.0
  0
LINE
  5
96
330
1F
100
AcDbEntity
  8
0
100
AcDbLine
 10
-13.9375
 20
-8.687500000000002
 30
0.0
 11
-14.4375
 21
-8.687500000000002
 31
0.0
  0
LINE
  5
97
330
1F
100
AcDbEntity
  8
0
100
AcDbLine
 10
-7.687500000000002
 20
-2.437500000000004
 30
0.0
 11
-10.9375
 21
-2.437500000000003
 31
0.0
  0
LINE
  5
98
330
1F
100
AcDbEntity
  8
0
100
AcDbLine
 10
-13.6875
 20
-0.1875000000000018
 30
0.0
 11
-13.6875
 21
-0.4218750000000018
 31
0.0
  0
LINE
  5
99
330
1F
100
AcDbEntity
  8
0
100
AcDbLine
 10
-7.189402650954128
 20
-0.1439221286261745
 30
0.0
 11
-7.195096123493897
 21
-0.1006759111665385
 31
0.0
  0
LINE
  5
9A
330
1F
100
AcDbEntity
  8
0
100
AcDbLine
 10
-7.643922128626173
 20
0.3105973490458691
 30
0.0
 11
-7.687500000000001
 21
0.3124999999999964
 31
0.0
  0
LINE
  5
9B
330
1F
100
AcDbEntity
  8
0
100
AcDbLine
 10
-7.47619086912965
 20
0.265653893518321
 30
0.0
 11
-7.516489928337165
 21
0.2823463103929509
 31
0.0
  0
LINE
  5
9C
330
1F
100
AcDbEntity
  8
0
100
AcDbLine
 10
-7.437500000000001
 20
0.245512701892217
 30
0.0
 11
-7.47619086912965
 21
0.265653893518321
 31
0.0
  0
LINE
  5
9D
330
1F
100
AcDbEntity
  8
0
100
AcDbLine
 10
-7.30447777844051
 20
0.1338938048432663
 30
0.0
 11
-7.333946609406725
 21
0.1660533905932695
 31
0.0
  0
LINE
  5
9E
330
1F
100
AcDbEntity
  8
0
100
AcDbLine
 10
-7.254487298107781
 20
0.0624999999999964
 30
0.0
 11
-7.277923977855504
 21
0.0992882181755199
 31
0.0
  0
LINE
  5
9F
330
1F
100
AcDbEntity
  8
0
100
AcDbLine
 10
-7.187500000000001
 20
-0.1875000000000036
 30
0.0
 11
-7.189402650954128
 21
-0.1439221286261745
 31
0.0
  0
LINE
  5
A0
330
1F
100
AcDbEntity
  8
0
100
AcDbLine
 10
-7.234346106481676
 20
0.0238091308703456
 30
0.0
 11
-7.254487298107781
 21
0.0624999999999964
 31
0.0
  0
LINE
  5
A1
330
1F
100
AcDbEntity
  8
0
100
AcDbLine
 10
-7.217653689607046
 20
-0.0164899283371689
 30
0.0
 11
-7.234346106481676
 21
0.0238091308703456
 31
0.0
  0
LINE
  5
A2
330
1F
100
AcDbEntity
  8
0
100
AcDbLine
 10
-8.203124999999998
 20
-0.9531250000000036
 30
0.0
 11
-8.203124999999998
 21
-0.4218750000000036
 31
0.0
  0
LINE
  5
A3
330
1F
100
AcDbEntity
  8
0
100
AcDbLine
 10
-7.516489928337165
 20
0.2823463103929509
 30
0.0
 11
-7.55809047744874
 21
0.2954629131445294
 31
0.0
  0
LINE
  5
A4
330
1F
100
AcDbEntity
  8
0
100
AcDbLine
 10
-7.204537086855467
 20
-0.0580904774487436
 30
0.0
 11
-7.217653689607046
 21
-0.0164899283371689
 31
0.0
  0
LINE
  5
A5
330
1F
100
AcDbEntity
  8
0
100
AcDbLine
 10
-7.55809047744874
 20
0.2954629131445294
 30
0.0
 11
-7.600675911166535
 21
0.3049038765060992
 31
0.0
  0
LINE
  5
A6
330
1F
100
AcDbEntity
  8
0
100
AcDbLine
 10
-7.366106195156729
 20
0.1955222215594858
 30
0.0
 11
-7.400711781824476
 21
0.222076022144492
 31
0.0
  0
LINE
  5
A7
330
1F
100
AcDbEntity
  8
0
100
AcDbLine
 10
-7.600675911166535
 20
0.3049038765060992
 30
0.0
 11
-7.643922128626173
 21
0.3105973490458691
 31
0.0
  0
LINE
  5
A8
330
1F
100
AcDbEntity
  8
0
100
AcDbLine
 10
-7.687500000000001
 20
0.3124999999999964
 30
0.0
 11
-13.1875
 21
0.3124999999999982
 31
0.0
  0
LINE
  5
A9
330
1F
100
AcDbEntity
  8
0
100
AcDbLine
 10
-7.400711781824476
 20
0.222076022144492
 30
0.0
 11
-7.437500000000001
 21
0.245512701892217
 31
0.0
  0
LINE
  5
AA
330
1F
100
AcDbEntity
  8
0
100
AcDbLine
 10
-7.333946609406725
 20
0.1660533905932695
 30
0.0
 11
-7.366106195156729
 21
0.1955222215594858
 31
0.0
  0
LINE
  5
AB
330
1F
100
AcDbEntity
  8
0
100
AcDbLine
 10
-7.1875
 20
-0.4218750000000036
 30
0.0
 11
-7.187500000000001
 21
-0.1875000000000036
 31
0.0
  0
LINE
  5
AC
330
1F
100
AcDbEntity
  8
0
100
AcDbLine
 10
-7.187500000000001
 20
-0.9531250000000036
 30
0.0
 11
-7.953124999999998
 21
-0.9531250000000036
 31
0.0
  0
LINE
  5
AD
330
1F
100
AcDbEntity
  8
0
100
AcDbLine
 10
-7.277923977855504
 20
0.0992882181755199
 30
0.0
 11
-7.30447777844051
 21
0.1338938048432663
 31
0.0
  0
LINE
  5
AE
330
1F
100
AcDbEntity
  8
0
100
AcDbLine
 10
-7.195096123493897
 20
-0.1006759111665385
 30
0.0
 11
-7.204537086855467
 21
-0.0580904774487436
 31
0.0
  0
LINE
  5
AF
330
1F
100
AcDbEntity
  8
0
100
AcDbLine
 10
-7.437500000000002
 20
-2.370512701892222
 30
0.0
 11
-7.400711781824477
 21
-2.347076022144499
 31
0.0
  0
LINE
  5
B0
330
1F
100
AcDbEntity
  8
0
100
AcDbLine
 10
-7.366106195156731
 20
-2.320522221559493
 30
0.0
 11
-7.333946609406727
 21
-2.291053390593278
 31
0.0
  0
LINE
  5
B1
330
1F
100
AcDbEntity
  8
0
100
AcDbLine
 10
-7.558090477448741
 20
-2.420462913144537
 30
0.0
 11
-7.516489928337166
 21
-2.407346310392958
 31
0.0
  0
LINE
  5
B2
330
1F
100
AcDbEntity
  8
0
100
AcDbLine
 10
-7.18940265095413
 20
-1.981077871373833
 30
0.0
 11
-7.187500000000003
 21
-1.937500000000004
 31
0.0
  0
LINE
  5
B3
330
1F
100
AcDbEntity
  8
0
100
AcDbLine
 10
-7.217653689607046
 20
-2.108510071662838
 30
0.0
 11
-7.204537086855469
 21
-2.066909522551263
 31
0.0
  0
LINE
  5
B4
330
1F
100
AcDbEntity
  8
0
100
AcDbLine
 10
-7.476190869129652
 20
-2.390653893518328
 30
0.0
 11
-7.437500000000002
 21
-2.370512701892222
 31
0.0
  0
LINE
  5
B5
330
1F
100
AcDbEntity
  8
0
100
AcDbLine
 10
-7.600675911166536
 20
-2.429903876506108
 30
0.0
 11
-7.558090477448741
 21
-2.420462913144537
 31
0.0
  0
LINE
  5
B6
330
1F
100
AcDbEntity
  8
0
100
AcDbLine
 10
-7.687500000000002
 20
-2.437500000000004
 30
0.0
 11
-7.643922128626174
 21
-2.435597349045876
 31
0.0
  0
LINE
  5
B7
330
1F
100
AcDbEntity
  8
0
100
AcDbLine
 10
-7.400711781824477
 20
-2.347076022144499
 30
0.0
 11
-7.366106195156731
 21
-2.320522221559493
 31
0.0
  0
LINE
  5
B8
330
1F
100
AcDbEntity
  8
0
100
AcDbLine
 10
-7.277923977855505
 20
-2.224288218175527
 30
0.0
 11
-7.254487298107781
 21
-2.187500000000004
 31
0.0
  0
LINE
  5
B9
330
1F
100
AcDbEntity
  8
0
100
AcDbLine
 10
-7.204537086855469
 20
-2.066909522551263
 30
0.0
 11
-7.195096123493899
 21
-2.024324088833469
 31
0.0
  0
LINE
  5
BA
330
1F
100
AcDbEntity
  8
0
100
AcDbLine
 10
-7.643922128626174
 20
-2.435597349045876
 30
0.0
 11
-7.600675911166536
 21
-2.429903876506108
 31
0.0
  0
LINE
  5
BB
330
1F
100
AcDbEntity
  8
0
100
AcDbLine
 10
-7.516489928337166
 20
-2.407346310392958
 30
0.0
 11
-7.476190869129652
 21
-2.390653893518328
 31
0.0
  0
LINE
  5
BC
330
1F
100
AcDbEntity
  8
0
100
AcDbLine
 10
-7.187500000000003
 20
-1.937500000000004
 30
0.0
 11
-7.187500000000001
 21
-0.9531250000000036
 31
0.0
  0
LINE
  5
BD
330
1F
100
AcDbEntity
  8
0
100
AcDbLine
 10
-7.254487298107781
 20
-2.187500000000004
 30
0.0
 11
-7.234346106481676
 21
-2.148809130870353
 31
0.0
  0
LINE
  5
BE
330
1F
100
AcDbEntity
  8
0
100
AcDbLine
 10
-7.234346106481676
 20
-2.148809130870353
 30
0.0
 11
-7.217653689607046
 21
-2.108510071662838
 31
0.0
  0
LINE
  5
BF
330
1F
100
AcDbEntity
  8
0
100
AcDbLine
 10
-7.195096123493899
 20
-2.024324088833469
 30
0.0
 11
-7.18940265095413
 21
-1.981077871373833
 31
0.0
  0
LINE
  5
C0
330
1F
100
AcDbEntity
  8
0
100
AcDbLine
 10
-7.304477778440511
 20
-2.258893804843273
 30
0.0
 11
-7.277923977855505
 21
-2.224288218175527
 31
0.0
  0
LINE
  5
C1
330
1F
100
AcDbEntity
  8
0
100
AcDbLine
 10
-7.333946609406727
 20
-2.291053390593278
 30
0.0
 11
-7.304477778440511
 21
-2.258893804843273
 31
0.0
  0
LINE
  5
C2
330
1F
100
AcDbEntity
  8
0
100
AcDbLine
 10
-9.171875
 20
-1.453125000000004
 30
0.0
 11
-11.703125
 21
-1.453125000000002
 31
0.0
  0
LINE
  5
C3
330
1F
100
AcDbEntity
  8
0
100
AcDbLine
 10
-13.26648992833717
 20
-9.657346310392956
 30
0.0
 11
-13.22619086912965
 21
-9.640653893518328
 31
0.0
  0
LINE
  5
C4
330
1F
100
AcDbEntity
  8
0
100
AcDbLine
 10
-13.00448729810778
 20
-9.437500000000002
 30
0.0
 11
-12.98434610648168
 21
-9.398809130870351
 31
0.0
  0
LINE
  5
C5
330
1F
100
AcDbEntity
  8
0
100
AcDbLine
 10
-12.9450961234939
 20
-9.274324088833469
 30
0.0
 11
-12.93940265095413
 21
-9.231077871373833
 31
0.0
  0
LINE
  5
C6
330
1F
100
AcDbEntity
  8
0
100
AcDbLine
 10
-13.02792397785551
 20
-9.474288218175525
 30
0.0
 11
-13.00448729810778
 21
-9.437500000000002
 31
0.0
  0
LINE
  5
C7
330
1F
100
AcDbEntity
  8
0
100
AcDbLine
 10
-12.96765368960705
 20
-9.358510071662835
 30
0.0
 11
-12.95453708685547
 21
-9.316909522551262
 31
0.0
  0
LINE
  5
C8
330
1F
100
AcDbEntity
  8
0
100
AcDbLine
 10
-12.98434610648168
 20
-9.398809130870351
 30
0.0
 11
-12.96765368960705
 21
-9.358510071662835
 31
0.0
  0
LINE
  5
C9
330
1F
100
AcDbEntity
  8
0
100
AcDbLine
 10
-13.1875
 20
-9.620512701892222
 30
0.0
 11
-13.15071178182448
 21
-9.597076022144499
 31
0.0
  0
LINE
  5
CA
330
1F
100
AcDbEntity
  8
0
100
AcDbLine
 10
-12.93940265095413
 20
-9.231077871373833
 30
0.0
 11
-12.9375
 21
-9.187500000000004
 31
0.0
  0
LINE
  5
CB
330
1F
100
AcDbEntity
  8
0
100
AcDbLine
 10
-13.05447777844051
 20
-9.508893804843272
 30
0.0
 11
-13.02792397785551
 21
-9.474288218175525
 31
0.0
  0
LINE
  5
CC
330
1F
100
AcDbEntity
  8
0
100
AcDbLine
 10
-13.15071178182448
 20
-9.597076022144499
 30
0.0
 11
-13.11610619515674
 21
-9.570522221559491
 31
0.0
  0
LINE
  5
CD
330
1F
100
AcDbEntity
  8
0
100
AcDbLine
 10
-13.22619086912965
 20
-9.640653893518328
 30
0.0
 11
-13.1875
 21
-9.620512701892222
 31
0.0
  0
LINE
  5
CE
330
1F
100
AcDbEntity
  8
0
100
AcDbLine
 10
-13.30809047744874
 20
-9.670462913144537
 30
0.0
 11
-13.26648992833717
 21
-9.657346310392956
 31
0.0
  0
LINE
  5
CF
330
1F
100
AcDbEntity
  8
0
100
AcDbLine
 10
-13.35067591116653
 20
-9.679903876506106
 30
0.0
 11
-13.30809047744874
 21
-9.670462913144537
 31
0.0
  0
LINE
  5
D0
330
1F
100
AcDbEntity
  8
0
100
AcDbLine
 10
-13.11610619515674
 20
-9.570522221559491
 30
0.0
 11
-13.08394660940673
 21
-9.541053390593277
 31
0.0
  0
LINE
  5
D1
330
1F
100
AcDbEntity
  8
0
100
AcDbLine
 10
-13.08394660940673
 20
-9.541053390593277
 30
0.0
 11
-13.05447777844051
 21
-9.508893804843272
 31
0.0
  0
LINE
  5
D2
330
1F
100
AcDbEntity
  8
0
100
AcDbLine
 10
-13.39392212862617
 20
-9.685597349045874
 30
0.0
 11
-13.35067591116653
 21
-9.679903876506106
 31
0.0
  0
LINE
  5
D3
330
1F
100
AcDbEntity
  8
0
100
AcDbLine
 10
-12.9375
 20
-9.187500000000004
 30
0.0
 11
-12.9375
 21
-4.4375
 31
0.0
  0
LINE
  5
D4
330
1F
100
AcDbEntity
  8
0
100
AcDbLine
 10
-13.4375
 20
-9.687500000000002
 30
0.0
 11
-13.39392212862617
 21
-9.685597349045874
 31
0.0
  0
LINE
  5
D5
330
1F
100
AcDbEntity
  8
0
100
AcDbLine
 10
-12.95453708685547
 20
-9.316909522551262
 30
0.0
 11
-12.9450961234939
 21
-9.274324088833469
 31
0.0
  0
LINE
  5
D6
330
1F
100
AcDbEntity
  8
0
100
AcDbLine
 10
-13.9375
 20
-1.687500000000002
 30
0.0
 11
-13.90514761936219
 21
-1.691759271713869
 31
0.0
  0
LINE
  5
D7
330
1F
100
AcDbEntity
  8
0
100
AcDbLine
 10
-13.90514761936219
 20
-1.691759271713869
 30
0.0
 11
-13.875
 21
-1.704246824526948
 31
0.0
  0
LINE
  5
D8
330
1F
100
AcDbEntity
  8
0
100
AcDbLine
 10
-13.875
 20
-1.704246824526948
 30
0.0
 11
-13.84911165235168
 21
-1.724111652351683
 31
0.0
  0
LINE
  5
D9
330
1F
100
AcDbEntity
  8
0
100
AcDbLine
 10
-13.84911165235168
 20
-1.724111652351683
 30
0.0
 11
-13.82924682452695
 21
-1.750000000000002
 31
0.0
  0
LINE
  5
DA
330
1F
100
AcDbEntity
  8
0
100
AcDbLine
 10
-13.82924682452695
 20
-1.750000000000002
 30
0.0
 11
-13.81675927171387
 21
-1.780147619362186
 31
0.0
  0
LINE
  5
DB
330
1F
100
AcDbEntity
  8
0
100
AcDbLine
 10
-13.81675927171387
 20
-1.780147619362186
 30
0.0
 11
-13.8125
 21
-1.812500000000002
 31
0.0
  0
LINE
  5
DC
330
1F
100
AcDbEntity
  8
0
100
AcDbLine
 10
-13.8125
 20
-1.812500000000002
 30
0.0
 11
-13.81675927171387
 21
-1.844852380637816
 31
0.0
  0
LINE
  5
DD
330
1F
100
AcDbEntity
  8
0
100
AcDbLine
 10
-13.81675927171387
 20
-1.844852380637816
 30
0.0
 11
-13.82924682452695
 21
-1.875000000000002
 31
0.0
  0
LINE
  5
DE
330
1F
100
AcDbEntity
  8
0
100
AcDbLine
 10
-13.82924682452695
 20
-1.875000000000002
 30
0.0
 11
-13.84911165235168
 21
-1.900888347648319
 31
0.0
  0
LINE
  5
DF
330
1F
100
AcDbEntity
  8
0
100
AcDbLine
 10
-13.84911165235168
 20
-1.900888347648319
 30
0.0
 11
-13.875
 21
-1.920753175473056
 31
0.0
  0
LINE
  5
E0
330
1F
100
AcDbEntity
  8
0
100
AcDbLine
 10
-13.875
 20
-1.920753175473056
 30
0.0
 11
-13.90514761936219
 21
-1.933240728286135
 31
0.0
  0
LINE
  5
E1
330
1F
100
AcDbEntity
  8
0
100
AcDbLine
 10
-13.90514761936219
 20
-1.933240728286135
 30
0.0
 11
-13.9375
 21
-1.937500000000002
 31
0.0
  0
LINE
  5
E2
330
1F
100
AcDbEntity
  8
0
100
AcDbLine
 10
-13.9375
 20
-1.687500000000002
 30
0.0
 11
-13.9375
 21
-0.9531250000000018
 31
0.0
  0
LINE
  5
E3
330
1F
100
AcDbEntity
  8
0
100
AcDbLine
 10
-13.9375
 20
-8.687500000000002
 30
0.0
 11
-13.90514761936219
 21
-8.691759271713869
 31
0.0
  0
LINE
  5
E4
330
1F
100
AcDbEntity
  8
0
100
AcDbLine
 10
-13.90514761936219
 20
-8.691759271713869
 30
0.0
 11
-13.875
 21
-8.704246824526948
 31
0.0
  0
LINE
  5
E5
330
1F
100
AcDbEntity
  8
0
100
AcDbLine
 10
-13.875
 20
-8.704246824526948
 30
0.0
 11
-13.84911165235168
 21
-8.724111652351684
 31
0.0
  0
LINE
  5
E6
330
1F
100
AcDbEntity
  8
0
100
AcDbLine
 10
-13.84911165235168
 20
-8.724111652351684
 30
0.0
 11
-13.82924682452695
 21
-8.750000000000002
 31
0.0
  0
LINE
  5
E7
330
1F
100
AcDbEntity
  8
0
100
AcDbLine
 10
-13.82924682452695
 20
-8.750000000000002
 30
0.0
 11
-13.81675927171387
 21
-8.780147619362188
 31
0.0
  0
LINE
  5
E8
330
1F
100
AcDbEntity
  8
0
100
AcDbLine
 10
-13.81675927171387
 20
-8.780147619362188
 30
0.0
 11
-13.8125
 21
-8.812500000000002
 31
0.0
  0
LINE
  5
E9
330
1F
100
AcDbEntity
  8
0
100
AcDbLine
 10
-13.8125
 20
-8.812500000000002
 30
0.0
 11
-13.81675927171387
 21
-8.844852380637818
 31
0.0
  0
LINE
  5
EA
330
1F
100
AcDbEntity
  8
0
100
AcDbLine
 10
-13.81675927171387
 20
-8.844852380637818
 30
0.0
 11
-13.82924682452695
 21
-8.875000000000002
 31
0.0
  0
LINE
  5
EB
330
1F
100
AcDbEntity
  8
0
100
AcDbLine
 10
-13.82924682452695
 20
-8.875000000000002
 30
0.0
 11
-13.84911165235168
 21
-8.900888347648321
 31
0.0
  0
LINE
  5
EC
330
1F
100
AcDbEntity
  8
0
100
AcDbLine
 10
-13.84911165235168
 20
-8.900888347648321
 30
0.0
 11
-13.875
 21
-8.920753175473058
 31
0.0
  0
LINE
  5
ED
330
1F
100
AcDbEntity
  8
0
100
AcDbLine
 10
-13.875
 20
-8.920753175473058
 30
0.0
 11
-13.90514761936219
 21
-8.933240728286135
 31
0.0
  0
LINE
  5
EE
330
1F
100
AcDbEntity
  8
0
100
AcDbLine
 10
-13.90514761936219
 20
-8.933240728286135
 30
0.0
 11
-13.9375
 21
-8.937500000000002
 31
0.0
  0
LINE
  5
EF
330
1F
100
AcDbEntity
  8
0
100
AcDbLine
 10
-12.67187499999999
 20
-0.9531250000000018
 30
0.0
 11
-12.67613427171386
 21
-0.9854773806378159
 31
0.0
  0
LINE
  5
F0
330
1F
100
AcDbEntity
  8
0
100
AcDbLine
 10
-12.67613427171386
 20
-0.9854773806378159
 30
0.0
 11
-12.68862182452694
 21
-1.015625000000002
 31
0.0
  0
LINE
  5
F1
330
1F
100
AcDbEntity
  8
0
100
AcDbLine
 10
-12.68862182452694
 20
-1.015625000000002
 30
0.0
 11
-12.70848665235168
 21
-1.041513347648319
 31
0.0
  0
LINE
  5
F2
330
1F
100
AcDbEntity
  8
0
100
AcDbLine
 10
-12.70848665235168
 20
-1.041513347648319
 30
0.0
 11
-12.734375
 21
-1.061378175473056
 31
0.0
  0
LINE
  5
F3
330
1F
100
AcDbEntity
  8
0
100
AcDbLine
 10
-12.734375
 20
-1.061378175473056
 30
0.0
 11
-12.76452261936218
 21
-1.073865728286135
 31
0.0
  0
LINE
  5
F4
330
1F
100
AcDbEntity
  8
0
100
AcDbLine
 10
-12.76452261936218
 20
-1.073865728286135
 30
0.0
 11
-12.796875
 21
-1.078125000000002
 31
0.0
  0
LINE
  5
F5
330
1F
100
AcDbEntity
  8
0
100
AcDbLine
 10
-12.796875
 20
-1.078125000000002
 30
0.0
 11
-12.82922738063781
 21
-1.073865728286135
 31
0.0
  0
LINE
  5
F6
330
1F
100
AcDbEntity
  8
0
100
AcDbLine
 10
-12.82922738063781
 20
-1.073865728286135
 30
0.0
 11
-12.859375
 21
-1.061378175473056
 31
0.0
  0
LINE
  5
F7
330
1F
100
AcDbEntity
  8
0
100
AcDbLine
 10
-12.859375
 20
-1.061378175473056
 30
0.0
 11
-12.88526334764832
 21
-1.041513347648319
 31
0.0
  0
LINE
  5
F8
330
1F
100
AcDbEntity
  8
0
100
AcDbLine
 10
-12.88526334764832
 20
-1.041513347648319
 30
0.0
 11
-12.90512817547305
 21
-1.015625000000002
 31
0.0
  0
LINE
  5
F9
330
1F
100
AcDbEntity
  8
0
100
AcDbLine
 10
-12.90512817547305
 20
-1.015625000000002
 30
0.0
 11
-12.91761572828613
 21
-0.9854773806378159
 31
0.0
  0
LINE
  5
FA
330
1F
100
AcDbEntity
  8
0
100
AcDbLine
 10
-12.91761572828613
 20
-0.9854773806378159
 30
0.0
 11
-12.921875
 21
-0.9531250000000018
 31
0.0
  0
LINE
  5
FB
330
1F
100
AcDbEntity
  8
0
100
AcDbLine
 10
-12.921875
 20
-0.4218750000000018
 30
0.0
 11
-12.91761572828613
 21
-0.3895226193621877
 31
0.0
  0
LINE
  5
FC
330
1F
100
AcDbEntity
  8
0
100
AcDbLine
 10
-12.91761572828613
 20
-0.3895226193621877
 30
0.0
 11
-12.90512817547305
 21
-0.3593750000000018
 31
0.0
  0
LINE
  5
FD
330
1F
100
AcDbEntity
  8
0
100
AcDbLine
 10
-12.90512817547305
 20
-0.3593750000000018
 30
0.0
 11
-12.88526334764831
 21
-0.3334866523516826
 31
0.0
  0
LINE
  5
FE
330
1F
100
AcDbEntity
  8
0
100
AcDbLine
 10
-12.88526334764831
 20
-0.3334866523516826
 30
0.0
 11
-12.859375
 21
-0.3136218245269458
 31
0.0
  0
LINE
  5
FF
330
1F
100
AcDbEntity
  8
0
100
AcDbLine
 10
-12.859375
 20
-0.3136218245269458
 30
0.0
 11
-12.82922738063781
 21
-0.3011342717138685
 31
0.0
  0
LINE
  5
100
330
1F
100
AcDbEntity
  8
0
100
AcDbLine
 10
-12.82922738063781
 20
-0.3011342717138685
 30
0.0
 11
-12.796875
 21
-0.2968750000000018
 31
0.0
  0
LINE
  5
101
330
1F
100
AcDbEntity
  8
0
100
AcDbLine
 10
-12.796875
 20
-0.2968750000000018
 30
0.0
 11
-12.76452261936218
 21
-0.3011342717138685
 31
0.0
  0
LINE
  5
102
330
1F
100
AcDbEntity
  8
0
100
AcDbLine
 10
-12.76452261936218
 20
-0.3011342717138685
 30
0.0
 11
-12.734375
 21
-0.3136218245269458
 31
0.0
  0
LINE
  5
103
330
1F
100
AcDbEntity
  8
0
100
AcDbLine
 10
-12.734375
 20
-0.3136218245269458
 30
0.0
 11
-12.70848665235168
 21
-0.3334866523516826
 31
0.0
  0
LINE
  5
104
330
1F
100
AcDbEntity
  8
0
100
AcDbLine
 10
-12.70848665235168
 20
-0.3334866523516826
 30
0.0
 11
-12.68862182452694
 21
-0.3593750000000018
 31
0.0
  0
LINE
  5
105
330
1F
100
AcDbEntity
  8
0
100
AcDbLine
 10
-12.68862182452694
 20
-0.3593750000000018
 30
0.0
 11
-12.67613427171386
 21
-0.3895226193621877
 31
0.0
  0
LINE
  5
106
330
1F
100
AcDbEntity
  8
0
100
AcDbLine
 10
-12.67613427171386
 20
-0.3895226193621877
 30
0.0
 11
-12.671875
 21
-0.4218750000000018
 31
0.0
  0
LINE
  5
107
330
1F
100
AcDbEntity
  8
0
100
AcDbLine
 10
-12.921875
 20
-0.4218750000000018
 30
0.0
 11
-13.6875
 21
-0.4218750000000018
 31
0.0
  0
LINE
  5
108
330
1F
100
AcDbEntity
  8
0
100
AcDbLine
 10
-8.203124999999998
 20
-0.4218750000000036
 30
0.0
 11
-8.198865728286131
 21
-0.3895226193621895
 31
0.0
  0
LINE
  5
109
330
1F
100
AcDbEntity
  8
0
100
AcDbLine
 10
-8.198865728286131
 20
-0.3895226193621895
 30
0.0
 11
-8.186378175473052
 21
-0.3593750000000036
 31
0.0
  0
LINE
  5
10A
330
1F
100
AcDbEntity
  8
0
100
AcDbLine
 10
-8.186378175473052
 20
-0.3593750000000036
 30
0.0
 11
-8.166513347648317
 21
-0.3334866523516844
 31
0.0
  0
LINE
  5
10B
330
1F
100
AcDbEntity
  8
0
100
AcDbLine
 10
-8.166513347648317
 20
-0.3334866523516844
 30
0.0
 11
-8.140625
 21
-0.3136218245269475
 31
0.0
  0
LINE
  5
10C
330
1F
100
AcDbEntity
  8
0
100
AcDbLine
 10
-8.140625
 20
-0.3136218245269475
 30
0.0
 11
-8.110477380637814
 21
-0.3011342717138703
 31
0.0
  0
LINE
  5
10D
330
1F
100
AcDbEntity
  8
0
100
AcDbLine
 10
-8.110477380637814
 20
-0.3011342717138703
 30
0.0
 11
-8.078125
 21
-0.2968750000000036
 31
0.0
  0
LINE
  5
10E
330
1F
100
AcDbEntity
  8
0
100
AcDbLine
 10
-8.078125
 20
-0.2968750000000036
 30
0.0
 11
-8.045772619362184
 21
-0.3011342717138703
 31
0.0
  0
LINE
  5
10F
330
1F
100
AcDbEntity
  8
0
100
AcDbLine
 10
-8.045772619362184
 20
-0.3011342717138703
 30
0.0
 11
-8.015625
 21
-0.3136218245269475
 31
0.0
  0
LINE
  5
110
330
1F
100
AcDbEntity
  8
0
100
AcDbLine
 10
-8.015625
 20
-0.3136218245269475
 30
0.0
 11
-7.98973665235168
 21
-0.3334866523516844
 31
0.0
  0
LINE
  5
111
330
1F
100
AcDbEntity
  8
0
100
AcDbLine
 10
-7.98973665235168
 20
-0.3334866523516844
 30
0.0
 11
-7.969871824526944
 21
-0.3593750000000036
 31
0.0
  0
LINE
  5
112
330
1F
100
AcDbEntity
  8
0
100
AcDbLine
 10
-7.969871824526944
 20
-0.3593750000000036
 30
0.0
 11
-7.957384271713865
 21
-0.3895226193621895
 31
0.0
  0
LINE
  5
113
330
1F
100
AcDbEntity
  8
0
100
AcDbLine
 10
-7.957384271713865
 20
-0.3895226193621895
 30
0.0
 11
-7.953124999999998
 21
-0.4218750000000036
 31
0.0
  0
LINE
  5
114
330
1F
100
AcDbEntity
  8
0
100
AcDbLine
 10
-7.953124999999998
 20
-0.4218750000000036
 30
0.0
 11
-7.1875
 21
-0.4218750000000036
 31
0.0
  0
LINE
  5
115
330
1F
100
AcDbEntity
  8
0
100
AcDbLine
 10
-7.953124999999998
 20
-0.9531250000000036
 30
0.0
 11
-7.957384271713864
 21
-0.9854773806378176
 31
0.0
  0
LINE
  5
116
330
1F
100
AcDbEntity
  8
0
100
AcDbLine
 10
-7.957384271713864
 20
-0.9854773806378176
 30
0.0
 11
-7.969871824526943
 21
-1.015625000000004
 31
0.0
  0
LINE
  5
117
330
1F
100
AcDbEntity
  8
0
100
AcDbLine
 10
-7.969871824526943
 20
-1.015625000000004
 30
0.0
 11
-7.98973665235168
 21
-1.041513347648323
 31
0.0
  0
LINE
  5
118
330
1F
100
AcDbEntity
  8
0
100
AcDbLine
 10
-7.98973665235168
 20
-1.041513347648323
 30
0.0
 11
-8.015624999999998
 21
-1.06137817547306
 31
0.0
  0
LINE
  5
119
330
1F
100
AcDbEntity
  8
0
100
AcDbLine
 10
-8.015624999999998
 20
-1.06137817547306
 30
0.0
 11
-8.045772619362182
 21
-1.073865728286137
 31
0.0
  0
LINE
  5
11A
330
1F
100
AcDbEntity
  8
0
100
AcDbLine
 10
-8.045772619362182
 20
-1.073865728286137
 30
0.0
 11
-8.078124999999998
 21
-1.078125000000004
 31
0.0
  0
LINE
  5
11B
330
1F
100
AcDbEntity
  8
0
100
AcDbLine
 10
-8.078124999999998
 20
-1.078125000000004
 30
0.0
 11
-8.110477380637814
 21
-1.073865728286137
 31
0.0
  0
LINE
  5
11C
330
1F
100
AcDbEntity
  8
0
100
AcDbLine
 10
-8.110477380637814
 20
-1.073865728286137
 30
0.0
 11
-8.140624999999998
 21
-1.06137817547306
 31
0.0
  0
LINE
  5
11D
330
1F
100
AcDbEntity
  8
0
100
AcDbLine
 10
-8.140624999999998
 20
-1.06137817547306
 30
0.0
 11
-8.166513347648317
 21
-1.041513347648323
 31
0.0
  0
LINE
  5
11E
330
1F
100
AcDbEntity
  8
0
100
AcDbLine
 10
-8.166513347648317
 20
-1.041513347648323
 30
0.0
 11
-8.186378175473054
 21
-1.015625000000004
 31
0.0
  0
LINE
  5
11F
330
1F
100
AcDbEntity
  8
0
100
AcDbLine
 10
-8.186378175473054
 20
-1.015625000000004
 30
0.0
 11
-8.198865728286133
 21
-0.9854773806378194
 31
0.0
  0
LINE
  5
120
330
1F
100
AcDbEntity
  8
0
100
AcDbLine
 10
-8.198865728286133
 20
-0.9854773806378194
 30
0.0
 11
-8.203124999999998
 21
-0.9531250000000036
 31
0.0
  0
LINE
  5
121
330
1F
100
AcDbEntity
  8
0
100
AcDbLine
 10
-9.171875000000002
 20
-0.9218750000000036
 30
0.0
 11
-11.703125
 21
-0.9218750000000018
 31
0.0
  0
LINE
  5
122
330
1F
100
AcDbEntity
  8
0
100
AcDbLine
 10
-9.171875000000002
 20
-0.9218750000000036
 30
0.0
 11
-9.103126191144645
 21
-0.93092595239197
 31
0.0
  0
LINE
  5
123
330
1F
100
AcDbEntity
  8
0
100
AcDbLine
 10
-9.103126191144645
 20
-0.93092595239197
 30
0.0
 11
-9.039062500000002
 21
-0.9574620021197617
 31
0.0
  0
LINE
  5
124
330
1F
100
AcDbEntity
  8
0
100
AcDbLine
 10
-9.039062500000002
 20
-0.9574620021197617
 30
0.0
 11
-8.984049761247325
 21
-0.9996747612473271
 31
0.0
  0
LINE
  5
125
330
1F
100
AcDbEntity
  8
0
100
AcDbLine
 10
-8.984049761247325
 20
-0.9996747612473271
 30
0.0
 11
-8.94183700211976
 21
-1.054687500000004
 31
0.0
  0
LINE
  5
126
330
1F
100
AcDbEntity
  8
0
100
AcDbLine
 10
-8.94183700211976
 20
-1.054687500000004
 30
0.0
 11
-8.915300952391966
 21
-1.118751191144646
 31
0.0
  0
LINE
  5
127
330
1F
100
AcDbEntity
  8
0
100
AcDbLine
 10
-8.915300952391966
 20
-1.118751191144646
 30
0.0
 11
-8.90625
 21
-1.187500000000004
 31
0.0
  0
LINE
  5
128
330
1F
100
AcDbEntity
  8
0
100
AcDbLine
 10
-8.90625
 20
-1.187500000000004
 30
0.0
 11
-8.915300952391966
 21
-1.256248808855361
 31
0.0
  0
LINE
  5
129
330
1F
100
AcDbEntity
  8
0
100
AcDbLine
 10
-8.915300952391966
 20
-1.256248808855361
 30
0.0
 11
-8.941837002119758
 21
-1.320312500000004
 31
0.0
  0
LINE
  5
12A
330
1F
100
AcDbEntity
  8
0
100
AcDbLine
 10
-8.941837002119758
 20
-1.320312500000004
 30
0.0
 11
-8.984049761247324
 21
-1.37532523875268
 31
0.0
  0
LINE
  5
12B
330
1F
100
AcDbEntity
  8
0
100
AcDbLine
 10
-8.984049761247324
 20
-1.37532523875268
 30
0.0
 11
-9.0390625
 21
-1.417537997880245
 31
0.0
  0
LINE
  5
12C
330
1F
100
AcDbEntity
  8
0
100
AcDbLine
 10
-9.0390625
 20
-1.417537997880245
 30
0.0
 11
-9.103126191144643
 21
-1.444074047608037
 31
0.0
  0
LINE
  5
12D
330
1F
100
AcDbEntity
  8
0
100
AcDbLine
 10
-9.103126191144643
 20
-1.444074047608037
 30
0.0
 11
-9.171875
 21
-1.453125000000004
 31
0.0
  0
LINE
  5
12E
330
1F
100
AcDbEntity
  8
0
100
AcDbLine
 10
-11.703125
 20
-1.453125000000002
 30
0.0
 11
-11.77187380885536
 21
-1.444074047608035
 31
0.0
  0
LINE
  5
12F
330
1F
100
AcDbEntity
  8
0
100
AcDbLine
 10
-11.77187380885536
 20
-1.444074047608035
 30
0.0
 11
-11.8359375
 21
-1.417537997880242
 31
0.0
  0
LINE
  5
130
330
1F
100
AcDbEntity
  8
0
100
AcDbLine
 10
-11.8359375
 20
-1.417537997880242
 30
0.0
 11
-11.89095023875268
 21
-1.375325238752676
 31
0.0
  0
LINE
  5
131
330
1F
100
AcDbEntity
  8
0
100
AcDbLine
 10
-11.89095023875268
 20
-1.375325238752676
 30
0.0
 11
-11.93316299788024
 21
-1.3203125
 31
0.0
  0
LINE
  5
132
330
1F
100
AcDbEntity
  8
0
100
AcDbLine
 10
-11.93316299788024
 20
-1.3203125
 30
0.0
 11
-11.95969904760803
 21
-1.256248808855357
 31
0.0
  0
LINE
  5
133
330
1F
100
AcDbEntity
  8
0
100
AcDbLine
 10
-11.95969904760803
 20
-1.256248808855357
 30
0.0
 11
-11.96875
 21
-1.1875
 31
0.0
  0
LINE
  5
134
330
1F
100
AcDbEntity
  8
0
100
AcDbLine
 10
-11.96875
 20
-1.1875
 30
0.0
 11
-11.95969904760803
 21
-1.118751191144643
 31
0.0
  0
LINE
  5
135
330
1F
100
AcDbEntity
  8
0
100
AcDbLine
 10
-11.95969904760803
 20
-1.118751191144643
 30
0.0
 11
-11.93316299788024
 21
-1.0546875
 31
0.0
  0
LINE
  5
136
330
1F
100
AcDbEntity
  8
0
100
AcDbLine
 10
-11.93316299788024
 20
-1.0546875
 30
0.0
 11
-11.89095023875267
 21
-0.9996747612473236
 31
0.0
  0
LINE
  5
137
330
1F
100
AcDbEntity
  8
0
100
AcDbLine
 10
-11.89095023875267
 20
-0.9996747612473236
 30
0.0
 11
-11.8359375
 21
-0.95746200211976
 31
0.0
  0
LINE
  5
138
330
1F
100
AcDbEntity
  8
0
100
AcDbLine
 10
-11.8359375
 20
-0.95746200211976
 30
0.0
 11
-11.77187380885535
 21
-0.9309259523919682
 31
0.0
  0
LINE
  5
139
330
1F
100
AcDbEntity
  8
0
100
AcDbLine
 10
-11.77187380885535
 20
-0.9309259523919682
 30
0.0
 11
-11.703125
 21
-0.9218750000000018
 31
0.0
  0
LINE
  5
13A
330
1F
100
AcDbEntity
  8
0
100
AcDbLine
 10
4.937500000000009
 20
9.687500000000002
 30
0.0
 11
4.937500000000009
 21
1.437500000000002
 31
0.0
  0
LINE
  5
13B
330
1F
100
AcDbEntity
  8
0
100
AcDbLine
 10
-6.562499999999988
 20
9.687500000000002
 30
0.0
 11
4.937500000000009
 21
9.687500000000002
 31
0.0
  0
LINE
  5
13C
330
1F
100
AcDbEntity
  8
0
100
AcDbLine
 10
-5.546874999999988
 20
1.921875000000002
 30
0.0
 11
-5.82812499999999
 21
1.921875000000002
 31
0.0
  0
LINE
  5
13D
330
1F
100
AcDbEntity
  8
0
100
AcDbLine
 10
-6.07812499999999
 20
1.921875000000002
 30
0.0
 11
-6.07812499999999
 21
8.703125000000002
 31
0.0
  0
LINE
  5
13E
330
1F
100
AcDbEntity
  8
0
100
AcDbLine
 10
3.921875000000009
 20
8.703125000000002
 30
0.0
 11
4.203125000000011
 21
8.703125000000002
 31
0.0
  0
LINE
  5
13F
330
1F
100
AcDbEntity
  8
0
100
AcDbLine
 10
4.453125000000011
 20
8.703125000000002
 30
0.0
 11
4.453125000000011
 21
1.921875000000002
 31
0.0
  0
LINE
  5
140
330
1F
100
AcDbEntity
  8
0
100
AcDbLine
 10
-6.562499999999988
 20
1.437500000000002
 30
0.0
 11
-6.558222430686892
 21
1.372236903889975
 31
0.0
  0
LINE
  5
141
330
1F
100
AcDbEntity
  8
0
100
AcDbLine
 10
-6.558222430686892
 20
1.372236903889975
 30
0.0
 11
-6.545462913144521
 21
1.308090477448742
 31
0.0
  0
LINE
  5
142
330
1F
100
AcDbEntity
  8
0
100
AcDbLine
 10
-6.545462913144521
 20
1.308090477448742
 30
0.0
 11
-6.524439766255631
 21
1.246158283817456
 31
0.0
  0
LINE
  5
143
330
1F
100
AcDbEntity
  8
0
100
AcDbLine
 10
-6.524439766255631
 20
1.246158283817456
 30
0.0
 11
-6.495512701892206
 21
1.187500000000002
 31
0.0
  0
LINE
  5
144
330
1F
100
AcDbEntity
  8
0
100
AcDbLine
 10
-6.495512701892206
 20
1.187500000000002
 30
0.0
 11
-6.459176670145605
 21
1.13311928549564
 31
0.0
  0
LINE
  5
145
330
1F
100
AcDbEntity
  8
0
100
AcDbLine
 10
-6.459176670145605
 20
1.13311928549564
 30
0.0
 11
-6.416053390593262
 21
1.083946609406729
 31
0.0
  0
LINE
  5
146
330
1F
100
AcDbEntity
  8
0
100
AcDbLine
 10
-6.416053390593262
 20
1.083946609406729
 30
0.0
 11
-6.366880714504347
 21
1.040823329854385
 31
0.0
  0
LINE
  5
147
330
1F
100
AcDbEntity
  8
0
100
AcDbLine
 10
-6.366880714504347
 20
1.040823329854385
 30
0.0
 11
-6.312499999999988
 21
1.004487298107781
 31
0.0
  0
LINE
  5
148
330
1F
100
AcDbEntity
  8
0
100
AcDbLine
 10
-6.312499999999988
 20
1.004487298107781
 30
0.0
 11
-6.253841716182532
 21
0.9755602337443587
 31
0.0
  0
LINE
  5
149
330
1F
100
AcDbEntity
  8
0
100
AcDbLine
 10
-6.253841716182532
 20
0.9755602337443587
 30
0.0
 11
-6.191909522551247
 21
0.9545370868554688
 31
0.0
  0
LINE
  5
14A
330
1F
100
AcDbEntity
  8
0
100
AcDbLine
 10
-6.191909522551247
 20
0.9545370868554688
 30
0.0
 11
-6.127763096110013
 21
0.9417775693130981
 31
0.0
  0
LINE
  5
14B
330
1F
100
AcDbEntity
  8
0
100
AcDbLine
 10
-6.127763096110013
 20
0.9417775693130981
 30
0.0
 11
-6.062499999999987
 21
0.9375000000000018
 31
0.0
  0
LINE
  5
14C
330
1F
100
AcDbEntity
  8
0
100
AcDbLine
 10
-6.562499999999988
 20
1.437500000000002
 30
0.0
 11
-6.562499999999988
 21
9.687500000000002
 31
0.0
  0
LINE
  5
14D
330
1F
100
AcDbEntity
  8
0
100
AcDbLine
 10
4.937500000000009
 20
1.437500000000002
 30
0.0
 11
4.933222430686914
 21
1.372236903889975
 31
0.0
  0
LINE
  5
14E
330
1F
100
AcDbEntity
  8
0
100
AcDbLine
 10
4.933222430686914
 20
1.372236903889975
 30
0.0
 11
4.920462913144544
 21
1.308090477448742
 31
0.0
  0
LINE
  5
14F
330
1F
100
AcDbEntity
  8
0
100
AcDbLine
 10
4.920462913144544
 20
1.308090477448742
 30
0.0
 11
4.899439766255652
 21
1.246158283817456
 31
0.0
  0
LINE
  5
150
330
1F
100
AcDbEntity
  8
0
100
AcDbLine
 10
4.899439766255652
 20
1.246158283817456
 30
0.0
 11
4.870512701892228
 21
1.187500000000002
 31
0.0
  0
LINE
  5
151
330
1F
100
AcDbEntity
  8
0
100
AcDbLine
 10
4.870512701892228
 20
1.187500000000002
 30
0.0
 11
4.834176670145627
 21
1.13311928549564
 31
0.0
  0
LINE
  5
152
330
1F
100
AcDbEntity
  8
0
100
AcDbLine
 10
4.834176670145627
 20
1.13311928549564
 30
0.0
 11
4.791053390593284
 21
1.083946609406729
 31
0.0
  0
LINE
  5
153
330
1F
100
AcDbEntity
  8
0
100
AcDbLine
 10
4.791053390593284
 20
1.083946609406729
 30
0.0
 11
4.741880714504369
 21
1.040823329854385
 31
0.0
  0
LINE
  5
154
330
1F
100
AcDbEntity
  8
0
100
AcDbLine
 10
4.741880714504369
 20
1.040823329854385
 30
0.0
 11
4.687500000000009
 21
1.004487298107781
 31
0.0
  0
LINE
  5
155
330
1F
100
AcDbEntity
  8
0
100
AcDbLine
 10
4.687500000000009
 20
1.004487298107781
 30
0.0
 11
4.628841716182555
 21
0.9755602337443587
 31
0.0
  0
LINE
  5
156
330
1F
100
AcDbEntity
  8
0
100
AcDbLine
 10
4.628841716182555
 20
0.9755602337443587
 30
0.0
 11
4.566909522551269
 21
0.9545370868554688
 31
0.0
  0
LINE
  5
157
330
1F
100
AcDbEntity
  8
0
100
AcDbLine
 10
4.566909522551269
 20
0.9545370868554688
 30
0.0
 11
4.502763096110035
 21
0.9417775693130981
 31
0.0
  0
LINE
  5
158
330
1F
100
AcDbEntity
  8
0
100
AcDbLine
 10
4.502763096110035
 20
0.9417775693130981
 30
0.0
 11
4.437500000000009
 21
0.9375000000000018
 31
0.0
  0
LINE
  5
159
330
1F
100
AcDbEntity
  8
0
100
AcDbLine
 10
4.437500000000009
 20
0.9375000000000018
 30
0.0
 11
-6.062499999999987
 21
0.9375000000000018
 31
0.0
  0
LINE
  5
15A
330
1F
100
AcDbEntity
  8
0
100
AcDbLine
 10
-5.82812499999999
 20
1.921875000000002
 30
0.0
 11
-5.832384271713857
 21
1.889522619362187
 31
0.0
  0
LINE
  5
15B
330
1F
100
AcDbEntity
  8
0
100
AcDbLine
 10
-5.832384271713857
 20
1.889522619362187
 30
0.0
 11
-5.844871824526935
 21
1.859375000000002
 31
0.0
  0
LINE
  5
15C
330
1F
100
AcDbEntity
  8
0
100
AcDbLine
 10
-5.844871824526935
 20
1.859375000000002
 30
0.0
 11
-5.864736652351672
 21
1.833486652351684
 31
0.0
  0
LINE
  5
15D
330
1F
100
AcDbEntity
  8
0
100
AcDbLine
 10
-5.864736652351672
 20
1.833486652351684
 30
0.0
 11
-5.89062499999999
 21
1.813621824526947
 31
0.0
  0
LINE
  5
15E
330
1F
100
AcDbEntity
  8
0
100
AcDbLine
 10
-5.89062499999999
 20
1.813621824526947
 30
0.0
 11
-5.920772619362175
 21
1.801134271713869
 31
0.0
  0
LINE
  5
15F
330
1F
100
AcDbEntity
  8
0
100
AcDbLine
 10
-5.920772619362175
 20
1.801134271713869
 30
0.0
 11
-5.95312499999999
 21
1.796875000000002
 31
0.0
  0
LINE
  5
160
330
1F
100
AcDbEntity
  8
0
100
AcDbLine
 10
-5.95312499999999
 20
1.796875000000002
 30
0.0
 11
-5.985477380637805
 21
1.801134271713869
 31
0.0
  0
LINE
  5
161
330
1F
100
AcDbEntity
  8
0
100
AcDbLine
 10
-5.985477380637805
 20
1.801134271713869
 30
0.0
 11
-6.01562499999999
 21
1.813621824526947
 31
0.0
  0
LINE
  5
162
330
1F
100
AcDbEntity
  8
0
100
AcDbLine
 10
-6.01562499999999
 20
1.813621824526947
 30
0.0
 11
-6.041513347648308
 21
1.833486652351684
 31
0.0
  0
LINE
  5
163
330
1F
100
AcDbEntity
  8
0
100
AcDbLine
 10
-6.041513347648308
 20
1.833486652351684
 30
0.0
 11
-6.061378175473045
 21
1.859375000000002
 31
0.0
  0
LINE
  5
164
330
1F
100
AcDbEntity
  8
0
100
AcDbLine
 10
-6.061378175473045
 20
1.859375000000002
 30
0.0
 11
-6.073865728286123
 21
1.889522619362187
 31
0.0
  0
LINE
  5
165
330
1F
100
AcDbEntity
  8
0
100
AcDbLine
 10
-6.073865728286123
 20
1.889522619362187
 30
0.0
 11
-6.07812499999999
 21
1.921875000000002
 31
0.0
  0
LINE
  5
166
330
1F
100
AcDbEntity
  8
0
100
AcDbLine
 10
-5.546874999999988
 20
2.171875000000002
 30
0.0
 11
-5.514522619362173
 21
2.167615728286135
 31
0.0
  0
LINE
  5
167
330
1F
100
AcDbEntity
  8
0
100
AcDbLine
 10
-5.514522619362173
 20
2.167615728286135
 30
0.0
 11
-5.484374999999988
 21
2.155128175473057
 31
0.0
  0
LINE
  5
168
330
1F
100
AcDbEntity
  8
0
100
AcDbLine
 10
-5.484374999999988
 20
2.155128175473057
 30
0.0
 11
-5.45848665235167
 21
2.13526334764832
 31
0.0
  0
LINE
  5
169
330
1F
100
AcDbEntity
  8
0
100
AcDbLine
 10
-5.45848665235167
 20
2.13526334764832
 30
0.0
 11
-5.438621824526933
 21
2.109375000000002
 31
0.0
  0
LINE
  5
16A
330
1F
100
AcDbEntity
  8
0
100
AcDbLine
 10
-5.438621824526933
 20
2.109375000000002
 30
0.0
 11
-5.426134271713855
 21
2.079227380637817
 31
0.0
  0
LINE
  5
16B
330
1F
100
AcDbEntity
  8
0
100
AcDbLine
 10
-5.426134271713855
 20
2.079227380637817
 30
0.0
 11
-5.421874999999988
 21
2.046875000000002
 31
0.0
  0
LINE
  5
16C
330
1F
100
AcDbEntity
  8
0
100
AcDbLine
 10
-5.421874999999988
 20
2.046875000000002
 30
0.0
 11
-5.426134271713855
 21
2.014522619362187
 31
0.0
  0
LINE
  5
16D
330
1F
100
AcDbEntity
  8
0
100
AcDbLine
 10
-5.426134271713855
 20
2.014522619362187
 30
0.0
 11
-5.438621824526933
 21
1.984375000000002
 31
0.0
  0
LINE
  5
16E
330
1F
100
AcDbEntity
  8
0
100
AcDbLine
 10
-5.438621824526933
 20
1.984375000000002
 30
0.0
 11
-5.45848665235167
 21
1.958486652351684
 31
0.0
  0
LINE
  5
16F
330
1F
100
AcDbEntity
  8
0
100
AcDbLine
 10
-5.45848665235167
 20
1.958486652351684
 30
0.0
 11
-5.484374999999988
 21
1.938621824526947
 31
0.0
  0
LINE
  5
170
330
1F
100
AcDbEntity
  8
0
100
AcDbLine
 10
-5.484374999999988
 20
1.938621824526947
 30
0.0
 11
-5.514522619362173
 21
1.926134271713869
 31
0.0
  0
LINE
  5
171
330
1F
100
AcDbEntity
  8
0
100
AcDbLine
 10
-5.514522619362173
 20
1.926134271713869
 30
0.0
 11
-5.546874999999988
 21
1.921875000000002
 31
0.0
  0
LINE
  5
172
330
1F
100
AcDbEntity
  8
0
100
AcDbLine
 10
-6.07812499999999
 20
8.703125000000002
 30
0.0
 11
-6.073865728286123
 21
8.735477380637818
 31
0.0
  0
LINE
  5
173
330
1F
100
AcDbEntity
  8
0
100
AcDbLine
 10
-6.073865728286123
 20
8.735477380637818
 30
0.0
 11
-6.061378175473045
 21
8.765625000000002
 31
0.0
  0
LINE
  5
174
330
1F
100
AcDbEntity
  8
0
100
AcDbLine
 10
-6.061378175473045
 20
8.765625000000002
 30
0.0
 11
-6.041513347648308
 21
8.791513347648321
 31
0.0
  0
LINE
  5
175
330
1F
100
AcDbEntity
  8
0
100
AcDbLine
 10
-6.041513347648308
 20
8.791513347648321
 30
0.0
 11
-6.01562499999999
 21
8.811378175473056
 31
0.0
  0
LINE
  5
176
330
1F
100
AcDbEntity
  8
0
100
AcDbLine
 10
-6.01562499999999
 20
8.811378175473056
 30
0.0
 11
-5.985477380637805
 21
8.823865728286135
 31
0.0
  0
LINE
  5
177
330
1F
100
AcDbEntity
  8
0
100
AcDbLine
 10
-5.985477380637805
 20
8.823865728286135
 30
0.0
 11
-5.95312499999999
 21
8.828125000000002
 31
0.0
  0
LINE
  5
178
330
1F
100
AcDbEntity
  8
0
100
AcDbLine
 10
-5.95312499999999
 20
8.828125000000002
 30
0.0
 11
-5.920772619362175
 21
8.823865728286135
 31
0.0
  0
LINE
  5
179
330
1F
100
AcDbEntity
  8
0
100
AcDbLine
 10
-5.920772619362175
 20
8.823865728286135
 30
0.0
 11
-5.89062499999999
 21
8.811378175473056
 31
0.0
  0
LINE
  5
17A
330
1F
100
AcDbEntity
  8
0
100
AcDbLine
 10
-5.89062499999999
 20
8.811378175473056
 30
0.0
 11
-5.864736652351672
 21
8.791513347648321
 31
0.0
  0
LINE
  5
17B
330
1F
100
AcDbEntity
  8
0
100
AcDbLine
 10
-5.864736652351672
 20
8.791513347648321
 30
0.0
 11
-5.844871824526935
 21
8.765625000000002
 31
0.0
  0
LINE
  5
17C
330
1F
100
AcDbEntity
  8
0
100
AcDbLine
 10
-5.844871824526935
 20
8.765625000000002
 30
0.0
 11
-5.832384271713857
 21
8.735477380637818
 31
0.0
  0
LINE
  5
17D
330
1F
100
AcDbEntity
  8
0
100
AcDbLine
 10
-5.832384271713857
 20
8.735477380637818
 30
0.0
 11
-5.82812499999999
 21
8.703125000000002
 31
0.0
  0
LINE
  5
17E
330
1F
100
AcDbEntity
  8
0
100
AcDbLine
 10
-5.82812499999999
 20
8.703125000000002
 30
0.0
 11
-5.546874999999988
 21
8.703125000000002
 31
0.0
  0
LINE
  5
17F
330
1F
100
AcDbEntity
  8
0
100
AcDbLine
 10
-5.546874999999988
 20
8.703125000000002
 30
0.0
 11
-5.514522619362173
 21
8.698865728286135
 31
0.0
  0
LINE
  5
180
330
1F
100
AcDbEntity
  8
0
100
AcDbLine
 10
-5.514522619362173
 20
8.698865728286135
 30
0.0
 11
-5.484374999999988
 21
8.686378175473056
 31
0.0
  0
LINE
  5
181
330
1F
100
AcDbEntity
  8
0
100
AcDbLine
 10
-5.484374999999988
 20
8.686378175473056
 30
0.0
 11
-5.45848665235167
 21
8.666513347648321
 31
0.0
  0
LINE
  5
182
330
1F
100
AcDbEntity
  8
0
100
AcDbLine
 10
-5.45848665235167
 20
8.666513347648321
 30
0.0
 11
-5.438621824526933
 21
8.640625000000002
 31
0.0
  0
LINE
  5
183
330
1F
100
AcDbEntity
  8
0
100
AcDbLine
 10
-5.438621824526933
 20
8.640625000000002
 30
0.0
 11
-5.426134271713855
 21
8.610477380637818
 31
0.0
  0
LINE
  5
184
330
1F
100
AcDbEntity
  8
0
100
AcDbLine
 10
-5.426134271713855
 20
8.610477380637818
 30
0.0
 11
-5.421874999999988
 21
8.578125000000002
 31
0.0
  0
LINE
  5
185
330
1F
100
AcDbEntity
  8
0
100
AcDbLine
 10
-5.421874999999988
 20
8.578125000000002
 30
0.0
 11
-5.426134271713855
 21
8.545772619362186
 31
0.0
  0
LINE
  5
186
330
1F
100
AcDbEntity
  8
0
100
AcDbLine
 10
-5.426134271713855
 20
8.545772619362186
 30
0.0
 11
-5.438621824526933
 21
8.515625000000002
 31
0.0
  0
LINE
  5
187
330
1F
100
AcDbEntity
  8
0
100
AcDbLine
 10
-5.438621824526933
 20
8.515625000000002
 30
0.0
 11
-5.45848665235167
 21
8.489736652351683
 31
0.0
  0
LINE
  5
188
330
1F
100
AcDbEntity
  8
0
100
AcDbLine
 10
-5.45848665235167
 20
8.489736652351683
 30
0.0
 11
-5.484374999999988
 21
8.469871824526948
 31
0.0
  0
LINE
  5
189
330
1F
100
AcDbEntity
  8
0
100
AcDbLine
 10
-5.484374999999988
 20
8.469871824526948
 30
0.0
 11
-5.514522619362173
 21
8.457384271713869
 31
0.0
  0
LINE
  5
18A
330
1F
100
AcDbEntity
  8
0
100
AcDbLine
 10
-5.514522619362173
 20
8.457384271713869
 30
0.0
 11
-5.546874999999988
 21
8.453125000000002
 31
0.0
  0
LINE
  5
18B
330
1F
100
AcDbEntity
  8
0
100
AcDbLine
 10
-5.546874999999988
 20
8.453125000000002
 30
0.0
 11
-5.546874999999988
 21
2.171875000000002
 31
0.0
  0
LINE
  5
18C
330
1F
100
AcDbEntity
  8
0
100
AcDbLine
 10
4.203125000000011
 20
8.703125000000002
 30
0.0
 11
4.207384271713877
 21
8.735477380637818
 31
0.0
  0
LINE
  5
18D
330
1F
100
AcDbEntity
  8
0
100
AcDbLine
 10
4.207384271713877
 20
8.735477380637818
 30
0.0
 11
4.219871824526956
 21
8.765625000000002
 31
0.0
  0
LINE
  5
18E
330
1F
100
AcDbEntity
  8
0
100
AcDbLine
 10
4.219871824526956
 20
8.765625000000002
 30
0.0
 11
4.239736652351693
 21
8.791513347648321
 31
0.0
  0
LINE
  5
18F
330
1F
100
AcDbEntity
  8
0
100
AcDbLine
 10
4.239736652351693
 20
8.791513347648321
 30
0.0
 11
4.265625000000011
 21
8.811378175473056
 31
0.0
  0
LINE
  5
190
330
1F
100
AcDbEntity
  8
0
100
AcDbLine
 10
4.265625000000011
 20
8.811378175473056
 30
0.0
 11
4.295772619362195
 21
8.823865728286135
 31
0.0
  0
LINE
  5
191
330
1F
100
AcDbEntity
  8
0
100
AcDbLine
 10
4.295772619362195
 20
8.823865728286135
 30
0.0
 11
4.328125000000011
 21
8.828125000000002
 31
0.0
  0
LINE
  5
192
330
1F
100
AcDbEntity
  8
0
100
AcDbLine
 10
4.328125000000011
 20
8.828125000000002
 30
0.0
 11
4.360477380637827
 21
8.823865728286135
 31
0.0
  0
LINE
  5
193
330
1F
100
AcDbEntity
  8
0
100
AcDbLine
 10
4.360477380637827
 20
8.823865728286135
 30
0.0
 11
4.390625000000011
 21
8.811378175473056
 31
0.0
  0
LINE
  5
194
330
1F
100
AcDbEntity
  8
0
100
AcDbLine
 10
4.390625000000011
 20
8.811378175473056
 30
0.0
 11
4.416513347648328
 21
8.791513347648321
 31
0.0
  0
LINE
  5
195
330
1F
100
AcDbEntity
  8
0
100
AcDbLine
 10
4.416513347648328
 20
8.791513347648321
 30
0.0
 11
4.436378175473065
 21
8.765625000000002
 31
0.0
  0
LINE
  5
196
330
1F
100
AcDbEntity
  8
0
100
AcDbLine
 10
4.436378175473065
 20
8.765625000000002
 30
0.0
 11
4.448865728286144
 21
8.735477380637818
 31
0.0
  0
LINE
  5
197
330
1F
100
AcDbEntity
  8
0
100
AcDbLine
 10
4.448865728286144
 20
8.735477380637818
 30
0.0
 11
4.453125000000011
 21
8.703125000000002
 31
0.0
  0
LINE
  5
198
330
1F
100
AcDbEntity
  8
0
100
AcDbLine
 10
3.921875000000009
 20
8.453125000000002
 30
0.0
 11
3.889522619362195
 21
8.457384271713869
 31
0.0
  0
LINE
  5
199
330
1F
100
AcDbEntity
  8
0
100
AcDbLine
 10
3.889522619362195
 20
8.457384271713869
 30
0.0
 11
3.859375000000009
 21
8.469871824526948
 31
0.0
  0
LINE
  5
19A
330
1F
100
AcDbEntity
  8
0
100
AcDbLine
 10
3.859375000000009
 20
8.469871824526948
 30
0.0
 11
3.83348665235169
 21
8.489736652351683
 31
0.0
  0
LINE
  5
19B
330
1F
100
AcDbEntity
  8
0
100
AcDbLine
 10
3.83348665235169
 20
8.489736652351683
 30
0.0
 11
3.813621824526953
 21
8.515625000000002
 31
0.0
  0
LINE
  5
19C
330
1F
100
AcDbEntity
  8
0
100
AcDbLine
 10
3.813621824526953
 20
8.515625000000002
 30
0.0
 11
3.801134271713876
 21
8.545772619362186
 31
0.0
  0
LINE
  5
19D
330
1F
100
AcDbEntity
  8
0
100
AcDbLine
 10
3.801134271713876
 20
8.545772619362186
 30
0.0
 11
3.796875000000009
 21
8.578125000000002
 31
0.0
  0
LINE
  5
19E
330
1F
100
AcDbEntity
  8
0
100
AcDbLine
 10
3.796875000000009
 20
8.578125000000002
 30
0.0
 11
3.801134271713876
 21
8.610477380637818
 31
0.0
  0
LINE
  5
19F
330
1F
100
AcDbEntity
  8
0
100
AcDbLine
 10
3.801134271713876
 20
8.610477380637818
 30
0.0
 11
3.813621824526953
 21
8.640625000000002
 31
0.0
  0
LINE
  5
1A0
330
1F
100
AcDbEntity
  8
0
100
AcDbLine
 10
3.813621824526953
 20
8.640625000000002
 30
0.0
 11
3.83348665235169
 21
8.666513347648321
 31
0.0
  0
LINE
  5
1A1
330
1F
100
AcDbEntity
  8
0
100
AcDbLine
 10
3.83348665235169
 20
8.666513347648321
 30
0.0
 11
3.859375000000009
 21
8.686378175473056
 31
0.0
  0
LINE
  5
1A2
330
1F
100
AcDbEntity
  8
0
100
AcDbLine
 10
3.859375000000009
 20
8.686378175473056
 30
0.0
 11
3.889522619362195
 21
8.698865728286135
 31
0.0
  0
LINE
  5
1A3
330
1F
100
AcDbEntity
  8
0
100
AcDbLine
 10
3.889522619362195
 20
8.698865728286135
 30
0.0
 11
3.921875000000009
 21
8.703125000000002
 31
0.0
  0
LINE
  5
1A4
330
1F
100
AcDbEntity
  8
0
100
AcDbLine
 10
3.921875000000009
 20
1.921875000000002
 30
0.0
 11
3.889522619362195
 21
1.926134271713869
 31
0.0
  0
LINE
  5
1A5
330
1F
100
AcDbEntity
  8
0
100
AcDbLine
 10
3.889522619362195
 20
1.926134271713869
 30
0.0
 11
3.859375000000009
 21
1.938621824526947
 31
0.0
  0
LINE
  5
1A6
330
1F
100
AcDbEntity
  8
0
100
AcDbLine
 10
3.859375000000009
 20
1.938621824526947
 30
0.0
 11
3.83348665235169
 21
1.958486652351684
 31
0.0
  0
LINE
  5
1A7
330
1F
100
AcDbEntity
  8
0
100
AcDbLine
 10
3.83348665235169
 20
1.958486652351684
 30
0.0
 11
3.813621824526953
 21
1.984375000000002
 31
0.0
  0
LINE
  5
1A8
330
1F
100
AcDbEntity
  8
0
100
AcDbLine
 10
3.813621824526953
 20
1.984375000000002
 30
0.0
 11
3.801134271713876
 21
2.014522619362187
 31
0.0
  0
LINE
  5
1A9
330
1F
100
AcDbEntity
  8
0
100
AcDbLine
 10
3.801134271713876
 20
2.014522619362187
 30
0.0
 11
3.796875000000009
 21
2.046875000000002
 31
0.0
  0
LINE
  5
1AA
330
1F
100
AcDbEntity
  8
0
100
AcDbLine
 10
3.796875000000009
 20
2.046875000000002
 30
0.0
 11
3.801134271713876
 21
2.079227380637817
 31
0.0
  0
LINE
  5
1AB
330
1F
100
AcDbEntity
  8
0
100
AcDbLine
 10
3.801134271713876
 20
2.079227380637817
 30
0.0
 11
3.813621824526953
 21
2.109375000000002
 31
0.0
  0
LINE
  5
1AC
330
1F
100
AcDbEntity
  8
0
100
AcDbLine
 10
3.813621824526953
 20
2.109375000000002
 30
0.0
 11
3.83348665235169
 21
2.13526334764832
 31
0.0
  0
LINE
  5
1AD
330
1F
100
AcDbEntity
  8
0
100
AcDbLine
 10
3.83348665235169
 20
2.13526334764832
 30
0.0
 11
3.859375000000009
 21
2.155128175473057
 31
0.0
  0
LINE
  5
1AE
330
1F
100
AcDbEntity
  8
0
100
AcDbLine
 10
3.859375000000009
 20
2.155128175473057
 30
0.0
 11
3.889522619362195
 21
2.167615728286135
 31
0.0
  0
LINE
  5
1AF
330
1F
100
AcDbEntity
  8
0
100
AcDbLine
 10
3.889522619362195
 20
2.167615728286135
 30
0.0
 11
3.921875000000009
 21
2.171875000000002
 31
0.0
  0
LINE
  5
1B0
330
1F
100
AcDbEntity
  8
0
100
AcDbLine
 10
3.921875000000009
 20
2.171875000000002
 30
0.0
 11
3.921875000000009
 21
8.453125000000002
 31
0.0
  0
LINE
  5
1B1
330
1F
100
AcDbEntity
  8
0
100
AcDbLine
 10
4.453125000000011
 20
1.921875000000002
 30
0.0
 11
4.448865728286144
 21
1.889522619362187
 31
0.0
  0
LINE
  5
1B2
330
1F
100
AcDbEntity
  8
0
100
AcDbLine
 10
4.448865728286144
 20
1.889522619362187
 30
0.0
 11
4.436378175473065
 21
1.859375000000002
 31
0.0
  0
LINE
  5
1B3
330
1F
100
AcDbEntity
  8
0
100
AcDbLine
 10
4.436378175473065
 20
1.859375000000002
 30
0.0
 11
4.416513347648328
 21
1.833486652351684
 31
0.0
  0
LINE
  5
1B4
330
1F
100
AcDbEntity
  8
0
100
AcDbLine
 10
4.416513347648328
 20
1.833486652351684
 30
0.0
 11
4.390625000000011
 21
1.813621824526947
 31
0.0
  0
LINE
  5
1B5
330
1F
100
AcDbEntity
  8
0
100
AcDbLine
 10
4.390625000000011
 20
1.813621824526947
 30
0.0
 11
4.360477380637827
 21
1.801134271713869
 31
0.0
  0
LINE
  5
1B6
330
1F
100
AcDbEntity
  8
0
100
AcDbLine
 10
4.360477380637827
 20
1.801134271713869
 30
0.0
 11
4.328125000000011
 21
1.796875000000002
 31
0.0
  0
LINE
  5
1B7
330
1F
100
AcDbEntity
  8
0
100
AcDbLine
 10
4.328125000000011
 20
1.796875000000002
 30
0.0
 11
4.295772619362195
 21
1.801134271713869
 31
0.0
  0
LINE
  5
1B8
330
1F
100
AcDbEntity
  8
0
100
AcDbLine
 10
4.295772619362195
 20
1.801134271713869
 30
0.0
 11
4.265625000000011
 21
1.813621824526947
 31
0.0
  0
LINE
  5
1B9
330
1F
100
AcDbEntity
  8
0
100
AcDbLine
 10
4.265625000000011
 20
1.813621824526947
 30
0.0
 11
4.239736652351693
 21
1.833486652351684
 31
0.0
  0
LINE
  5
1BA
330
1F
100
AcDbEntity
  8
0
100
AcDbLine
 10
4.239736652351693
 20
1.833486652351684
 30
0.0
 11
4.219871824526956
 21
1.859375000000002
 31
0.0
  0
LINE
  5
1BB
330
1F
100
AcDbEntity
  8
0
100
AcDbLine
 10
4.219871824526956
 20
1.859375000000002
 30
0.0
 11
4.207384271713877
 21
1.889522619362187
 31
0.0
  0
LINE
  5
1BC
330
1F
100
AcDbEntity
  8
0
100
AcDbLine
 10
4.207384271713877
 20
1.889522619362187
 30
0.0
 11
4.203125000000011
 21
1.921875000000002
 31
0.0
  0
LINE
  5
1BD
330
1F
100
AcDbEntity
  8
0
100
AcDbLine
 10
4.203125000000011
 20
1.921875000000002
 30
0.0
 11
3.921875000000009
 21
1.921875000000002
 31
0.0
  0
LINE
  5
1BE
330
1F
100
AcDbEntity
  8
0
100
AcDbLine
 10
13.9375
 20
-3.3125
 30
0.0
 11
14.1875
 21
-3.312499999999999
 31
0.0
  0
LINE
  5
1BF
330
1F
100
AcDbEntity
  8
0
100
AcDbLine
 10
4.437500000000004
 20
-1.312499999999998
 30
0.0
 11
13.9375
 21
-1.312499999999998
 31
0.0
  0
LINE
  5
1C0
330
1F
100
AcDbEntity
  8
0
100
AcDbLine
 10
4.437500000000004
 20
-5.8125
 30
0.0
 11
4.187500000000004
 21
-5.812499999999998
 31
0.0
  0
LINE
  5
1C1
330
1F
100
AcDbEntity
  8
0
100
AcDbLine
 10
13.9375
 20
-8.0625
 30
0.0
 11
4.437500000000004
 21
-8.0625
 31
0.0
  0
LINE
  5
1C2
330
1F
100
AcDbEntity
  8
0
100
AcDbLine
 10
13.9375
 20
-6.062499999999998
 30
0.0
 11
13.90514761936219
 21
-6.058240728286132
 31
0.0
  0
LINE
  5
1C3
330
1F
100
AcDbEntity
  8
0
100
AcDbLine
 10
13.90514761936219
 20
-6.058240728286132
 30
0.0
 11
13.875
 21
-6.045753175473053
 31
0.0
  0
LINE
  5
1C4
330
1F
100
AcDbEntity
  8
0
100
AcDbLine
 10
13.875
 20
-6.045753175473053
 30
0.0
 11
13.84911165235168
 21
-6.025888347648317
 31
0.0
  0
LINE
  5
1C5
330
1F
100
AcDbEntity
  8
0
100
AcDbLine
 10
13.84911165235168
 20
-6.025888347648317
 30
0.0
 11
13.82924682452695
 21
-5.999999999999998
 31
0.0
  0
LINE
  5
1C6
330
1F
100
AcDbEntity
  8
0
100
AcDbLine
 10
13.82924682452695
 20
-5.999999999999998
 30
0.0
 11
13.81675927171387
 21
-5.969852380637814
 31
0.0
  0
LINE
  5
1C7
330
1F
100
AcDbEntity
  8
0
100
AcDbLine
 10
13.81675927171387
 20
-5.969852380637814
 30
0.0
 11
13.8125
 21
-5.937499999999998
 31
0.0
  0
LINE
  5
1C8
330
1F
100
AcDbEntity
  8
0
100
AcDbLine
 10
13.8125
 20
-5.937499999999998
 30
0.0
 11
13.81675927171387
 21
-5.905147619362184
 31
0.0
  0
LINE
  5
1C9
330
1F
100
AcDbEntity
  8
0
100
AcDbLine
 10
13.81675927171387
 20
-5.905147619362184
 30
0.0
 11
13.82924682452695
 21
-5.874999999999998
 31
0.0
  0
LINE
  5
1CA
330
1F
100
AcDbEntity
  8
0
100
AcDbLine
 10
13.82924682452695
 20
-5.874999999999998
 30
0.0
 11
13.84911165235168
 21
-5.84911165235168
 31
0.0
  0
LINE
  5
1CB
330
1F
100
AcDbEntity
  8
0
100
AcDbLine
 10
13.84911165235168
 20
-5.84911165235168
 30
0.0
 11
13.875
 21
-5.829246824526944
 31
0.0
  0
LINE
  5
1CC
330
1F
100
AcDbEntity
  8
0
100
AcDbLine
 10
13.875
 20
-5.829246824526944
 30
0.0
 11
13.90514761936219
 21
-5.816759271713865
 31
0.0
  0
LINE
  5
1CD
330
1F
100
AcDbEntity
  8
0
100
AcDbLine
 10
13.90514761936219
 20
-5.816759271713865
 30
0.0
 11
13.9375
 21
-5.812499999999998
 31
0.0
  0
LINE
  5
1CE
330
1F
100
AcDbEntity
  8
0
100
AcDbLine
 10
13.9375
 20
-6.062499999999998
 30
0.0
 11
13.9375
 21
-8.0625
 31
0.0
  0
LINE
  5
1CF
330
1F
100
AcDbEntity
  8
0
100
AcDbLine
 10
13.9375
 20
-3.3125
 30
0.0
 11
13.90514761936219
 21
-3.308240728286132
 31
0.0
  0
LINE
  5
1D0
330
1F
100
AcDbEntity
  8
0
100
AcDbLine
 10
13.90514761936219
 20
-3.308240728286132
 30
0.0
 11
13.875
 21
-3.295753175473054
 31
0.0
  0
LINE
  5
1D1
330
1F
100
AcDbEntity
  8
0
100
AcDbLine
 10
13.875
 20
-3.295753175473054
 30
0.0
 11
13.84911165235168
 21
-3.275888347648317
 31
0.0
  0
LINE
  5
1D2
330
1F
100
AcDbEntity
  8
0
100
AcDbLine
 10
13.84911165235168
 20
-3.275888347648317
 30
0.0
 11
13.82924682452695
 21
-3.249999999999999
 31
0.0
  0
LINE
  5
1D3
330
1F
100
AcDbEntity
  8
0
100
AcDbLine
 10
13.82924682452695
 20
-3.249999999999999
 30
0.0
 11
13.81675927171387
 21
-3.219852380637814
 31
0.0
  0
LINE
  5
1D4
330
1F
100
AcDbEntity
  8
0
100
AcDbLine
 10
13.81675927171387
 20
-3.219852380637814
 30
0.0
 11
13.8125
 21
-3.187499999999999
 31
0.0
  0
LINE
  5
1D5
330
1F
100
AcDbEntity
  8
0
100
AcDbLine
 10
13.8125
 20
-3.187499999999999
 30
0.0
 11
13.81675927171387
 21
-3.155147619362184
 31
0.0
  0
LINE
  5
1D6
330
1F
100
AcDbEntity
  8
0
100
AcDbLine
 10
13.81675927171387
 20
-3.155147619362184
 30
0.0
 11
13.82924682452695
 21
-3.124999999999999
 31
0.0
  0
LINE
  5
1D7
330
1F
100
AcDbEntity
  8
0
100
AcDbLine
 10
13.82924682452695
 20
-3.124999999999999
 30
0.0
 11
13.84911165235168
 21
-3.099111652351681
 31
0.0
  0
LINE
  5
1D8
330
1F
100
AcDbEntity
  8
0
100
AcDbLine
 10
13.84911165235168
 20
-3.099111652351681
 30
0.0
 11
13.875
 21
-3.079246824526944
 31
0.0
  0
LINE
  5
1D9
330
1F
100
AcDbEntity
  8
0
100
AcDbLine
 10
13.875
 20
-3.079246824526944
 30
0.0
 11
13.90514761936219
 21
-3.066759271713866
 31
0.0
  0
LINE
  5
1DA
330
1F
100
AcDbEntity
  8
0
100
AcDbLine
 10
13.90514761936219
 20
-3.066759271713866
 30
0.0
 11
13.9375
 21
-3.062499999999999
 31
0.0
  0
LINE
  5
1DB
330
1F
100
AcDbEntity
  8
0
100
AcDbLine
 10
13.9375
 20
-3.062499999999999
 30
0.0
 11
13.9375
 21
-1.312499999999998
 31
0.0
  0
LINE
  5
1DC
330
1F
100
AcDbEntity
  8
0
100
AcDbLine
 10
4.437500000000004
 20
-3.062499999999999
 30
0.0
 11
4.469852380637819
 21
-3.066759271713866
 31
0.0
  0
LINE
  5
1DD
330
1F
100
AcDbEntity
  8
0
100
AcDbLine
 10
4.469852380637819
 20
-3.066759271713866
 30
0.0
 11
4.500000000000004
 21
-3.079246824526944
 31
0.0
  0
LINE
  5
1DE
330
1F
100
AcDbEntity
  8
0
100
AcDbLine
 10
4.500000000000004
 20
-3.079246824526944
 30
0.0
 11
4.525888347648323
 21
-3.099111652351681
 31
0.0
  0
LINE
  5
1DF
330
1F
100
AcDbEntity
  8
0
100
AcDbLine
 10
4.525888347648323
 20
-3.099111652351681
 30
0.0
 11
4.54575317547306
 21
-3.124999999999999
 31
0.0
  0
LINE
  5
1E0
330
1F
100
AcDbEntity
  8
0
100
AcDbLine
 10
4.54575317547306
 20
-3.124999999999999
 30
0.0
 11
4.558240728286138
 21
-3.155147619362184
 31
0.0
  0
LINE
  5
1E1
330
1F
100
AcDbEntity
  8
0
100
AcDbLine
 10
4.558240728286138
 20
-3.155147619362184
 30
0.0
 11
4.562500000000004
 21
-3.187499999999999
 31
0.0
  0
LINE
  5
1E2
330
1F
100
AcDbEntity
  8
0
100
AcDbLine
 10
4.562500000000004
 20
-3.187499999999999
 30
0.0
 11
4.558240728286138
 21
-3.219852380637814
 31
0.0
  0
LINE
  5
1E3
330
1F
100
AcDbEntity
  8
0
100
AcDbLine
 10
4.558240728286138
 20
-3.219852380637814
 30
0.0
 11
4.54575317547306
 21
-3.249999999999999
 31
0.0
  0
LINE
  5
1E4
330
1F
100
AcDbEntity
  8
0
100
AcDbLine
 10
4.54575317547306
 20
-3.249999999999999
 30
0.0
 11
4.525888347648323
 21
-3.275888347648317
 31
0.0
  0
LINE
  5
1E5
330
1F
100
AcDbEntity
  8
0
100
AcDbLine
 10
4.525888347648323
 20
-3.275888347648317
 30
0.0
 11
4.500000000000004
 21
-3.295753175473054
 31
0.0
  0
LINE
  5
1E6
330
1F
100
AcDbEntity
  8
0
100
AcDbLine
 10
4.500000000000004
 20
-3.295753175473054
 30
0.0
 11
4.469852380637819
 21
-3.308240728286132
 31
0.0
  0
LINE
  5
1E7
330
1F
100
AcDbEntity
  8
0
100
AcDbLine
 10
4.469852380637819
 20
-3.308240728286132
 30
0.0
 11
4.437500000000004
 21
-3.312499999999999
 31
0.0
  0
LINE
  5
1E8
330
1F
100
AcDbEntity
  8
0
100
AcDbLine
 10
4.437500000000004
 20
-3.062499999999999
 30
0.0
 11
4.437500000000004
 21
-1.312499999999998
 31
0.0
  0
LINE
  5
1E9
330
1F
100
AcDbEntity
  8
0
100
AcDbLine
 10
4.437500000000004
 20
-5.8125
 30
0.0
 11
4.469852380637819
 21
-5.816759271713865
 31
0.0
  0
LINE
  5
1EA
330
1F
100
AcDbEntity
  8
0
100
AcDbLine
 10
4.469852380637819
 20
-5.816759271713865
 30
0.0
 11
4.500000000000004
 21
-5.829246824526944
 31
0.0
  0
LINE
  5
1EB
330
1F
100
AcDbEntity
  8
0
100
AcDbLine
 10
4.500000000000004
 20
-5.829246824526944
 30
0.0
 11
4.525888347648323
 21
-5.84911165235168
 31
0.0
  0
LINE
  5
1EC
330
1F
100
AcDbEntity
  8
0
100
AcDbLine
 10
4.525888347648323
 20
-5.84911165235168
 30
0.0
 11
4.54575317547306
 21
-5.874999999999998
 31
0.0
  0
LINE
  5
1ED
330
1F
100
AcDbEntity
  8
0
100
AcDbLine
 10
4.54575317547306
 20
-5.874999999999998
 30
0.0
 11
4.558240728286138
 21
-5.905147619362183
 31
0.0
  0
LINE
  5
1EE
330
1F
100
AcDbEntity
  8
0
100
AcDbLine
 10
4.558240728286138
 20
-5.905147619362183
 30
0.0
 11
4.562500000000004
 21
-5.937499999999998
 31
0.0
  0
LINE
  5
1EF
330
1F
100
AcDbEntity
  8
0
100
AcDbLine
 10
4.562500000000004
 20
-5.937499999999998
 30
0.0
 11
4.558240728286138
 21
-5.969852380637814
 31
0.0
  0
LINE
  5
1F0
330
1F
100
AcDbEntity
  8
0
100
AcDbLine
 10
4.558240728286138
 20
-5.969852380637814
 30
0.0
 11
4.54575317547306
 21
-5.999999999999998
 31
0.0
  0
LINE
  5
1F1
330
1F
100
AcDbEntity
  8
0
100
AcDbLine
 10
4.54575317547306
 20
-5.999999999999998
 30
0.0
 11
4.525888347648323
 21
-6.025888347648317
 31
0.0
  0
LINE
  5
1F2
330
1F
100
AcDbEntity
  8
0
100
AcDbLine
 10
4.525888347648323
 20
-6.025888347648317
 30
0.0
 11
4.500000000000004
 21
-6.045753175473053
 31
0.0
  0
LINE
  5
1F3
330
1F
100
AcDbEntity
  8
0
100
AcDbLine
 10
4.500000000000004
 20
-6.045753175473053
 30
0.0
 11
4.469852380637819
 21
-6.058240728286132
 31
0.0
  0
LINE
  5
1F4
330
1F
100
AcDbEntity
  8
0
100
AcDbLine
 10
4.469852380637819
 20
-6.058240728286132
 30
0.0
 11
4.437500000000004
 21
-6.062499999999998
 31
0.0
  0
LINE
  5
1F5
330
1F
100
AcDbEntity
  8
0
100
AcDbLine
 10
4.437500000000004
 20
-6.062499999999998
 30
0.0
 11
4.437500000000004
 21
-8.0625
 31
0.0
  0
LINE
  5
1F6
330
1F
100
AcDbEntity
  8
0
100
AcDbLine
 10
4.187500000000004
 20
-3.312499999999999
 30
0.0
 11
4.154868451944991
 21
-3.314638784656546
 31
0.0
  0
LINE
  5
1F7
330
1F
100
AcDbEntity
  8
0
100
AcDbLine
 10
4.154868451944991
 20
-3.314638784656546
 30
0.0
 11
4.122795238724374
 21
-3.321018543427732
 31
0.0
  0
LINE
  5
1F8
330
1F
100
AcDbEntity
  8
0
100
AcDbLine
 10
4.122795238724374
 20
-3.321018543427732
 30
0.0
 11
4.091829141908732
 21
-3.331530116872178
 31
0.0
  0
LINE
  5
1F9
330
1F
100
AcDbEntity
  8
0
100
AcDbLine
 10
4.091829141908732
 20
-3.331530116872178
 30
0.0
 11
4.062500000000004
 21
-3.345993649053889
 31
0.0
  0
LINE
  5
1FA
330
1F
100
AcDbEntity
  8
0
100
AcDbLine
 10
4.062500000000004
 20
-3.345993649053889
 30
0.0
 11
4.035309642747825
 21
-3.36416166492719
 31
0.0
  0
LINE
  5
1FB
330
1F
100
AcDbEntity
  8
0
100
AcDbLine
 10
4.035309642747825
 20
-3.36416166492719
 30
0.0
 11
4.010723304703368
 21
-3.385723304703362
 31
0.0
  0
LINE
  5
1FC
330
1F
100
AcDbEntity
  8
0
100
AcDbLine
 10
4.010723304703368
 20
-3.385723304703362
 30
0.0
 11
3.989161664927195
 21
-3.410309642747819
 31
0.0
  0
LINE
  5
1FD
330
1F
100
AcDbEntity
  8
0
100
AcDbLine
 10
3.989161664927195
 20
-3.410309642747819
 30
0.0
 11
3.970993649053895
 21
-3.437499999999999
 31
0.0
  0
LINE
  5
1FE
330
1F
100
AcDbEntity
  8
0
100
AcDbLine
 10
3.970993649053895
 20
-3.437499999999999
 30
0.0
 11
3.956530116872183
 21
-3.466829141908727
 31
0.0
  0
LINE
  5
1FF
330
1F
100
AcDbEntity
  8
0
100
AcDbLine
 10
3.956530116872183
 20
-3.466829141908727
 30
0.0
 11
3.946018543427737
 21
-3.497795238724369
 31
0.0
  0
LINE
  5
200
330
1F
100
AcDbEntity
  8
0
100
AcDbLine
 10
3.946018543427737
 20
-3.497795238724369
 30
0.0
 11
3.939638784656552
 21
-3.529868451944986
 31
0.0
  0
LINE
  5
201
330
1F
100
AcDbEntity
  8
0
100
AcDbLine
 10
3.939638784656552
 20
-3.529868451944986
 30
0.0
 11
3.937500000000004
 21
-3.562499999999999
 31
0.0
  0
LINE
  5
202
330
1F
100
AcDbEntity
  8
0
100
AcDbLine
 10
4.187500000000004
 20
-3.312499999999999
 30
0.0
 11
4.437500000000004
 21
-3.312499999999999
 31
0.0
  0
LINE
  5
203
330
1F
100
AcDbEntity
  8
0
100
AcDbLine
 10
4.187500000000004
 20
-5.812499999999998
 30
0.0
 11
4.154868451944991
 21
-5.810361215343451
 31
0.0
  0
LINE
  5
204
330
1F
100
AcDbEntity
  8
0
100
AcDbLine
 10
4.154868451944991
 20
-5.810361215343451
 30
0.0
 11
4.122795238724374
 21
-5.803981456572266
 31
0.0
  0
LINE
  5
205
330
1F
100
AcDbEntity
  8
0
100
AcDbLine
 10
4.122795238724374
 20
-5.803981456572266
 30
0.0
 11
4.091829141908732
 21
-5.793469883127821
 31
0.0
  0
LINE
  5
206
330
1F
100
AcDbEntity
  8
0
100
AcDbLine
 10
4.091829141908732
 20
-5.793469883127821
 30
0.0
 11
4.062500000000004
 21
-5.779006350946108
 31
0.0
  0
LINE
  5
207
330
1F
100
AcDbEntity
  8
0
100
AcDbLine
 10
4.062500000000004
 20
-5.779006350946108
 30
0.0
 11
4.035309642747825
 21
-5.760838335072807
 31
0.0
  0
LINE
  5
208
330
1F
100
AcDbEntity
  8
0
100
AcDbLine
 10
4.035309642747825
 20
-5.760838335072807
 30
0.0
 11
4.010723304703368
 21
-5.739276695296636
 31
0.0
  0
LINE
  5
209
330
1F
100
AcDbEntity
  8
0
100
AcDbLine
 10
4.010723304703368
 20
-5.739276695296636
 30
0.0
 11
3.989161664927196
 21
-5.714690357252179
 31
0.0
  0
LINE
  5
20A
330
1F
100
AcDbEntity
  8
0
100
AcDbLine
 10
3.989161664927196
 20
-5.714690357252179
 30
0.0
 11
3.970993649053895
 21
-5.687499999999998
 31
0.0
  0
LINE
  5
20B
330
1F
100
AcDbEntity
  8
0
100
AcDbLine
 10
3.970993649053895
 20
-5.687499999999998
 30
0.0
 11
3.956530116872183
 21
-5.658170858091271
 31
0.0
  0
LINE
  5
20C
330
1F
100
AcDbEntity
  8
0
100
AcDbLine
 10
3.956530116872183
 20
-5.658170858091271
 30
0.0
 11
3.946018543427738
 21
-5.627204761275629
 31
0.0
  0
LINE
  5
20D
330
1F
100
AcDbEntity
  8
0
100
AcDbLine
 10
3.946018543427738
 20
-5.627204761275629
 30
0.0
 11
3.939638784656553
 21
-5.595131548055011
 31
0.0
  0
LINE
  5
20E
330
1F
100
AcDbEntity
  8
0
100
AcDbLine
 10
3.939638784656553
 20
-5.595131548055011
 30
0.0
 11
3.937500000000005
 21
-5.562499999999998
 31
0.0
  0
LINE
  5
20F
330
1F
100
AcDbEntity
  8
0
100
AcDbLine
 10
3.937500000000005
 20
-5.562499999999998
 30
0.0
 11
3.937500000000004
 21
-3.562499999999999
 31
0.0
  0
LINE
  5
210
330
1F
100
AcDbEntity
  8
0
100
AcDbLine
 10
14.4375
 20
-5.562499999999998
 30
0.0
 11
14.43536121534346
 21
-5.595131548055011
 31
0.0
  0
LINE
  5
211
330
1F
100
AcDbEntity
  8
0
100
AcDbLine
 10
14.43536121534346
 20
-5.595131548055011
 30
0.0
 11
14.42898145657227
 21
-5.627204761275629
 31
0.0
  0
LINE
  5
212
330
1F
100
AcDbEntity
  8
0
100
AcDbLine
 10
14.42898145657227
 20
-5.627204761275629
 30
0.0
 11
14.41846988312783
 21
-5.658170858091271
 31
0.0
  0
LINE
  5
213
330
1F
100
AcDbEntity
  8
0
100
AcDbLine
 10
14.41846988312783
 20
-5.658170858091271
 30
0.0
 11
14.40400635094612
 21
-5.687499999999998
 31
0.0
  0
LINE
  5
214
330
1F
100
AcDbEntity
  8
0
100
AcDbLine
 10
14.40400635094612
 20
-5.687499999999998
 30
0.0
 11
14.38583833507281
 21
-5.714690357252179
 31
0.0
  0
LINE
  5
215
330
1F
100
AcDbEntity
  8
0
100
AcDbLine
 10
14.38583833507281
 20
-5.714690357252179
 30
0.0
 11
14.36427669529664
 21
-5.739276695296636
 31
0.0
  0
LINE
  5
216
330
1F
100
AcDbEntity
  8
0
100
AcDbLine
 10
14.36427669529664
 20
-5.739276695296636
 30
0.0
 11
14.33969035725218
 21
-5.760838335072807
 31
0.0
  0
LINE
  5
217
330
1F
100
AcDbEntity
  8
0
100
AcDbLine
 10
14.33969035725218
 20
-5.760838335072807
 30
0.0
 11
14.3125
 21
-5.779006350946108
 31
0.0
  0
LINE
  5
218
330
1F
100
AcDbEntity
  8
0
100
AcDbLine
 10
14.3125
 20
-5.779006350946108
 30
0.0
 11
14.28317085809128
 21
-5.793469883127821
 31
0.0
  0
LINE
  5
219
330
1F
100
AcDbEntity
  8
0
100
AcDbLine
 10
14.28317085809128
 20
-5.793469883127821
 30
0.0
 11
14.25220476127564
 21
-5.803981456572266
 31
0.0
  0
LINE
  5
21A
330
1F
100
AcDbEntity
  8
0
100
AcDbLine
 10
14.25220476127564
 20
-5.803981456572266
 30
0.0
 11
14.22013154805502
 21
-5.810361215343451
 31
0.0
  0
LINE
  5
21B
330
1F
100
AcDbEntity
  8
0
100
AcDbLine
 10
14.22013154805502
 20
-5.810361215343451
 30
0.0
 11
14.1875
 21
-5.812499999999998
 31
0.0
  0
LINE
  5
21C
330
1F
100
AcDbEntity
  8
0
100
AcDbLine
 10
14.1875
 20
-5.812499999999998
 30
0.0
 11
13.9375
 21
-5.812499999999998
 31
0.0
  0
LINE
  5
21D
330
1F
100
AcDbEntity
  8
0
100
AcDbLine
 10
14.4375
 20
-3.562499999999999
 30
0.0
 11
14.43536121534346
 21
-3.529868451944986
 31
0.0
  0
LINE
  5
21E
330
1F
100
AcDbEntity
  8
0
100
AcDbLine
 10
14.43536121534346
 20
-3.529868451944986
 30
0.0
 11
14.42898145657227
 21
-3.497795238724369
 31
0.0
  0
LINE
  5
21F
330
1F
100
AcDbEntity
  8
0
100
AcDbLine
 10
14.42898145657227
 20
-3.497795238724369
 30
0.0
 11
14.41846988312783
 21
-3.466829141908727
 31
0.0
  0
LINE
  5
220
330
1F
100
AcDbEntity
  8
0
100
AcDbLine
 10
14.41846988312783
 20
-3.466829141908727
 30
0.0
 11
14.40400635094612
 21
-3.437499999999999
 31
0.0
  0
LINE
  5
221
330
1F
100
AcDbEntity
  8
0
100
AcDbLine
 10
14.40400635094612
 20
-3.437499999999999
 30
0.0
 11
14.38583833507281
 21
-3.410309642747819
 31
0.0
  0
LINE
  5
222
330
1F
100
AcDbEntity
  8
0
100
AcDbLine
 10
14.38583833507281
 20
-3.410309642747819
 30
0.0
 11
14.36427669529664
 21
-3.385723304703362
 31
0.0
  0
LINE
  5
223
330
1F
100
AcDbEntity
  8
0
100
AcDbLine
 10
14.36427669529664
 20
-3.385723304703362
 30
0.0
 11
14.33969035725218
 21
-3.36416166492719
 31
0.0
  0
LINE
  5
224
330
1F
100
AcDbEntity
  8
0
100
AcDbLine
 10
14.33969035725218
 20
-3.36416166492719
 30
0.0
 11
14.3125
 21
-3.345993649053889
 31
0.0
  0
LINE
  5
225
330
1F
100
AcDbEntity
  8
0
100
AcDbLine
 10
14.3125
 20
-3.345993649053889
 30
0.0
 11
14.28317085809128
 21
-3.331530116872178
 31
0.0
  0
LINE
  5
226
330
1F
100
AcDbEntity
  8
0
100
AcDbLine
 10
14.28317085809128
 20
-3.331530116872178
 30
0.0
 11
14.25220476127564
 21
-3.321018543427732
 31
0.0
  0
LINE
  5
227
330
1F
100
AcDbEntity
  8
0
100
AcDbLine
 10
14.25220476127564
 20
-3.321018543427732
 30
0.0
 11
14.22013154805502
 21
-3.314638784656546
 31
0.0
  0
LINE
  5
228
330
1F
100
AcDbEntity
  8
0
100
AcDbLine
 10
14.22013154805502
 20
-3.314638784656546
 30
0.0
 11
14.1875
 21
-3.312499999999999
 31
0.0
  0
LINE
  5
229
330
1F
100
AcDbEntity
  8
0
100
AcDbLine
 10
14.4375
 20
-3.562499999999999
 30
0.0
 11
14.4375
 21
-5.562499999999998
 31
0.0
  0
LINE
  5
22A
330
1F
100
AcDbEntity
  8
0
100
AcDbLine
 10
-2.669550807568871
 20
-3.437499999999998
 30
0.0
 11
-2.750115574073295
 21
-3.5922634765186
 31
0.0
  0
LINE
  5
22B
330
1F
100
AcDbEntity
  8
0
100
AcDbLine
 10
-3.474288218175521
 20
0.2220760221444973
 30
0.0
 11
-3.437499999999997
 21
0.2455127018922223
 31
0.0
  0
LINE
  5
22C
330
1F
100
AcDbEntity
  8
0
100
AcDbLine
 10
-3.316909522551256
 20
0.2954629131445348
 30
0.0
 11
-3.274324088833463
 21
0.3049038765061045
 31
0.0
  0
LINE
  5
22D
330
1F
100
AcDbEntity
  8
0
100
AcDbLine
 10
-2.351713562373095
 20
-3.023286437626905
 30
0.0
 11
-2.46958888623795
 21
-3.151924780626917
 31
0.0
  0
LINE
  5
22E
330
1F
100
AcDbEntity
  8
0
100
AcDbLine
 10
-1.782736523481395
 20
-2.624884425926699
 30
0.0
 11
-1.937499999999998
 21
-2.705449192431122
 31
0.0
  0
LINE
  5
22F
330
1F
100
AcDbEntity
  8
0
100
AcDbLine
 10
-2.907115506024414
 20
-4.090203644666138
 30
0.0
 11
-2.929889396183489
 21
-4.26318851450468
 31
0.0
  0
LINE
  5
230
330
1F
100
AcDbEntity
  8
0
100
AcDbLine
 10
-1.455138090205042
 20
-2.505648347421863
 30
0.0
 11
-1.621540286651332
 21
-2.558114758428182
 31
0.0
  0
LINE
  5
231
330
1F
100
AcDbEntity
  8
0
100
AcDbLine
 10
-2.575804088577978
 20
-3.290347127297906
 30
0.0
 11
-2.669550807568871
 21
-3.437499999999998
 31
0.0
  0
LINE
  5
232
330
1F
100
AcDbEntity
  8
0
100
AcDbLine
 10
-1.284796355333858
 20
-2.467884493975583
 30
0.0
 11
-1.455138090205042
 21
-2.505648347421863
 31
0.0
  0
LINE
  5
233
330
1F
100
AcDbEntity
  8
0
100
AcDbLine
 10
-0.9374999999999973
 20
-2.437499999999999
 30
0.0
 11
-1.111811485495311
 21
-2.445110603816508
 31
0.0
  0
LINE
  5
234
330
1F
100
AcDbEntity
  8
0
100
AcDbLine
 10
-1.621540286651332
 20
-2.558114758428182
 30
0.0
 11
-1.782736523481395
 21
-2.624884425926699
 31
0.0
  0
LINE
  5
235
330
1F
100
AcDbEntity
  8
0
100
AcDbLine
 10
-2.084652872702089
 20
-2.799195911422015
 30
0.0
 11
-2.223075219373078
 21
-2.905411113762043
 31
0.0
  0
LINE
  5
236
330
1F
100
AcDbEntity
  8
0
100
AcDbLine
 10
-1.937499999999998
 20
-2.705449192431122
 30
0.0
 11
-2.084652872702089
 21
-2.799195911422015
 31
0.0
  0
LINE
  5
237
330
1F
100
AcDbEntity
  8
0
100
AcDbLine
 10
-2.223075219373078
 20
-2.905411113762043
 30
0.0
 11
-2.351713562373095
 21
-3.023286437626905
 31
0.0
  0
LINE
  5
238
330
1F
100
AcDbEntity
  8
0
100
AcDbLine
 10
-2.929889396183489
 20
-4.26318851450468
 30
0.0
 11
-2.937499999999999
 21
-4.437499999999996
 31
0.0
  0
LINE
  5
239
330
1F
100
AcDbEntity
  8
0
100
AcDbLine
 10
-2.750115574073295
 20
-3.5922634765186
 30
0.0
 11
-2.816885241571814
 21
-3.75345971334866
 31
0.0
  0
LINE
  5
23A
330
1F
100
AcDbEntity
  8
0
100
AcDbLine
 10
-3.685597349045872
 20
-0.1439221286261692
 30
0.0
 11
-3.679903876506104
 21
-0.1006759111665332
 31
0.0
  0
LINE
  5
23B
330
1F
100
AcDbEntity
  8
0
100
AcDbLine
 10
-2.46958888623795
 20
-3.151924780626917
 30
0.0
 11
-2.575804088577978
 21
-3.290347127297906
 31
0.0
  0
LINE
  5
23C
330
1F
100
AcDbEntity
  8
0
100
AcDbLine
 10
-2.816885241571814
 20
-3.75345971334866
 30
0.0
 11
-2.869351652578134
 21
-3.919861909794955
 31
0.0
  0
LINE
  5
23D
330
1F
100
AcDbEntity
  8
0
100
AcDbLine
 10
-1.111811485495311
 20
-2.445110603816508
 30
0.0
 11
-1.284796355333858
 21
-2.467884493975583
 31
0.0
  0
LINE
  5
23E
330
1F
100
AcDbEntity
  8
0
100
AcDbLine
 10
-2.869351652578134
 20
-3.919861909794955
 30
0.0
 11
-2.907115506024414
 21
-4.090203644666138
 31
0.0
  0
LINE
  5
23F
330
1F
100
AcDbEntity
  8
0
100
AcDbLine
 10
-3.358510071662831
 20
0.2823463103929562
 30
0.0
 11
-3.316909522551256
 21
0.2954629131445348
 31
0.0
  0
LINE
  5
240
330
1F
100
AcDbEntity
  8
0
100
AcDbLine
 10
-3.398809130870347
 20
0.2656538935183264
 30
0.0
 11
-3.358510071662831
 21
0.2823463103929562
 31
0.0
  0
LINE
  5
241
330
1F
100
AcDbEntity
  8
0
100
AcDbLine
 10
-3.54105339059327
 20
0.1660533905932748
 30
0.0
 11
-3.508893804843269
 21
0.1955222215594912
 31
0.0
  0
LINE
  5
242
330
1F
100
AcDbEntity
  8
0
100
AcDbLine
 10
-3.231077871373827
 20
0.3105973490458744
 30
0.0
 11
-3.187499999999998
 21
0.3125000000000018
 31
0.0
  0
LINE
  5
243
330
1F
100
AcDbEntity
  8
0
100
AcDbLine
 10
-3.640653893518324
 20
0.023809130870351
 30
0.0
 11
-3.620512701892218
 21
0.0625000000000018
 31
0.0
  0
LINE
  5
244
330
1F
100
AcDbEntity
  8
0
100
AcDbLine
 10
-3.620512701892218
 20
0.0625000000000018
 30
0.0
 11
-3.597076022144493
 21
0.0992882181755252
 31
0.0
  0
LINE
  5
245
330
1F
100
AcDbEntity
  8
0
100
AcDbLine
 10
-3.657346310392954
 20
-0.0164899283371636
 30
0.0
 11
-3.640653893518324
 21
0.023809130870351
 31
0.0
  0
LINE
  5
246
330
1F
100
AcDbEntity
  8
0
100
AcDbLine
 10
-3.679903876506104
 20
-0.1006759111665332
 30
0.0
 11
-3.670462913144534
 21
-0.0580904774487383
 31
0.0
  0
LINE
  5
247
330
1F
100
AcDbEntity
  8
0
100
AcDbLine
 10
-3.597076022144493
 20
0.0992882181755252
 30
0.0
 11
-3.570522221559487
 21
0.1338938048432716
 31
0.0
  0
LINE
  5
248
330
1F
100
AcDbEntity
  8
0
100
AcDbLine
 10
-3.570522221559487
 20
0.1338938048432716
 30
0.0
 11
-3.54105339059327
 21
0.1660533905932748
 31
0.0
  0
LINE
  5
249
330
1F
100
AcDbEntity
  8
0
100
AcDbLine
 10
-3.508893804843269
 20
0.1955222215594912
 30
0.0
 11
-3.474288218175521
 21
0.2220760221444973
 31
0.0
  0
LINE
  5
24A
330
1F
100
AcDbEntity
  8
0
100
AcDbLine
 10
-3.687499999999997
 20
-0.1874999999999982
 30
0.0
 11
-3.685597349045872
 21
-0.1439221286261692
 31
0.0
  0
LINE
  5
24B
330
1F
100
AcDbEntity
  8
0
100
AcDbLine
 10
-3.274324088833463
 20
0.3049038765061045
 30
0.0
 11
-3.231077871373827
 21
0.3105973490458744
 31
0.0
  0
LINE
  5
24C
330
1F
100
AcDbEntity
  8
0
100
AcDbLine
 10
-3.937499999999996
 20
-0.9531249999999982
 30
0.0
 11
-2.921874999999995
 21
-0.9531249999999982
 31
0.0
  0
LINE
  5
24D
330
1F
100
AcDbEntity
  8
0
100
AcDbLine
 10
-2.671874999999993
 20
-0.9531249999999982
 30
0.0
 11
-2.671874999999995
 21
-0.4218749999999982
 31
0.0
  0
LINE
  5
24E
330
1F
100
AcDbEntity
  8
0
100
AcDbLine
 10
-3.937500000000001
 20
-9.687499999999998
 30
0.0
 11
-3.937500000000003
 21
-8.937499999999998
 31
0.0
  0
LINE
  5
24F
330
1F
100
AcDbEntity
  8
0
100
AcDbLine
 10
-3.670462913144534
 20
-0.0580904774487383
 30
0.0
 11
-3.657346310392954
 21
-0.0164899283371636
 31
0.0
  0
LINE
  5
250
330
1F
100
AcDbEntity
  8
0
100
AcDbLine
 10
-3.437499999999997
 20
0.2455127018922223
 30
0.0
 11
-3.398809130870347
 21
0.2656538935183264
 31
0.0
  0
LINE
  5
251
330
1F
100
AcDbEntity
  8
0
100
AcDbLine
 10
-4.437499999999999
 20
-1.937499999999998
 30
0.0
 11
-3.937500000000003
 21
-1.937499999999998
 31
0.0
  0
LINE
  5
252
330
1F
100
AcDbEntity
  8
0
100
AcDbLine
 10
-3.937500000000001
 20
-9.687499999999998
 30
0.0
 11
-3.4375
 21
-9.687499999999998
 31
0.0
  0
LINE
  5
253
330
1F
100
AcDbEntity
  8
0
100
AcDbLine
 10
-4.437500000000003
 20
-8.687499999999998
 30
0.0
 11
-4.437499999999999
 21
-1.937499999999998
 31
0.0
  0
LINE
  5
254
330
1F
100
AcDbEntity
  8
0
100
AcDbLine
 10
-3.937500000000003
 20
-8.687499999999998
 30
0.0
 11
-4.437500000000003
 21
-8.687499999999998
 31
0.0
  0
LINE
  5
255
330
1F
100
AcDbEntity
  8
0
100
AcDbLine
 10
2.3125
 20
-2.4375
 30
0.0
 11
-0.9374999999999973
 21
-2.437499999999999
 31
0.0
  0
LINE
  5
256
330
1F
100
AcDbEntity
  8
0
100
AcDbLine
 10
-3.687499999999997
 20
-0.1874999999999982
 30
0.0
 11
-3.687499999999996
 21
-0.4218749999999982
 31
0.0
  0
LINE
  5
257
330
1F
100
AcDbEntity
  8
0
100
AcDbLine
 10
2.810597349045873
 20
-0.1439221286261709
 30
0.0
 11
2.804903876506104
 21
-0.100675911166535
 31
0.0
  0
LINE
  5
258
330
1F
100
AcDbEntity
  8
0
100
AcDbLine
 10
2.356077871373829
 20
0.3105973490458727
 30
0.0
 11
2.3125
 21
0.3125
 31
0.0
  0
LINE
  5
259
330
1F
100
AcDbEntity
  8
0
100
AcDbLine
 10
2.523809130870351
 20
0.2656538935183246
 30
0.0
 11
2.483510071662836
 21
0.2823463103929544
 31
0.0
  0
LINE
  5
25A
330
1F
100
AcDbEntity
  8
0
100
AcDbLine
 10
2.5625
 20
0.2455127018922205
 30
0.0
 11
2.523809130870351
 21
0.2656538935183246
 31
0.0
  0
LINE
  5
25B
330
1F
100
AcDbEntity
  8
0
100
AcDbLine
 10
2.695522221559492
 20
0.1338938048432698
 30
0.0
 11
2.666053390593276
 21
0.1660533905932731
 31
0.0
  0
LINE
  5
25C
330
1F
100
AcDbEntity
  8
0
100
AcDbLine
 10
2.74551270189222
 20
0.0625
 30
0.0
 11
2.722076022144498
 21
0.0992882181755235
 31
0.0
  0
LINE
  5
25D
330
1F
100
AcDbEntity
  8
0
100
AcDbLine
 10
2.8125
 20
-0.1875
 30
0.0
 11
2.810597349045873
 21
-0.1439221286261709
 31
0.0
  0
LINE
  5
25E
330
1F
100
AcDbEntity
  8
0
100
AcDbLine
 10
2.765653893518325
 20
0.0238091308703492
 30
0.0
 11
2.74551270189222
 21
0.0625
 31
0.0
  0
LINE
  5
25F
330
1F
100
AcDbEntity
  8
0
100
AcDbLine
 10
2.782346310392955
 20
-0.0164899283371653
 30
0.0
 11
2.765653893518325
 21
0.0238091308703492
 31
0.0
  0
LINE
  5
260
330
1F
100
AcDbEntity
  8
0
100
AcDbLine
 10
1.796875000000003
 20
-0.953125
 30
0.0
 11
1.796875000000004
 21
-0.421875
 31
0.0
  0
LINE
  5
261
330
1F
100
AcDbEntity
  8
0
100
AcDbLine
 10
2.483510071662836
 20
0.2823463103929544
 30
0.0
 11
2.441909522551261
 21
0.295462913144533
 31
0.0
  0
LINE
  5
262
330
1F
100
AcDbEntity
  8
0
100
AcDbLine
 10
2.795462913144534
 20
-0.0580904774487401
 30
0.0
 11
2.782346310392955
 21
-0.0164899283371653
 31
0.0
  0
LINE
  5
263
330
1F
100
AcDbEntity
  8
0
100
AcDbLine
 10
2.441909522551261
 20
0.295462913144533
 30
0.0
 11
2.399324088833466
 21
0.3049038765061027
 31
0.0
  0
LINE
  5
264
330
1F
100
AcDbEntity
  8
0
100
AcDbLine
 10
2.633893804843272
 20
0.1955222215594894
 30
0.0
 11
2.599288218175526
 21
0.2220760221444955
 31
0.0
  0
LINE
  5
265
330
1F
100
AcDbEntity
  8
0
100
AcDbLine
 10
2.399324088833466
 20
0.3049038765061027
 30
0.0
 11
2.356077871373829
 21
0.3105973490458727
 31
0.0
  0
LINE
  5
266
330
1F
100
AcDbEntity
  8
0
100
AcDbLine
 10
2.3125
 20
0.3125
 30
0.0
 11
-3.187499999999998
 21
0.3125000000000018
 31
0.0
  0
LINE
  5
267
330
1F
100
AcDbEntity
  8
0
100
AcDbLine
 10
2.599288218175526
 20
0.2220760221444955
 30
0.0
 11
2.5625
 21
0.2455127018922205
 31
0.0
  0
LINE
  5
268
330
1F
100
AcDbEntity
  8
0
100
AcDbLine
 10
2.666053390593276
 20
0.1660533905932731
 30
0.0
 11
2.633893804843272
 21
0.1955222215594894
 31
0.0
  0
LINE
  5
269
330
1F
100
AcDbEntity
  8
0
100
AcDbLine
 10
2.812500000000001
 20
-0.421875
 30
0.0
 11
2.8125
 21
-0.1875
 31
0.0
  0
LINE
  5
26A
330
1F
100
AcDbEntity
  8
0
100
AcDbLine
 10
2.812500000000001
 20
-0.953125
 30
0.0
 11
2.046875000000004
 21
-0.953125
 31
0.0
  0
LINE
  5
26B
330
1F
100
AcDbEntity
  8
0
100
AcDbLine
 10
2.722076022144498
 20
0.0992882181755235
 30
0.0
 11
2.695522221559492
 21
0.1338938048432698
 31
0.0
  0
LINE
  5
26C
330
1F
100
AcDbEntity
  8
0
100
AcDbLine
 10
2.804903876506104
 20
-0.100675911166535
 30
0.0
 11
2.795462913144534
 21
-0.0580904774487401
 31
0.0
  0
LINE
  5
26D
330
1F
100
AcDbEntity
  8
0
100
AcDbLine
 10
2.5625
 20
-2.370512701892219
 30
0.0
 11
2.599288218175524
 21
-2.347076022144496
 31
0.0
  0
LINE
  5
26E
330
1F
100
AcDbEntity
  8
0
100
AcDbLine
 10
2.633893804843271
 20
-2.320522221559489
 30
0.0
 11
2.666053390593275
 21
-2.291053390593274
 31
0.0
  0
LINE
  5
26F
330
1F
100
AcDbEntity
  8
0
100
AcDbLine
 10
2.441909522551261
 20
-2.420462913144534
 30
0.0
 11
2.483510071662836
 21
-2.407346310392954
 31
0.0
  0
LINE
  5
270
330
1F
100
AcDbEntity
  8
0
100
AcDbLine
 10
2.810597349045872
 20
-1.981077871373829
 30
0.0
 11
2.812499999999999
 21
-1.9375
 31
0.0
  0
LINE
  5
271
330
1F
100
AcDbEntity
  8
0
100
AcDbLine
 10
2.782346310392955
 20
-2.108510071662835
 30
0.0
 11
2.795462913144533
 21
-2.06690952255126
 31
0.0
  0
LINE
  5
272
330
1F
100
AcDbEntity
  8
0
100
AcDbLine
 10
2.52380913087035
 20
-2.390653893518325
 30
0.0
 11
2.5625
 21
-2.370512701892219
 31
0.0
  0
LINE
  5
273
330
1F
100
AcDbEntity
  8
0
100
AcDbLine
 10
2.399324088833466
 20
-2.429903876506105
 30
0.0
 11
2.441909522551261
 21
-2.420462913144534
 31
0.0
  0
LINE
  5
274
330
1F
100
AcDbEntity
  8
0
100
AcDbLine
 10
2.3125
 20
-2.4375
 30
0.0
 11
2.356077871373828
 21
-2.435597349045873
 31
0.0
  0
LINE
  5
275
330
1F
100
AcDbEntity
  8
0
100
AcDbLine
 10
2.599288218175524
 20
-2.347076022144496
 30
0.0
 11
2.633893804843271
 21
-2.320522221559489
 31
0.0
  0
LINE
  5
276
330
1F
100
AcDbEntity
  8
0
100
AcDbLine
 10
2.722076022144496
 20
-2.224288218175523
 30
0.0
 11
2.745512701892221
 21
-2.1875
 31
0.0
  0
LINE
  5
277
330
1F
100
AcDbEntity
  8
0
100
AcDbLine
 10
2.795462913144533
 20
-2.06690952255126
 30
0.0
 11
2.804903876506103
 21
-2.024324088833465
 31
0.0
  0
LINE
  5
278
330
1F
100
AcDbEntity
  8
0
100
AcDbLine
 10
2.356077871373828
 20
-2.435597349045873
 30
0.0
 11
2.399324088833466
 21
-2.429903876506105
 31
0.0
  0
LINE
  5
279
330
1F
100
AcDbEntity
  8
0
100
AcDbLine
 10
2.483510071662836
 20
-2.407346310392954
 30
0.0
 11
2.52380913087035
 21
-2.390653893518325
 31
0.0
  0
LINE
  5
27A
330
1F
100
AcDbEntity
  8
0
100
AcDbLine
 10
2.812499999999999
 20
-1.9375
 30
0.0
 11
2.812500000000001
 21
-0.953125
 31
0.0
  0
LINE
  5
27B
330
1F
100
AcDbEntity
  8
0
100
AcDbLine
 10
2.745512701892221
 20
-2.1875
 30
0.0
 11
2.765653893518325
 21
-2.148809130870349
 31
0.0
  0
LINE
  5
27C
330
1F
100
AcDbEntity
  8
0
100
AcDbLine
 10
2.765653893518325
 20
-2.148809130870349
 30
0.0
 11
2.782346310392955
 21
-2.108510071662835
 31
0.0
  0
LINE
  5
27D
330
1F
100
AcDbEntity
  8
0
100
AcDbLine
 10
2.804903876506103
 20
-2.024324088833465
 30
0.0
 11
2.810597349045872
 21
-1.981077871373829
 31
0.0
  0
LINE
  5
27E
330
1F
100
AcDbEntity
  8
0
100
AcDbLine
 10
2.69552222155949
 20
-2.25889380484327
 30
0.0
 11
2.722076022144496
 21
-2.224288218175523
 31
0.0
  0
LINE
  5
27F
330
1F
100
AcDbEntity
  8
0
100
AcDbLine
 10
2.666053390593275
 20
-2.291053390593274
 30
0.0
 11
2.69552222155949
 21
-2.25889380484327
 31
0.0
  0
LINE
  5
280
330
1F
100
AcDbEntity
  8
0
100
AcDbLine
 10
0.8281250000000018
 20
-1.453125
 30
0.0
 11
-1.703124999999998
 21
-1.453124999999998
 31
0.0
  0
LINE
  5
281
330
1F
100
AcDbEntity
  8
0
100
AcDbLine
 10
-3.266489928337164
 20
-9.657346310392953
 30
0.0
 11
-3.226190869129648
 21
-9.640653893518325
 31
0.0
  0
LINE
  5
282
330
1F
100
AcDbEntity
  8
0
100
AcDbLine
 10
-3.004487298107783
 20
-9.437499999999998
 30
0.0
 11
-2.984346106481677
 21
-9.398809130870347
 31
0.0
  0
LINE
  5
283
330
1F
100
AcDbEntity
  8
0
100
AcDbLine
 10
-2.945096123493897
 20
-9.274324088833465
 30
0.0
 11
-2.939402650954129
 21
-9.231077871373829
 31
0.0
  0
LINE
  5
284
330
1F
100
AcDbEntity
  8
0
100
AcDbLine
 10
-3.027923977855505
 20
-9.474288218175522
 30
0.0
 11
-3.004487298107783
 21
-9.437499999999998
 31
0.0
  0
LINE
  5
285
330
1F
100
AcDbEntity
  8
0
100
AcDbLine
 10
-2.967653689607047
 20
-9.358510071662831
 30
0.0
 11
-2.954537086855467
 21
-9.316909522551258
 31
0.0
  0
LINE
  5
286
330
1F
100
AcDbEntity
  8
0
100
AcDbLine
 10
-2.984346106481677
 20
-9.398809130870347
 30
0.0
 11
-2.967653689607047
 21
-9.358510071662831
 31
0.0
  0
LINE
  5
287
330
1F
100
AcDbEntity
  8
0
100
AcDbLine
 10
-3.187500000000001
 20
-9.620512701892219
 30
0.0
 11
-3.150711781824477
 21
-9.597076022144496
 31
0.0
  0
LINE
  5
288
330
1F
100
AcDbEntity
  8
0
100
AcDbLine
 10
-2.939402650954129
 20
-9.231077871373829
 30
0.0
 11
-2.9375
 21
-9.1875
 31
0.0
  0
LINE
  5
289
330
1F
100
AcDbEntity
  8
0
100
AcDbLine
 10
-3.054477778440511
 20
-9.508893804843268
 30
0.0
 11
-3.027923977855505
 21
-9.474288218175522
 31
0.0
  0
LINE
  5
28A
330
1F
100
AcDbEntity
  8
0
100
AcDbLine
 10
-3.150711781824477
 20
-9.597076022144496
 30
0.0
 11
-3.116106195156733
 21
-9.570522221559488
 31
0.0
  0
LINE
  5
28B
330
1F
100
AcDbEntity
  8
0
100
AcDbLine
 10
-3.226190869129648
 20
-9.640653893518325
 30
0.0
 11
-3.187500000000001
 21
-9.620512701892219
 31
0.0
  0
LINE
  5
28C
330
1F
100
AcDbEntity
  8
0
100
AcDbLine
 10
-3.308090477448739
 20
-9.670462913144533
 30
0.0
 11
-3.266489928337164
 21
-9.657346310392953
 31
0.0
  0
LINE
  5
28D
330
1F
100
AcDbEntity
  8
0
100
AcDbLine
 10
-3.350675911166532
 20
-9.679903876506103
 30
0.0
 11
-3.308090477448739
 21
-9.670462913144533
 31
0.0
  0
LINE
  5
28E
330
1F
100
AcDbEntity
  8
0
100
AcDbLine
 10
-3.116106195156733
 20
-9.570522221559488
 30
0.0
 11
-3.083946609406728
 21
-9.541053390593273
 31
0.0
  0
LINE
  5
28F
330
1F
100
AcDbEntity
  8
0
100
AcDbLine
 10
-3.083946609406728
 20
-9.541053390593273
 30
0.0
 11
-3.054477778440511
 21
-9.508893804843268
 31
0.0
  0
LINE
  5
290
330
1F
100
AcDbEntity
  8
0
100
AcDbLine
 10
-3.393922128626168
 20
-9.68559734904587
 30
0.0
 11
-3.350675911166532
 21
-9.679903876506103
 31
0.0
  0
LINE
  5
291
330
1F
100
AcDbEntity
  8
0
100
AcDbLine
 10
-2.9375
 20
-9.1875
 30
0.0
 11
-2.937499999999999
 21
-4.437499999999996
 31
0.0
  0
LINE
  5
292
330
1F
100
AcDbEntity
  8
0
100
AcDbLine
 10
-3.4375
 20
-9.687499999999998
 30
0.0
 11
-3.393922128626168
 21
-9.68559734904587
 31
0.0
  0
LINE
  5
293
330
1F
100
AcDbEntity
  8
0
100
AcDbLine
 10
-2.954537086855467
 20
-9.316909522551258
 30
0.0
 11
-2.945096123493897
 21
-9.274324088833465
 31
0.0
  0
LINE
  5
294
330
1F
100
AcDbEntity
  8
0
100
AcDbLine
 10
-3.937500000000003
 20
-1.687499999999998
 30
0.0
 11
-3.905147619362185
 21
-1.691759271713865
 31
0.0
  0
LINE
  5
295
330
1F
100
AcDbEntity
  8
0
100
AcDbLine
 10
-3.905147619362185
 20
-1.691759271713865
 30
0.0
 11
-3.875000000000003
 21
-1.704246824526944
 31
0.0
  0
LINE
  5
296
330
1F
100
AcDbEntity
  8
0
100
AcDbLine
 10
-3.875000000000003
 20
-1.704246824526944
 30
0.0
 11
-3.849111652351684
 21
-1.724111652351679
 31
0.0
  0
LINE
  5
297
330
1F
100
AcDbEntity
  8
0
100
AcDbLine
 10
-3.849111652351684
 20
-1.724111652351679
 30
0.0
 11
-3.829246824526947
 21
-1.749999999999998
 31
0.0
  0
LINE
  5
298
330
1F
100
AcDbEntity
  8
0
100
AcDbLine
 10
-3.829246824526947
 20
-1.749999999999998
 30
0.0
 11
-3.816759271713869
 21
-1.780147619362182
 31
0.0
  0
LINE
  5
299
330
1F
100
AcDbEntity
  8
0
100
AcDbLine
 10
-3.816759271713869
 20
-1.780147619362182
 30
0.0
 11
-3.812500000000001
 21
-1.812499999999998
 31
0.0
  0
LINE
  5
29A
330
1F
100
AcDbEntity
  8
0
100
AcDbLine
 10
-3.812500000000001
 20
-1.812499999999998
 30
0.0
 11
-3.816759271713869
 21
-1.844852380637812
 31
0.0
  0
LINE
  5
29B
330
1F
100
AcDbEntity
  8
0
100
AcDbLine
 10
-3.816759271713869
 20
-1.844852380637812
 30
0.0
 11
-3.829246824526947
 21
-1.874999999999998
 31
0.0
  0
LINE
  5
29C
330
1F
100
AcDbEntity
  8
0
100
AcDbLine
 10
-3.829246824526947
 20
-1.874999999999998
 30
0.0
 11
-3.849111652351684
 21
-1.900888347648316
 31
0.0
  0
LINE
  5
29D
330
1F
100
AcDbEntity
  8
0
100
AcDbLine
 10
-3.849111652351684
 20
-1.900888347648316
 30
0.0
 11
-3.875000000000003
 21
-1.920753175473052
 31
0.0
  0
LINE
  5
29E
330
1F
100
AcDbEntity
  8
0
100
AcDbLine
 10
-3.875000000000003
 20
-1.920753175473052
 30
0.0
 11
-3.905147619362185
 21
-1.933240728286131
 31
0.0
  0
LINE
  5
29F
330
1F
100
AcDbEntity
  8
0
100
AcDbLine
 10
-3.905147619362185
 20
-1.933240728286131
 30
0.0
 11
-3.937500000000003
 21
-1.937499999999998
 31
0.0
  0
LINE
  5
2A0
330
1F
100
AcDbEntity
  8
0
100
AcDbLine
 10
-3.937500000000003
 20
-1.687499999999998
 30
0.0
 11
-3.937499999999996
 21
-0.9531249999999982
 31
0.0
  0
LINE
  5
2A1
330
1F
100
AcDbEntity
  8
0
100
AcDbLine
 10
-3.937500000000003
 20
-8.687499999999998
 30
0.0
 11
-3.905147619362185
 21
-8.691759271713865
 31
0.0
  0
LINE
  5
2A2
330
1F
100
AcDbEntity
  8
0
100
AcDbLine
 10
-3.905147619362185
 20
-8.691759271713865
 30
0.0
 11
-3.875000000000003
 21
-8.704246824526944
 31
0.0
  0
LINE
  5
2A3
330
1F
100
AcDbEntity
  8
0
100
AcDbLine
 10
-3.875000000000003
 20
-8.704246824526944
 30
0.0
 11
-3.849111652351684
 21
-8.72411165235168
 31
0.0
  0
LINE
  5
2A4
330
1F
100
AcDbEntity
  8
0
100
AcDbLine
 10
-3.849111652351684
 20
-8.72411165235168
 30
0.0
 11
-3.829246824526947
 21
-8.749999999999998
 31
0.0
  0
LINE
  5
2A5
330
1F
100
AcDbEntity
  8
0
100
AcDbLine
 10
-3.829246824526947
 20
-8.749999999999998
 30
0.0
 11
-3.816759271713869
 21
-8.780147619362184
 31
0.0
  0
LINE
  5
2A6
330
1F
100
AcDbEntity
  8
0
100
AcDbLine
 10
-3.816759271713869
 20
-8.780147619362184
 30
0.0
 11
-3.812500000000001
 21
-8.812499999999998
 31
0.0
  0
LINE
  5
2A7
330
1F
100
AcDbEntity
  8
0
100
AcDbLine
 10
-3.812500000000001
 20
-8.812499999999998
 30
0.0
 11
-3.816759271713869
 21
-8.844852380637814
 31
0.0
  0
LINE
  5
2A8
330
1F
100
AcDbEntity
  8
0
100
AcDbLine
 10
-3.816759271713869
 20
-8.844852380637814
 30
0.0
 11
-3.829246824526947
 21
-8.874999999999998
 31
0.0
  0
LINE
  5
2A9
330
1F
100
AcDbEntity
  8
0
100
AcDbLine
 10
-3.829246824526947
 20
-8.874999999999998
 30
0.0
 11
-3.849111652351684
 21
-8.900888347648317
 31
0.0
  0
LINE
  5
2AA
330
1F
100
AcDbEntity
  8
0
100
AcDbLine
 10
-3.849111652351684
 20
-8.900888347648317
 30
0.0
 11
-3.875000000000003
 21
-8.920753175473054
 31
0.0
  0
LINE
  5
2AB
330
1F
100
AcDbEntity
  8
0
100
AcDbLine
 10
-3.875000000000003
 20
-8.920753175473054
 30
0.0
 11
-3.905147619362185
 21
-8.933240728286131
 31
0.0
  0
LINE
  5
2AC
330
1F
100
AcDbEntity
  8
0
100
AcDbLine
 10
-3.905147619362185
 20
-8.933240728286131
 30
0.0
 11
-3.937500000000003
 21
-8.937499999999998
 31
0.0
  0
LINE
  5
2AD
330
1F
100
AcDbEntity
  8
0
100
AcDbLine
 10
-2.671874999999993
 20
-0.9531249999999982
 30
0.0
 11
-2.67613427171386
 21
-0.9854773806378123
 31
0.0
  0
LINE
  5
2AE
330
1F
100
AcDbEntity
  8
0
100
AcDbLine
 10
-2.67613427171386
 20
-0.9854773806378123
 30
0.0
 11
-2.68862182452694
 21
-1.015624999999998
 31
0.0
  0
LINE
  5
2AF
330
1F
100
AcDbEntity
  8
0
100
AcDbLine
 10
-2.68862182452694
 20
-1.015624999999998
 30
0.0
 11
-2.708486652351676
 21
-1.041513347648316
 31
0.0
  0
LINE
  5
2B0
330
1F
100
AcDbEntity
  8
0
100
AcDbLine
 10
-2.708486652351676
 20
-1.041513347648316
 30
0.0
 11
-2.734374999999996
 21
-1.061378175473052
 31
0.0
  0
LINE
  5
2B1
330
1F
100
AcDbEntity
  8
0
100
AcDbLine
 10
-2.734374999999996
 20
-1.061378175473052
 30
0.0
 11
-2.76452261936218
 21
-1.073865728286131
 31
0.0
  0
LINE
  5
2B2
330
1F
100
AcDbEntity
  8
0
100
AcDbLine
 10
-2.76452261936218
 20
-1.073865728286131
 30
0.0
 11
-2.796874999999996
 21
-1.078124999999998
 31
0.0
  0
LINE
  5
2B3
330
1F
100
AcDbEntity
  8
0
100
AcDbLine
 10
-2.796874999999996
 20
-1.078124999999998
 30
0.0
 11
-2.82922738063781
 21
-1.073865728286131
 31
0.0
  0
LINE
  5
2B4
330
1F
100
AcDbEntity
  8
0
100
AcDbLine
 10
-2.82922738063781
 20
-1.073865728286131
 30
0.0
 11
-2.859374999999996
 21
-1.061378175473052
 31
0.0
  0
LINE
  5
2B5
330
1F
100
AcDbEntity
  8
0
100
AcDbLine
 10
-2.859374999999996
 20
-1.061378175473052
 30
0.0
 11
-2.885263347648313
 21
-1.041513347648316
 31
0.0
  0
LINE
  5
2B6
330
1F
100
AcDbEntity
  8
0
100
AcDbLine
 10
-2.885263347648313
 20
-1.041513347648316
 30
0.0
 11
-2.90512817547305
 21
-1.015624999999998
 31
0.0
  0
LINE
  5
2B7
330
1F
100
AcDbEntity
  8
0
100
AcDbLine
 10
-2.90512817547305
 20
-1.015624999999998
 30
0.0
 11
-2.917615728286128
 21
-0.9854773806378123
 31
0.0
  0
LINE
  5
2B8
330
1F
100
AcDbEntity
  8
0
100
AcDbLine
 10
-2.917615728286128
 20
-0.9854773806378123
 30
0.0
 11
-2.921874999999995
 21
-0.9531249999999982
 31
0.0
  0
LINE
  5
2B9
330
1F
100
AcDbEntity
  8
0
100
AcDbLine
 10
-2.921874999999995
 20
-0.4218749999999982
 30
0.0
 11
-2.917615728286128
 21
-0.3895226193621841
 31
0.0
  0
LINE
  5
2BA
330
1F
100
AcDbEntity
  8
0
100
AcDbLine
 10
-2.917615728286128
 20
-0.3895226193621841
 30
0.0
 11
-2.905128175473049
 21
-0.3593749999999982
 31
0.0
  0
LINE
  5
2BB
330
1F
100
AcDbEntity
  8
0
100
AcDbLine
 10
-2.905128175473049
 20
-0.3593749999999982
 30
0.0
 11
-2.885263347648312
 21
-0.3334866523516791
 31
0.0
  0
LINE
  5
2BC
330
1F
100
AcDbEntity
  8
0
100
AcDbLine
 10
-2.885263347648312
 20
-0.3334866523516791
 30
0.0
 11
-2.859374999999995
 21
-0.3136218245269422
 31
0.0
  0
LINE
  5
2BD
330
1F
100
AcDbEntity
  8
0
100
AcDbLine
 10
-2.859374999999995
 20
-0.3136218245269422
 30
0.0
 11
-2.82922738063781
 21
-0.301134271713865
 31
0.0
  0
LINE
  5
2BE
330
1F
100
AcDbEntity
  8
0
100
AcDbLine
 10
-2.82922738063781
 20
-0.301134271713865
 30
0.0
 11
-2.796874999999995
 21
-0.2968749999999982
 31
0.0
  0
LINE
  5
2BF
330
1F
100
AcDbEntity
  8
0
100
AcDbLine
 10
-2.796874999999995
 20
-0.2968749999999982
 30
0.0
 11
-2.76452261936218
 21
-0.301134271713865
 31
0.0
  0
LINE
  5
2C0
330
1F
100
AcDbEntity
  8
0
100
AcDbLine
 10
-2.76452261936218
 20
-0.301134271713865
 30
0.0
 11
-2.734374999999995
 21
-0.3136218245269422
 31
0.0
  0
LINE
  5
2C1
330
1F
100
AcDbEntity
  8
0
100
AcDbLine
 10
-2.734374999999995
 20
-0.3136218245269422
 30
0.0
 11
-2.708486652351676
 21
-0.3334866523516791
 31
0.0
  0
LINE
  5
2C2
330
1F
100
AcDbEntity
  8
0
100
AcDbLine
 10
-2.708486652351676
 20
-0.3334866523516791
 30
0.0
 11
-2.68862182452694
 21
-0.3593749999999982
 31
0.0
  0
LINE
  5
2C3
330
1F
100
AcDbEntity
  8
0
100
AcDbLine
 10
-2.68862182452694
 20
-0.3593749999999982
 30
0.0
 11
-2.676134271713861
 21
-0.3895226193621841
 31
0.0
  0
LINE
  5
2C4
330
1F
100
AcDbEntity
  8
0
100
AcDbLine
 10
-2.676134271713861
 20
-0.3895226193621841
 30
0.0
 11
-2.671874999999995
 21
-0.4218749999999982
 31
0.0
  0
LINE
  5
2C5
330
1F
100
AcDbEntity
  8
0
100
AcDbLine
 10
-2.921874999999995
 20
-0.4218749999999982
 30
0.0
 11
-3.687499999999996
 21
-0.4218749999999982
 31
0.0
  0
LINE
  5
2C6
330
1F
100
AcDbEntity
  8
0
100
AcDbLine
 10
1.796875000000004
 20
-0.421875
 30
0.0
 11
1.80113427171387
 21
-0.3895226193621859
 31
0.0
  0
LINE
  5
2C7
330
1F
100
AcDbEntity
  8
0
100
AcDbLine
 10
1.80113427171387
 20
-0.3895226193621859
 30
0.0
 11
1.813621824526949
 21
-0.359375
 31
0.0
  0
LINE
  5
2C8
330
1F
100
AcDbEntity
  8
0
100
AcDbLine
 10
1.813621824526949
 20
-0.359375
 30
0.0
 11
1.833486652351685
 21
-0.3334866523516808
 31
0.0
  0
LINE
  5
2C9
330
1F
100
AcDbEntity
  8
0
100
AcDbLine
 10
1.833486652351685
 20
-0.3334866523516808
 30
0.0
 11
1.859375000000002
 21
-0.313621824526944
 31
0.0
  0
LINE
  5
2CA
330
1F
100
AcDbEntity
  8
0
100
AcDbLine
 10
1.859375000000002
 20
-0.313621824526944
 30
0.0
 11
1.889522619362187
 21
-0.3011342717138668
 31
0.0
  0
LINE
  5
2CB
330
1F
100
AcDbEntity
  8
0
100
AcDbLine
 10
1.889522619362187
 20
-0.3011342717138668
 30
0.0
 11
1.921875000000002
 21
-0.296875
 31
0.0
  0
LINE
  5
2CC
330
1F
100
AcDbEntity
  8
0
100
AcDbLine
 10
1.921875000000002
 20
-0.296875
 30
0.0
 11
1.954227380637817
 21
-0.3011342717138668
 31
0.0
  0
LINE
  5
2CD
330
1F
100
AcDbEntity
  8
0
100
AcDbLine
 10
1.954227380637817
 20
-0.3011342717138668
 30
0.0
 11
1.984375000000002
 21
-0.313621824526944
 31
0.0
  0
LINE
  5
2CE
330
1F
100
AcDbEntity
  8
0
100
AcDbLine
 10
1.984375000000002
 20
-0.313621824526944
 30
0.0
 11
2.010263347648321
 21
-0.3334866523516808
 31
0.0
  0
LINE
  5
2CF
330
1F
100
AcDbEntity
  8
0
100
AcDbLine
 10
2.010263347648321
 20
-0.3334866523516808
 30
0.0
 11
2.030128175473058
 21
-0.359375
 31
0.0
  0
LINE
  5
2D0
330
1F
100
AcDbEntity
  8
0
100
AcDbLine
 10
2.030128175473058
 20
-0.359375
 30
0.0
 11
2.042615728286137
 21
-0.3895226193621859
 31
0.0
  0
LINE
  5
2D1
330
1F
100
AcDbEntity
  8
0
100
AcDbLine
 10
2.042615728286137
 20
-0.3895226193621859
 30
0.0
 11
2.046875000000004
 21
-0.421875
 31
0.0
  0
LINE
  5
2D2
330
1F
100
AcDbEntity
  8
0
100
AcDbLine
 10
2.046875000000004
 20
-0.421875
 30
0.0
 11
2.812500000000001
 21
-0.421875
 31
0.0
  0
LINE
  5
2D3
330
1F
100
AcDbEntity
  8
0
100
AcDbLine
 10
2.046875000000004
 20
-0.953125
 30
0.0
 11
2.042615728286138
 21
-0.9854773806378141
 31
0.0
  0
LINE
  5
2D4
330
1F
100
AcDbEntity
  8
0
100
AcDbLine
 10
2.042615728286138
 20
-0.9854773806378141
 30
0.0
 11
2.030128175473059
 21
-1.015625
 31
0.0
  0
LINE
  5
2D5
330
1F
100
AcDbEntity
  8
0
100
AcDbLine
 10
2.030128175473059
 20
-1.015625
 30
0.0
 11
2.010263347648322
 21
-1.041513347648319
 31
0.0
  0
LINE
  5
2D6
330
1F
100
AcDbEntity
  8
0
100
AcDbLine
 10
2.010263347648322
 20
-1.041513347648319
 30
0.0
 11
1.984375000000004
 21
-1.061378175473056
 31
0.0
  0
LINE
  5
2D7
330
1F
100
AcDbEntity
  8
0
100
AcDbLine
 10
1.984375000000004
 20
-1.061378175473056
 30
0.0
 11
1.954227380637819
 21
-1.073865728286133
 31
0.0
  0
LINE
  5
2D8
330
1F
100
AcDbEntity
  8
0
100
AcDbLine
 10
1.954227380637819
 20
-1.073865728286133
 30
0.0
 11
1.921875000000004
 21
-1.078125
 31
0.0
  0
LINE
  5
2D9
330
1F
100
AcDbEntity
  8
0
100
AcDbLine
 10
1.921875000000004
 20
-1.078125
 30
0.0
 11
1.889522619362189
 21
-1.073865728286133
 31
0.0
  0
LINE
  5
2DA
330
1F
100
AcDbEntity
  8
0
100
AcDbLine
 10
1.889522619362189
 20
-1.073865728286133
 30
0.0
 11
1.859375000000004
 21
-1.061378175473056
 31
0.0
  0
LINE
  5
2DB
330
1F
100
AcDbEntity
  8
0
100
AcDbLine
 10
1.859375000000004
 20
-1.061378175473056
 30
0.0
 11
1.833486652351685
 21
-1.041513347648319
 31
0.0
  0
LINE
  5
2DC
330
1F
100
AcDbEntity
  8
0
100
AcDbLine
 10
1.833486652351685
 20
-1.041513347648319
 30
0.0
 11
1.813621824526948
 21
-1.015625
 31
0.0
  0
LINE
  5
2DD
330
1F
100
AcDbEntity
  8
0
100
AcDbLine
 10
1.813621824526948
 20
-1.015625
 30
0.0
 11
1.801134271713869
 21
-0.9854773806378159
 31
0.0
  0
LINE
  5
2DE
330
1F
100
AcDbEntity
  8
0
100
AcDbLine
 10
1.801134271713869
 20
-0.9854773806378159
 30
0.0
 11
1.796875000000003
 21
-0.953125
 31
0.0
  0
LINE
  5
2DF
330
1F
100
AcDbEntity
  8
0
100
AcDbLine
 10
0.828125
 20
-0.921875
 30
0.0
 11
-1.703124999999995
 21
-0.9218749999999982
 31
0.0
  0
LINE
  5
2E0
330
1F
100
AcDbEntity
  8
0
100
AcDbLine
 10
0.828125
 20
-0.921875
 30
0.0
 11
0.8968738088553572
 21
-0.9309259523919664
 31
0.0
  0
LINE
  5
2E1
330
1F
100
AcDbEntity
  8
0
100
AcDbLine
 10
0.8968738088553572
 20
-0.9309259523919664
 30
0.0
 11
0.9609375000000002
 21
-0.9574620021197582
 31
0.0
  0
LINE
  5
2E2
330
1F
100
AcDbEntity
  8
0
100
AcDbLine
 10
0.9609375000000002
 20
-0.9574620021197582
 30
0.0
 11
1.015950238752677
 21
-0.9996747612473236
 31
0.0
  0
LINE
  5
2E3
330
1F
100
AcDbEntity
  8
0
100
AcDbLine
 10
1.015950238752677
 20
-0.9996747612473236
 30
0.0
 11
1.058162997880242
 21
-1.0546875
 31
0.0
  0
LINE
  5
2E4
330
1F
100
AcDbEntity
  8
0
100
AcDbLine
 10
1.058162997880242
 20
-1.0546875
 30
0.0
 11
1.084699047608035
 21
-1.118751191144643
 31
0.0
  0
LINE
  5
2E5
330
1F
100
AcDbEntity
  8
0
100
AcDbLine
 10
1.084699047608035
 20
-1.118751191144643
 30
0.0
 11
1.093750000000001
 21
-1.1875
 31
0.0
  0
LINE
  5
2E6
330
1F
100
AcDbEntity
  8
0
100
AcDbLine
 10
1.093750000000001
 20
-1.1875
 30
0.0
 11
1.084699047608035
 21
-1.256248808855357
 31
0.0
  0
LINE
  5
2E7
330
1F
100
AcDbEntity
  8
0
100
AcDbLine
 10
1.084699047608035
 20
-1.256248808855357
 30
0.0
 11
1.058162997880243
 21
-1.3203125
 31
0.0
  0
LINE
  5
2E8
330
1F
100
AcDbEntity
  8
0
100
AcDbLine
 10
1.058162997880243
 20
-1.3203125
 30
0.0
 11
1.015950238752679
 21
-1.375325238752676
 31
0.0
  0
LINE
  5
2E9
330
1F
100
AcDbEntity
  8
0
100
AcDbLine
 10
1.015950238752679
 20
-1.375325238752676
 30
0.0
 11
0.9609375000000022
 21
-1.417537997880242
 31
0.0
  0
LINE
  5
2EA
330
1F
100
AcDbEntity
  8
0
100
AcDbLine
 10
0.9609375000000022
 20
-1.417537997880242
 30
0.0
 11
0.8968738088553592
 21
-1.444074047608034
 31
0.0
  0
LINE
  5
2EB
330
1F
100
AcDbEntity
  8
0
100
AcDbLine
 10
0.8968738088553592
 20
-1.444074047608034
 30
0.0
 11
0.8281250000000018
 21
-1.453125
 31
0.0
  0
LINE
  5
2EC
330
1F
100
AcDbEntity
  8
0
100
AcDbLine
 10
-1.703124999999998
 20
-1.453124999999998
 30
0.0
 11
-1.771873808855355
 21
-1.444074047608032
 31
0.0
  0
LINE
  5
2ED
330
1F
100
AcDbEntity
  8
0
100
AcDbLine
 10
-1.771873808855355
 20
-1.444074047608032
 30
0.0
 11
-1.835937499999998
 21
-1.417537997880238
 31
0.0
  0
LINE
  5
2EE
330
1F
100
AcDbEntity
  8
0
100
AcDbLine
 10
-1.835937499999998
 20
-1.417537997880238
 30
0.0
 11
-1.890950238752675
 21
-1.375325238752673
 31
0.0
  0
LINE
  5
2EF
330
1F
100
AcDbEntity
  8
0
100
AcDbLine
 10
-1.890950238752675
 20
-1.375325238752673
 30
0.0
 11
-1.933162997880239
 21
-1.320312499999996
 31
0.0
  0
LINE
  5
2F0
330
1F
100
AcDbEntity
  8
0
100
AcDbLine
 10
-1.933162997880239
 20
-1.320312499999996
 30
0.0
 11
-1.959699047608031
 21
-1.256248808855354
 31
0.0
  0
LINE
  5
2F1
330
1F
100
AcDbEntity
  8
0
100
AcDbLine
 10
-1.959699047608031
 20
-1.256248808855354
 30
0.0
 11
-1.968749999999997
 21
-1.187499999999996
 31
0.0
  0
LINE
  5
2F2
330
1F
100
AcDbEntity
  8
0
100
AcDbLine
 10
-1.968749999999997
 20
-1.187499999999996
 30
0.0
 11
-1.95969904760803
 21
-1.118751191144639
 31
0.0
  0
LINE
  5
2F3
330
1F
100
AcDbEntity
  8
0
100
AcDbLine
 10
-1.95969904760803
 20
-1.118751191144639
 30
0.0
 11
-1.933162997880237
 21
-1.054687499999996
 31
0.0
  0
LINE
  5
2F4
330
1F
100
AcDbEntity
  8
0
100
AcDbLine
 10
-1.933162997880237
 20
-1.054687499999996
 30
0.0
 11
-1.890950238752672
 21
-0.99967476124732
 31
0.0
  0
LINE
  5
2F5
330
1F
100
AcDbEntity
  8
0
100
AcDbLine
 10
-1.890950238752672
 20
-0.99967476124732
 30
0.0
 11
-1.835937499999995
 21
-0.9574620021197564
 31
0.0
  0
LINE
  5
2F6
330
1F
100
AcDbEntity
  8
0
100
AcDbLine
 10
-1.835937499999995
 20
-0.9574620021197564
 30
0.0
 11
-1.771873808855352
 21
-0.9309259523919646
 31
0.0
  0
LINE
  5
2F7
330
1F
100
AcDbEntity
  8
0
100
AcDbLine
 10
-1.771873808855352
 20
-0.9309259523919646
 30
0.0
 11
-1.703124999999995
 21
-0.9218749999999982
 31
0.0
  0
ENDSEC
  0
SECTION
  2
OBJECTS
  0
DICTIONARY
  5
C
330
0
100
AcDbDictionary
  3
ACAD_GROUP
350
D
  3
ACAD_LAYOUT
350
1A
  3
ACAD_MATERIAL
350
43
  3
ACAD_MLEADERSTYLE
350
31A
  3
ACAD_MLINESTYLE
350
17
  3
ACAD_PLOTSETTINGS
350
19
  3
ACAD_SCALELIST
350
47
  3
ACAD_VISUALSTYLE
350
2A
  3
ACDBHEADERROUNDTRIPXREC
350
2F8
  3
ACDBVARIABLEDICTIONARY
350
318
  0
DICTIONARY
  5
31F
330
8
100
AcDbDictionary
280
     1
  3
ACAD_XREC_ROUNDTRIP
360
320
  0
DICTIONARY
  5
D
102
{ACAD_REACTORS
330
C
102
}
330
C
100
AcDbDictionary
  0
DICTIONARY
  5
1A
102
{ACAD_REACTORS
330
C
102
}
330
C
100
AcDbDictionary
  0
DICTIONARY
  5
43
102
{ACAD_REACTORS
330
C
102
}
330
C
100
AcDbDictionary
  3
BYBLOCK
350
45
  3
BYLAYER
350
44
  3
GLOBAL
350
46
  0
DICTIONARY
  5
31A
102
{ACAD_REACTORS
330
C
102
}
330
C
100
AcDbDictionary
  0
DICTIONARY
  5
17
102
{ACAD_REACTORS
330
C
102
}
330
C
100
AcDbDictionary
  3
STANDARD
350
18
  0
DICTIONARY
  5
19
102
{ACAD_REACTORS
330
C
102
}
330
C
100
AcDbDictionary
  0
DICTIONARY
  5
47
102
{ACAD_REACTORS
330
C
102
}
330
C
100
AcDbDictionary
  3
A0
350
48
  3
A1
350
49
  3
A2
350
4A
  3
A3
350
4B
  3
A4
350
4C
  3
A5
350
4D
  3
A6
350
4E
  3
A7
350
4F
  3
A8
350
50
  3
A9
350
51
  3
B0
350
52
  3
B1
350
53
  3
B2
350
54
  3
B3
350
55
  3
B4
350
56
  3
B5
350
57
  3
B6
350
58
  3
B7
350
59
  3
B8
350
5A
  3
B9
350
5B
  3
C0
350
5C
  3
C1
350
5D
  3
C2
350
5E
  3
C3
350
5F
  3
C4
350
60
  3
C5
350
61
  3
C6
350
62
  3
C7
350
63
  3
C8
350
64
  3
C9
350
65
  3
D0
350
66
  3
D1
350
67
  3
D2
350
68
  0
DICTIONARY
  5
2A
102
{ACAD_REACTORS
330
C
102
}
330
C
100
AcDbDictionary
  3
2DWIREFRAME
350
2F
  3
BASIC
350
32
  3
BRIGHTEN
350
36
  3
COLORCHANGE
350
3A
  3
CONCEPTUAL
350
34
  3
DIM
350
35
  3
EDGECOLOROFF
350
3D
  3
FACEPATTERN
350
39
  3
FLAT
350
2B
  3
FLATWITHEDGES
350
2C
  3
GOURAUD
350
2D
  3
GOURAUDWITHEDGES
350
2E
  3
HIDDEN
350
31
  3
JITTEROFF
350
3B
  3
LINEPATTERN
350
38
  3
OVERHANGOFF
350
3C
  3
REALISTIC
350
33
  3
SHADED
350
42
  3
SHADED_WITH_EDGES
350
41
  3
SHADES_OF_GRAY
350
3E
  3
SKETCHY
350
3F
  3
THICKEN
350
37
  3
WIREFRAME
350
30
  3
X-RAY
350
40
  0
DICTIONARY
  5
2F8
102
{ACAD_REACTORS
330
C
102
}
330
C
100
AcDbDictionary
  3
CEPSNTYPE
350
301
  3
DIMSTYLEDATA
350
317
  3
FINGERPRINTGUID
350
302
  3
HYPERLINKBASE
350
2FB
  3
INSUNITS
350
300
  3
LAYOUTDICT
350
2FD
  3
LWETCUNION
350
2FF
  3
PLOTSETDICT
350
2FE
  3
PSVPSCALE
350
304
  3
PUCSBASE
350
307
  3
PUCSORGBACK
350
30D
  3
PUCSORGBOTTOM
350
309
  3
PUCSORGFRONT
350
30C
  3
PUCSORGLEFT
350
30A
  3
PUCSORGRIGHT
350
30B
  3
PUCSORGTOP
350
308
  3
PUCSORTHOREF
350
305
  3
PUCSORTHOVIEW
350
306
  3
STYLESHEET
350
2FC
  3
TSTACKALIGN
350
2F9
  3
TSTACKSIZE
350
2FA
  3
UCSBASE
350
310
  3
UCSORGBACK
350
316
  3
UCSORGBOTTOM
350
312
  3
UCSORGFRONT
350
315
  3
UCSORGLEFT
350
313
  3
UCSORGRIGHT
350
314
  3
UCSORGTOP
350
311
  3
UCSORTHOREF
350
30E
  3
UCSORTHOVIEW
350
30F
  3
VERSIONGUID
350
303
  0
DICTIONARY
  5
318
102
{ACAD_REACTORS
330
C
102
}
330
C
100
AcDbDictionary
  3
CANNOSCALE
350
321
  3
DIMASSOC
350
31D
  3
HIDETEXT
350
31E
  3
MSLTSCALE
350
322
  0
XRECORD
  5
320
102
{ACAD_REACTORS
330
31F
102
}
330
31F
100
AcDbXrecord
102
VTR_0.000_0.000_1.000_1.000_GRIDDISPLAY
 70
     3
102
VTR_0.000_0.000_1.000_1.000_GRIDMAJOR
 70
     5
102
VTR_0.000_0.000_1.000_1.000_DEFAULTLIGHTING
280
     1
102
VTR_0.000_0.000_1.000_1.000_DEFAULTLIGHTINGTYPE
 70
     1
102
VTR_0.000_0.000_1.000_1.000_BRIGHTNESS
141
0.0
102
VTR_0.000_0.000_1.000_1.000_CONTRAST
142
0.0
  0
MATERIAL
  5
45
102
{ACAD_REACTORS
330
43
102
}
102
{ACAD_XDICTIONARY
360
325
102
}
330
43
100
AcDbMaterial
  1
BYBLOCK
  0
MATERIAL
  5
44
102
{ACAD_REACTORS
330
43
102
}
102
{ACAD_XDICTIONARY
360
323
102
}
330
43
100
AcDbMaterial
  1
BYLAYER
  0
MATERIAL
  5
46
102
{ACAD_REACTORS
330
43
102
}
102
{ACAD_XDICTIONARY
360
327
102
}
330
43
100
AcDbMaterial
  1
GLOBAL
  0
MLINESTYLE
  5
18
102
{ACAD_REACTORS
330
17
102
}
330
17
100
AcDbMlineStyle
  2
Standard
 70
     0
  3

 62
   256
 51
90.0
 52
90.0
 71
     2
 49
0.5
 62
   256
  6
BYLAYER
 49
-0.5
 62
   256
  6
BYLAYER
  0
ACAD_PROXY_OBJECT
  5
48
102
{ACAD_REACTORS
330
47
102
}
330
47
100
AcDbProxyObject
 90
      499
 91
      503
 93
       41
310
903313A31580
  0
ACAD_PROXY_OBJECT
  5
49
102
{ACAD_REACTORS
330
47
102
}
330
47
100
AcDbProxyObject
 90
      499
 91
      503
 93
      105
310
903313A324000000000000004000
  0
ACAD_PROXY_OBJECT
  5
4A
102
{ACAD_REACTORS
330
47
102
}
330
47
100
AcDbProxyObject
 90
      499
 91
      503
 93
      105
310
903313A344000000000000104000
  0
ACAD_PROXY_OBJECT
  5
4B
102
{ACAD_REACTORS
330
47
102
}
330
47
100
AcDbProxyObject
 90
      499
 91
      503
 93
      105
310
903313A354000000000000144000
  0
ACAD_PROXY_OBJECT
  5
4C
102
{ACAD_REACTORS
330
47
102
}
330
47
100
AcDbProxyObject
 90
      499
 91
      503
 93
      105
310
903313A384000000000000204000
  0
ACAD_PROXY_OBJECT
  5
4D
102
{ACAD_REACTORS
330
47
102
}
330
47
100
AcDbProxyObject
 90
      499
 91
      503
 93
      113
310
904313A31304000000000000244000
  0
ACAD_PROXY_OBJECT
  5
4E
102
{ACAD_REACTORS
330
47
102
}
330
47
100
AcDbProxyObject
 90
      499
 91
      503
 93
      113
310
904313A31364000000000000304000
  0
ACAD_PROXY_OBJECT
  5
4F
102
{ACAD_REACTORS
330
47
102
}
330
47
100
AcDbProxyObject
 90
      499
 91
      503
 93
      113
310
904313A32304000000000000344000
  0
ACAD_PROXY_OBJECT
  5
50
102
{ACAD_REACTORS
330
47
102
}
330
47
100
AcDbProxyObject
 90
      499
 91
      503
 93
      113
310
904313A333040000000000003E4000
  0
ACAD_PROXY_OBJECT
  5
51
102
{ACAD_REACTORS
330
47
102
}
330
47
100
AcDbProxyObject
 90
      499
 91
      503
 93
      113
310
904313A34304000000000000444000
  0
ACAD_PROXY_OBJECT
  5
52
102
{ACAD_REACTORS
330
47
102
}
330
47
100
AcDbProxyObject
 90
      499
 91
      503
 93
      113
310
904313A35304000000000000494000
  0
ACAD_PROXY_OBJECT
  5
53
102
{ACAD_REACTORS
330
47
102
}
330
47
100
AcDbProxyObject
 90
      499
 91
      503
 93
      121
310
905313A3130304000000000000594000
  0
ACAD_PROXY_OBJECT
  5
54
102
{ACAD_REACTORS
330
47
102
}
330
47
100
AcDbProxyObject
 90
      499
 91
      503
 93
      105
310
903323A310000000000000010100
  0
ACAD_PROXY_OBJECT
  5
55
102
{ACAD_REACTORS
330
47
102
}
330
47
100
AcDbProxyObject
 90
      499
 91
      503
 93
      105
310
903343A310000000000000410100
  0
ACAD_PROXY_OBJECT
  5
56
102
{ACAD_REACTORS
330
47
102
}
330
47
100
AcDbProxyObject
 90
      499
 91
      503
 93
      105
310
903383A310000000000000810100
  0
ACAD_PROXY_OBJECT
  5
57
102
{ACAD_REACTORS
330
47
102
}
330
47
100
AcDbProxyObject
 90
      499
 91
      503
 93
      113
310
90431303A310000000000000910100
  0
ACAD_PROXY_OBJECT
  5
58
102
{ACAD_REACTORS
330
47
102
}
330
47
100
AcDbProxyObject
 90
      499
 91
      503
 93
      121
310
9053130303A310000000000001650100
  0
ACAD_PROXY_OBJECT
  5
59
102
{ACAD_REACTORS
330
47
102
}
330
47
100
AcDbProxyObject
 90
      499
 91
      503
 93
      257
310
90E312F31323822203D2031272D3022000000000000200FC000000000000284000
  0
ACAD_PROXY_OBJECT
  5
5A
102
{ACAD_REACTORS
330
47
102
}
330
47
100
AcDbProxyObject
 90
      499
 91
      503
 93
      249
310
90D312F363422203D2031272D3022000000000000240FC000000000000284000
  0
ACAD_PROXY_OBJECT
  5
5B
102
{ACAD_REACTORS
330
47
102
}
330
47
100
AcDbProxyObject
 90
      499
 91
      503
 93
      249
310
90D312F333222203D2031272D3022000000000000280FC000000000000284000
  0
ACAD_PROXY_OBJECT
  5
5C
102
{ACAD_REACTORS
330
47
102
}
330
47
100
AcDbProxyObject
 90
      499
 91
      503
 93
      249
310
90D312F313622203D2031272D30220000000000002C0FC000000000000284000
  0
ACAD_PROXY_OBJECT
  5
5D
102
{ACAD_REACTORS
330
47
102
}
330
47
100
AcDbProxyObject
 90
      499
 91
      503
 93
      249
310
90D332F333222203D2031272D30220000000000002E0FC000000000000284000
  0
ACAD_PROXY_OBJECT
  5
5E
102
{ACAD_REACTORS
330
47
102
}
330
47
100
AcDbProxyObject
 90
      499
 91
      503
 93
      241
310
90C312F3822203D2031272D3022000000000000300FC000000000000284000
  0
ACAD_PROXY_OBJECT
  5
5F
102
{ACAD_REACTORS
330
47
102
}
330
47
100
AcDbProxyObject
 90
      499
 91
      503
 93
      249
310
90D332F313622203D2031272D3022000000000000320FC000000000000284000
  0
ACAD_PROXY_OBJECT
  5
60
102
{ACAD_REACTORS
330
47
102
}
330
47
100
AcDbProxyObject
 90
      499
 91
      503
 93
      241
310
90C312F3422203D2031272D3022000000000000340FC000000000000284000
  0
ACAD_PROXY_OBJECT
  5
61
102
{ACAD_REACTORS
330
47
102
}
330
47
100
AcDbProxyObject
 90
      499
 91
      503
 93
      241
310
90C332F3822203D2031272D3022000000000000360FC000000000000284000
  0
ACAD_PROXY_OBJECT
  5
62
102
{ACAD_REACTORS
330
47
102
}
330
47
100
AcDbProxyObject
 90
      499
 91
      503
 93
      241
310
90C312F3222203D2031272D3022000000000000380FC000000000000284000
  0
ACAD_PROXY_OBJECT
  5
63
102
{ACAD_REACTORS
330
47
102
}
330
47
100
AcDbProxyObject
 90
      499
 91
      503
 93
      241
310
90C332F3422203D2031272D30220000000000003A0FC000000000000284000
  0
ACAD_PROXY_OBJECT
  5
64
102
{ACAD_REACTORS
330
47
102
}
330
47
100
AcDbProxyObject
 90
      499
 91
      503
 93
      161
310
90A3122203D2031272D30224000000000000284000
  0
ACAD_PROXY_OBJECT
  5
65
102
{ACAD_REACTORS
330
47
102
}
330
47
100
AcDbProxyObject
 90
      499
 91
      503
 93
      257
310
90E312D312F3222203D2031272D30220000000000003E0FC000000000000284000
  0
ACAD_PROXY_OBJECT
  5
66
102
{ACAD_REACTORS
330
47
102
}
330
47
100
AcDbProxyObject
 90
      499
 91
      503
 93
      225
310
90A3322203D2031272D302200000000000002100000000000000284000
  0
ACAD_PROXY_OBJECT
  5
67
102
{ACAD_REACTORS
330
47
102
}
330
47
100
AcDbProxyObject
 90
      499
 91
      503
 93
      225
310
90A3622203D2031272D302200000000000006100000000000000284000
  0
ACAD_PROXY_OBJECT
  5
68
102
{ACAD_REACTORS
330
47
102
}
330
47
100
AcDbProxyObject
 90
      499
 91
      503
 93
      249
310
90D31272D3022203D2031272D30220000000000000A100000000000000284000
  0
ACAD_PROXY_OBJECT
  5
2F
102
{ACAD_REACTORS
330
2A
102
}
330
2A
100
AcDbProxyObject
 90
      499
 91
      501
 93
      436
310
42CC9915DA5C99599C985B595049028333333333333E33F0000000000000F90107901411070040501600405405064090741402480A0340
1001
ACAD
1000
AcDbSavedByObjectVersion
1070
     0
  0
ACAD_PROXY_OBJECT
  5
32
102
{ACAD_REACTORS
330
2A
102
}
330
2A
100
AcDbProxyObject
 90
      499
 91
      501
 93
      388
310
4150985CDA58D07406404333333333333E33F0000000000000F90107A41107004050150841D405064090741402480A0350
1001
ACAD
1000
AcDbSavedByObjectVersion
1070
     0
  0
ACAD_PROXY_OBJECT
  5
36
102
{ACAD_REACTORS
330
2A
102
}
330
2A
100
AcDbProxyObject
 90
      499
 91
      501
 93
      428
310
42109C9A59DA1D195B90C409028333333333333E33F0000000000000F9010790141107004050150841D405064090741402480A029950
1001
ACAD
1000
AcDbSavedByObjectVersion
1070
     0
  0
ACAD_PROXY_OBJECT
  5
3A
102
{ACAD_REACTORS
330
2A
102
}
330
2A
100
AcDbProxyObject
 90
      499
 91
      501
 93
      452
310
42D0DBDB1BDC90DA185B99D95104090240C333333333333E33F0000000000000F90108901411070040501508421405064090741402480A0350
1001
ACAD
1000
AcDbSavedByObjectVersion
1070
     0
  0
ACAD_PROXY_OBJECT
  5
34
102
{ACAD_REACTORS
330
2A
102
}
330
2A
100
AcDbProxyObject
 90
      499
 91
      501
 93
      500
310
4290DBDB98D95C1D1D585B10940D028333333333333E33F0000000000000F90107902409070040501000000000018199010841D405064090740C02480A0340
1001
ACAD
1000
AcDbSavedByObjectVersion
1070
     0
  0
ACAD_PROXY_OBJECT
  5
35
102
{ACAD_REACTORS
330
2A
102
}
330
2A
100
AcDbProxyObject
 90
      499
 91
      501
 93
      412
310
40D11A5B50B409028333333333333E33F0000000000000F9010790141107004050150841D405064090741402480A02677FFFFFD0
1001
ACAD
1000
AcDbSavedByObjectVersion
1070
     0
  0
ACAD_PROXY_OBJECT
  5
3D
102
{ACAD_REACTORS
330
2A
102
}
330
2A
100
AcDbProxyObject
 90
      499
 91
      501
 93
      452
310
43115919D950DBDB1BDC93D999916409028333333333333E33F0000000000000F9010790141107004050150841D405064090741402480A0350
1001
ACAD
1000
AcDbSavedByObjectVersion
1070
     0
  0
ACAD_PROXY_OBJECT
  5
39
102
{ACAD_REACTORS
330
2A
102
}
330
2A
100
AcDbProxyObject
 90
      499
 91
      501
 93
      444
310
42D19858D95C185D1D195C9B90F409028333333333333E33F0000000000000F9010790141107004050150841D405064090741402480A0350
1001
ACAD
1000
AcDbSavedByObjectVersion
1070
     0
  0
ACAD_PROXY_OBJECT
  5
2B
102
{ACAD_REACTORS
330
2A
102
}
330
2A
100
AcDbProxyObject
 90
      499
 91
      501
 93
      380
310
41119B185D240901404333333333333E33F0000000000000F9010740A907004050150841D405064090741402480A1B50
1001
ACAD
1000
AcDbSavedByObjectVersion
1070
     0
  0
ACAD_PROXY_OBJECT
  5
2C
102
{ACAD_REACTORS
330
2A
102
}
330
2A
100
AcDbProxyObject
 90
      499
 91
      501
 93
      468
310
43519B185D15DA5D1A115919D95CD0140901404333333333333E33F0000000000000F90107409019070040501600405405064090741402480A1B50
1001
ACAD
1000
AcDbSavedByObjectVersion
1070
     0
  0
ACAD_PROXY_OBJECT
  5
2D
102
{ACAD_REACTORS
330
2A
102
}
330
2A
100
AcDbProxyObject
 90
      499
 91
      501
 93
      404
310
41D1DBDD5C985D5910240902404333333333333E33F0000000000000F9010740A9070040501641D405064090741402480A1B50
1001
ACAD
1000
AcDbSavedByObjectVersion
1070
     0
  0
ACAD_PROXY_OBJECT
  5
2E
102
{ACAD_REACTORS
330
2A
102
}
330
2A
100
AcDbProxyObject
 90
      499
 91
      501
 93
      492
310
4411DBDD5C985D5915DA5D1A115919D95CD0340902404333333333333E33F0000000000000F90107409019070040501600405405064090741402480A1B50
1001
ACAD
1000
AcDbSavedByObjectVersion
1070
     0
  0
ACAD_PROXY_OBJECT
  5
31
102
{ACAD_REACTORS
330
2A
102
}
330
2A
100
AcDbProxyObject
 90
      499
 91
      501
 93
      476
310
41921A5919195B90640502408333333333333E33F0000000000000F901079024090700405020000000000001110200405405064090740C02480A0340
1001
ACAD
1000
AcDbSavedByObjectVersion
1070
     0
  0
ACAD_PROXY_OBJECT
  5
3B
102
{ACAD_REACTORS
330
2A
102
}
330
2A
100
AcDbProxyObject
 90
      499
 91
      501
 93
      428
310
42529A5D1D195C93D999914409028333333333333E33F0000000000000F9010790141107004050150A41D405064090741402480A0350
1001
ACAD
1000
AcDbSavedByObjectVersion
1070
     0
  0
ACAD_PROXY_OBJECT
  5
38
102
{ACAD_REACTORS
330
2A
102
}
330
2A
100
AcDbProxyObject
 90
      499
 91
      501
 93
      444
310
42D31A5B995C185D1D195C9B90E409028333333333333E33F0000000000000F9010790141107004050750841D405064090741402483A0350
1001
ACAD
1000
AcDbSavedByObjectVersion
1070
     0
  0
ACAD_PROXY_OBJECT
  5
3C
102
{ACAD_REACTORS
330
2A
102
}
330
2A
100
AcDbProxyObject
 90
      499
 91
      501
 93
      444
310
42D3DD995C9A185B99D3D999915409028333333333333E33F0000000000000F9010790141107004050150941D405064090741402480A0350
1001
ACAD
1000
AcDbSavedByObjectVersion
1070
     0
  0
ACAD_PROXY_OBJECT
  5
33
102
{ACAD_REACTORS
330
2A
102
}
330
2A
100
AcDbProxyObject
 90
      499
 91
      501
 93
      428
310
425499585B1A5CDD1A58D08409038333333333333E33F0000000000000F9010740A907004050150800405405064090740C02480A1B40
1001
ACAD
1000
AcDbSavedByObjectVersion
1070
     0
  0
ACAD_PROXY_OBJECT
  5
42
102
{ACAD_REACTORS
330
2A
102
}
330
2A
100
AcDbProxyObject
 90
      499
 91
      501
 93
      420
310
4194DA1859195911B40902404333333333333E33F0000000000000F9010740A41107004050150800405405064090840C02480A0B40
1001
ACAD
1000
AcDbSavedByObjectVersion
1070
     0
  0
ACAD_PROXY_OBJECT
  5
41
102
{ACAD_REACTORS
330
2A
102
}
330
2A
100
AcDbProxyObject
 90
      499
 91
      501
 93
      516
310
4454DA18591959081DDA5D1A08195919D95CD1A40902404333333333333E33F0000000000000F901074090142907004050250800405405064090740C02480A0B40
1001
ACAD
1000
AcDbSavedByObjectVersion
1070
     0
  0
ACAD_PROXY_OBJECT
  5
3E
102
{ACAD_REACTORS
330
2A
102
}
330
2A
100
AcDbProxyObject
 90
      499
 91
      501
 93
      532
310
4394DA1859195CC81BD98811DC985E5174090240C333333333333E33F0000000000000F901079024090741D01000000000000111010841D405064090740C02480A0340
1001
ACAD
1000
AcDbSavedByObjectVersion
1070
     0
  0
ACAD_PROXY_OBJECT
  5
3F
102
{ACAD_REACTORS
330
2A
102
}
330
2A
100
AcDbProxyObject
 90
      499
 91
      501
 93
      476
310
41D4DAD95D18DA1E51840502408333333333333E33F0000000000000F901079024090741D01000000000000111010B41D405064090741802480A0340
1001
ACAD
1000
AcDbSavedByObjectVersion
1070
     0
  0
ACAD_PROXY_OBJECT
  5
37
102
{ACAD_REACTORS
330
2A
102
}
330
2A
100
AcDbProxyObject
 90
      499
 91
      501
 93
      412
310
41D51A1A58DAD95B90D409028333333333333E33F0000000000000F9010790141107004050150C41D405064090741402480A0350
1001
ACAD
1000
AcDbSavedByObjectVersion
1070
     0
  0
ACAD_PROXY_OBJECT
  5
30
102
{ACAD_REACTORS
330
2A
102
}
330
2A
100
AcDbProxyObject
 90
      499
 91
      501
 93
      420
310
4255DA5C99599C985B595059028333333333333E33F0000000000000F90107901411070040501600405405064090740C02480A0340
1001
ACAD
1000
AcDbSavedByObjectVersion
1070
     0
  0
ACAD_PROXY_OBJECT
  5
40
102
{ACAD_REACTORS
330
2A
102
}
330
2A
100
AcDbProxyObject
 90
      499
 91
      501
 93
      404
310
41560B54985E51940902404000000000000E03F0000000000000F9010740501907004050150841D405064090740C02480A1B40
1001
ACAD
1000
AcDbSavedByObjectVersion
1070
     0
  0
XRECORD
  5
301
102
{ACAD_REACTORS
330
2F8
102
}
330
2F8
100
AcDbXrecord
 90
        0
  0
XRECORD
  5
317
102
{ACAD_REACTORS
330
2F8
102
}
330
2F8
100
AcDbXrecord
1000
DSTYLE
1002
{
1070
   340
340
11
1002
}
  0
XRECORD
  5
302
102
{ACAD_REACTORS
330
2F8
102
}
330
2F8
100
AcDbXrecord
  1
{88C1BB22-5DC3-407F-9C1D-99585B16952E}
  0
XRECORD
  5
2FB
102
{ACAD_REACTORS
330
2F8
102
}
330
2F8
100
AcDbXrecord
  1

  0
XRECORD
  5
300
102
{ACAD_REACTORS
330
2F8
102
}
330
2F8
100
AcDbXrecord
 90
        1
  0
XRECORD
  5
2FD
102
{ACAD_REACTORS
330
2F8
102
}
330
2F8
100
AcDbXrecord
340
1A
  0
XRECORD
  5
2FF
102
{ACAD_REACTORS
330
2F8
102
}
330
2F8
100
AcDbXrecord
 90
    10781
  0
XRECORD
  5
2FE
102
{ACAD_REACTORS
330
2F8
102
}
330
2F8
100
AcDbXrecord
340
19
  0
XRECORD
  5
304
102
{ACAD_REACTORS
330
2F8
102
}
330
2F8
100
AcDbXrecord
 40
0.0
  0
XRECORD
  5
307
102
{ACAD_REACTORS
330
2F8
102
}
330
2F8
100
AcDbXrecord
340
0
  0
XRECORD
  5
30D
102
{ACAD_REACTORS
330
2F8
102
}
330
2F8
100
AcDbXrecord
 10
0.0
 20
0.0
 30
0.0
  0
XRECORD
  5
309
102
{ACAD_REACTORS
330
2F8
102
}
330
2F8
100
AcDbXrecord
 10
0.0
 20
0.0
 30
0.0
  0
XRECORD
  5
30C
102
{ACAD_REACTORS
330
2F8
102
}
330
2F8
100
AcDbXrecord
 10
0.0
 20
0.0
 30
0.0
  0
XRECORD
  5
30A
102
{ACAD_REACTORS
330
2F8
102
}
330
2F8
100
AcDbXrecord
 10
0.0
 20
0.0
 30
0.0
  0
XRECORD
  5
30B
102
{ACAD_REACTORS
330
2F8
102
}
330
2F8
100
AcDbXrecord
 10
0.0
 20
0.0
 30
0.0
  0
XRECORD
  5
308
102
{ACAD_REACTORS
330
2F8
102
}
330
2F8
100
AcDbXrecord
 10
0.0
 20
0.0
 30
0.0
  0
XRECORD
  5
305
102
{ACAD_REACTORS
330
2F8
102
}
330
2F8
100
AcDbXrecord
340
0
  0
XRECORD
  5
306
102
{ACAD_REACTORS
330
2F8
102
}
330
2F8
100
AcDbXrecord
 70
     0
  0
XRECORD
  5
2FC
102
{ACAD_REACTORS
330
2F8
102
}
330
2F8
100
AcDbXrecord
  1

  0
XRECORD
  5
2F9
102
{ACAD_REACTORS
330
2F8
102
}
330
2F8
100
AcDbXrecord
 90
        1
  0
XRECORD
  5
2FA
102
{ACAD_REACTORS
330
2F8
102
}
330
2F8
100
AcDbXrecord
 90
       70
  0
XRECORD
  5
310
102
{ACAD_REACTORS
330
2F8
102
}
330
2F8
100
AcDbXrecord
340
0
  0
XRECORD
  5
316
102
{ACAD_REACTORS
330
2F8
102
}
330
2F8
100
AcDbXrecord
 10
0.0
 20
0.0
 30
0.0
  0
XRECORD
  5
312
102
{ACAD_REACTORS
330
2F8
102
}
330
2F8
100
AcDbXrecord
 10
0.0
 20
0.0
 30
0.0
  0
XRECORD
  5
315
102
{ACAD_REACTORS
330
2F8
102
}
330
2F8
100
AcDbXrecord
 10
0.0
 20
0.0
 30
0.0
  0
XRECORD
  5
313
102
{ACAD_REACTORS
330
2F8
102
}
330
2F8
100
AcDbXrecord
 10
0.0
 20
0.0
 30
0.0
  0
XRECORD
  5
314
102
{ACAD_REACTORS
330
2F8
102
}
330
2F8
100
AcDbXrecord
 10
0.0
 20
0.0
 30
0.0
  0
XRECORD
  5
311
102
{ACAD_REACTORS
330
2F8
102
}
330
2F8
100
AcDbXrecord
 10
0.0
 20
0.0
 30
0.0
  0
XRECORD
  5
30E
102
{ACAD_REACTORS
330
2F8
102
}
330
2F8
100
AcDbXrecord
340
0
  0
XRECORD
  5
30F
102
{ACAD_REACTORS
330
2F8
102
}
330
2F8
100
AcDbXrecord
 70
     0
  0
XRECORD
  5
303
102
{ACAD_REACTORS
330
2F8
102
}
330
2F8
100
AcDbXrecord
  1
{FAEB1C32-E019-11D5-929B-00C0DF256EC4}
  0
DICTIONARYVAR
  5
321
102
{ACAD_REACTORS
330
318
102
}
330
318
100
DictionaryVariables
280
     0
  1
1:1
  0
DICTIONARYVAR
  5
31D
102
{ACAD_REACTORS
330
318
102
}
330
318
100
DictionaryVariables
280
     0
  1
2
  0
DICTIONARYVAR
  5
31E
102
{ACAD_REACTORS
330
318
102
}
330
318
100
DictionaryVariables
280
     0
  1
1
  0
DICTIONARYVAR
  5
322
102
{ACAD_REACTORS
330
318
102
}
330
318
100
DictionaryVariables
280
     0
  1
1
  0
DICTIONARY
  5
325
330
45
100
AcDbDictionary
280
     1
  3
ACAD_XREC_ROUNDTRIP
360
326
  0
DICTIONARY
  5
323
330
44
100
AcDbDictionary
280
     1
  3
ACAD_XREC_ROUNDTRIP
360
324
  0
DICTIONARY
  5
327
330
46
100
AcDbDictionary
280
     1
  3
ACAD_XREC_ROUNDTRIP
360
328
  0
XRECORD
  5
326
102
{ACAD_REACTORS
330
325
102
}
330
325
100
AcDbXrecord
102
MATERIAL
148
0.0
149
0.0
149
0.0
 93
        0
 94
      127
282
     0
 72
     1
 77
     1
171
     1
175
     1
179
     1
273
     0
  0
XRECORD
  5
324
102
{ACAD_REACTORS
330
323
102
}
330
323
100
AcDbXrecord
102
MATERIAL
148
0.0
149
0.0
149
0.0
 93
        0
 94
      127
282
     0
 72
     1
 77
     1
171
     1
175
     1
179
     1
273
     0
  0
XRECORD
  5
328
102
{ACAD_REACTORS
330
327
102
}
330
327
100
AcDbXrecord
102
MATERIAL
148
0.0
149
0.0
149
0.0
 93
        0
 94
      127
282
     0
 72
     1
 77
     1
171
     1
175
     1
179
     1
273
     0
  0
ENDSEC
  0
EOF
